<?xml version="1.0" encoding="utf-8"?>
<!-- Generator: Adobe Illustrator 25.0.0, SVG Export Plug-In . SVG Version: 6.00 Build 0)  -->
<svg version="1.1" xmlns="http://www.w3.org/2000/svg" xmlns:xlink="http://www.w3.org/1999/xlink" x="0px" y="0px"
	 viewBox="0 0 68.9 68.9" style="enable-background:new 0 0 68.9 68.9;" xml:space="preserve">
<style type="text/css">
	.st0{display:none;}
	.st1{display:inline;}
	.st2{fill:#CE3A49;}
	.st3{fill:#FCEA10;}
	.st4{display:inline;fill:#CE3A49;}
	.st5{display:inline;fill:#FCEA10;}
	.st6{display:inline;fill:#D1C12F;}
	.st7{display:inline;fill:none;stroke:#686549;stroke-miterlimit:10;}
	.st8{fill:#D1C12F;}
	.st9{fill:none;stroke:#686549;stroke-miterlimit:10;}
	.st10{fill:#070707;}
	.st11{fill:#E30613;}
	.st12{display:inline;fill:#1E1E1E;}
	.st13{fill:#110F02;}
</style>
<g id="Layer_1" class="st0">
	<g class="st1">
		
			<rect x="48" y="-41.8" transform="matrix(-1.836970e-16 1 -1 -1.836970e-16 33.2293 -89.7511)" class="st2" width="27" height="27"/>
		<path class="st3" d="M51.3-31.6h2.3c3.4,3,1.3,6.7-1.6,6.7l-2.3,0C46.4-27.9,48.4-31.6,51.3-31.6z"/>
	</g>
	<rect x="129.5" y="-250" class="st4" width="27" height="27"/>
	<path class="st1" d="M288.4-250h-138c-11.5,0-21,9.5-21,21v138c0,11.5,9.5,21,21,21h138c11.5,0,21-9.5,21-21v-138
		C309.4-240.5,299.9-250,288.4-250z M293.2-95.1c0,5-4,9-9,9H154.5c-5,0-9-4-9-9v-129.7c0-5,4-9,9-9h129.7c5,0,9,4,9,9V-95.1z"/>
	<path class="st5" d="M153.1-238.7h-2.3c-3.4-3-1.3-6.7,1.6-6.7h2.3C158.1-242.4,156.1-238.7,153.1-238.7z"/>
	<rect x="165.5" y="-274" class="st5" width="54" height="16"/>
	<path class="st5" d="M133.8-226.3v-2.3c3-3.4,6.7-1.3,6.7,1.6v2.3C137.5-221.4,133.8-223.4,133.8-226.3z"/>
	
		<rect x="87.5" y="-195" transform="matrix(-1.836970e-16 1 -1 -1.836970e-16 -72.512 -301.488)" class="st5" width="54" height="16"/>
	
		<rect x="129.4" y="-97" transform="matrix(6.123234e-17 -1 1 6.123234e-17 226.3856 59.3872)" class="st4" width="27" height="27"/>
	<path class="st5" d="M140.7-93.7v2.3c-3,3.4-6.7,1.3-6.7-1.6l0-2.3C137-98.6,140.7-96.6,140.7-93.7z"/>
	<path class="st5" d="M153-74.3h-2.3c-3.4-3-1.3-6.7,1.6-6.7h2.3C158-78,156-74.3,153-74.3z"/>
	<g class="st1">
		
			<rect x="282.4" y="-97" transform="matrix(-1 -1.224647e-16 1.224647e-16 -1 591.7727 -166.9984)" class="st2" width="27" height="27"/>
		<path class="st3" d="M285.7-81.3h2.3c3.4,3,1.3,6.7-1.6,6.7h-2.3C280.8-77.6,282.8-81.3,285.7-81.3z"/>
		<path class="st3" d="M305.1-93.7v2.3c-3,3.4-6.7,1.3-6.7-1.6v-2.3C301.3-98.6,305.1-96.6,305.1-93.7z"/>
	</g>
	<g class="st1">
		
			<rect x="282.4" y="-250" transform="matrix(-1.836970e-16 1 -1 -1.836970e-16 59.3872 -532.3856)" class="st2" width="27" height="27"/>
		<path class="st3" d="M298-226.3v-2.3c3-3.4,6.7-1.3,6.7,1.6v2.3C301.8-221.4,298-223.4,298-226.3z"/>
		<path class="st3" d="M285.7-245.7h2.3c3.4,3,1.3,6.7-1.6,6.7h-2.3C280.8-242,282.8-245.7,285.7-245.7z"/>
	</g>
	<path class="st5" d="M68.5-82h-66c-6.6,0-12-5.4-12-12v-66c0-6.6,5.4-12,12-12h66c6.6,0,12,5.4,12,12v66C80.5-87.4,75.1-82,68.5-82
		z"/>
	<circle class="st6" cx="5.5" cy="-157" r="9"/>
	<path class="st5" d="M133.8-159.7v-2.3c3-3.4,6.7-1.3,6.7,1.6v2.3C137.5-154.7,133.8-156.7,133.8-159.7z"/>
	<path class="st5" d="M132.7-193.8v-2.3c3-3.4,6.7-1.3,6.7,1.6v2.3C136.5-188.8,132.7-190.9,132.7-193.8z"/>
	<path class="st5" d="M58.1-18.1v-2.3c3-3.4,6.7-1.3,6.7,1.6v2.3C61.9-13.1,58.1-15.2,58.1-18.1z"/>
	<g class="st1">
		<g>
			<rect x="-6" y="-41.8" class="st2" width="27" height="27"/>
			<path class="st3" d="M4.1-18.1l0-2.3c3-3.4,6.7-1.3,6.7,1.6l0,2.3C7.9-13.1,4.1-15.2,4.1-18.1z"/>
		</g>
		<path class="st3" d="M17.6-24.9l-2.3,0c-3.4-3-1.3-6.7,1.6-6.7h2.3C22.6-28.7,20.6-24.9,17.6-24.9z"/>
	</g>
	<rect x="21" y="-41.8" class="st4" width="27" height="27"/>
	<g class="st1">
		<path class="st3" d="M25.1-28.1l0-2.3c3-3.4,6.7-1.3,6.7,1.6l0,2.3C28.8-23.1,25.1-25.2,25.1-28.1z"/>
		<path class="st3" d="M40.6-24.9l-2.3,0c-3.4-3-1.3-6.7,1.6-6.7h2.3C45.6-28.7,43.5-24.9,40.6-24.9z"/>
	</g>
</g>
<g id="Layer_2" class="st0">
	<rect x="-9.5" y="-172" class="st7" width="30" height="30"/>
	<circle class="st6" cx="37.9" cy="-157" r="9"/>
	<rect x="20.5" y="-172" class="st7" width="30" height="30"/>
	<g class="st1">
		<circle class="st8" cx="65.5" cy="-157" r="9"/>
		<rect x="50.5" y="-172" class="st9" width="30" height="30"/>
	</g>
	<circle class="st6" cx="5.5" cy="-97" r="9"/>
	<rect x="-9.5" y="-112" class="st7" width="30" height="30"/>
	<circle class="st6" cx="37.9" cy="-97" r="9"/>
	<rect x="20.5" y="-112" class="st7" width="30" height="30"/>
	<g class="st1">
		<circle class="st8" cx="65.5" cy="-97" r="9"/>
		<rect x="50.5" y="-112" class="st9" width="30" height="30"/>
	</g>
	<g class="st1">
		<circle class="st8" cx="5.5" cy="-127" r="9"/>
		<rect x="-9.5" y="-142" class="st9" width="30" height="30"/>
	</g>
	<g class="st1">
		<circle class="st8" cx="65.5" cy="-127" r="9"/>
		<rect x="50.5" y="-142" class="st9" width="30" height="30"/>
	</g>
</g>
<g id="Layer_5">
</g>
<g id="Layer_3">
	<path class="st10" d="M48.1,1.8H22C10.7,1.8,1.6,11,1.6,22.2v26.1c0,11.2,9.2,20.4,20.4,20.4h26.1c11.2,0,20.4-9.2,20.4-20.4V22.2
		C68.5,11,59.3,1.8,48.1,1.8z M56.8,44.4c0,6.4-5.2,11.6-11.6,11.6H24.9c-6.4,0-11.6-5.2-11.6-11.6V24.1c0-6.4,5.2-11.6,11.6-11.6
		h20.3c6.4,0,11.6,5.2,11.6,11.6V44.4z"/>
</g>
<g id="Layer_3_copy">
	<path class="st11" d="M47.5,1H21.4C10.2,1,1,10.2,1,21.4v26.1c0,11.2,9.2,20.4,20.4,20.4h26.1c11.2,0,20.4-9.2,20.4-20.4V21.4
		C67.9,10.2,58.7,1,47.5,1z M56.3,43.6c0,6.4-5.2,11.6-11.6,11.6H24.3c-6.4,0-11.6-5.2-11.6-11.6V23.3c0-6.4,5.2-11.6,11.6-11.6
		h20.3c6.4,0,11.6,5.2,11.6,11.6V43.6z"/>
</g>
<g id="Layer_6" class="st0">
	<rect x="-6" y="-6.3" class="st4" width="27" height="27"/>
</g>
<g id="Layer_4" class="st0">
	<path class="st12" d="M18.1,11.2l-2.2,0c-3.3-2.9-1.3-6.5,1.6-6.5l2.2,0C23,7.6,21,11.2,18.1,11.2z"/>
	<path class="st12" d="M18.1,63.6l-2.2,0c-3.3-2.9-1.3-6.5,1.6-6.5h2.2C23,60,21,63.6,18.1,63.6z"/>
	<path class="st12" d="M11.1,49.6l0,2.2C8.2,55,4.6,53,4.6,50.2l0-2.2C7.4,44.7,11.1,46.7,11.1,49.6z"/>
	<path class="st12" d="M10.1,33.8l0,2.2c-2.9,3.3-6.5,1.3-6.5-1.6l0-2.2C6.5,29,10.1,31,10.1,33.8z"/>
	<path class="st12" d="M65.2,49.6v2.2c-2.9,3.3-6.5,1.3-6.5-1.6V48C61.6,44.7,65.2,46.7,65.2,49.6z"/>
	<path class="st12" d="M50.8,57.1h2.2c3.3,2.9,1.3,6.5-1.6,6.5l-2.2,0C46,60.8,48,57.1,50.8,57.1z"/>
	<path class="st12" d="M50.8,4.7l2.2,0c3.3,2.9,1.3,6.5-1.6,6.5l-2.2,0C46,8.3,48,4.7,50.8,4.7z"/>
	<path class="st12" d="M57.8,18.8v-2.2c2.9-3.3,6.5-1.3,6.5,1.6v2.2C61.4,23.6,57.8,21.6,57.8,18.8z"/>
	<path class="st12" d="M58.7,34.5v-2.2c2.9-3.3,6.5-1.3,6.5,1.6v2.2C62.4,39.3,58.7,37.3,58.7,34.5z"/>
	<path class="st12" d="M34.8,10.2l-2.2,0c-3.3-2.9-1.3-6.5,1.6-6.5l2.2,0C39.6,6.6,37.7,10.2,34.8,10.2z"/>
	<path class="st12" d="M34.2,58.1h2.2c3.3,2.9,1.3,6.5-1.6,6.5h-2.2C29.3,61.7,31.3,58.1,34.2,58.1z"/>
	<path class="st12" d="M50.8,4.7l2.2,0c3.3,2.9,1.3,6.5-1.6,6.5l-2.2,0C46,8.3,48,4.7,50.8,4.7z"/>
	<path class="st12" d="M4.6,17.8l0-2.2c2.9-3.3,6.5-1.3,6.5,1.6l0,2.2C8.2,22.6,4.6,20.7,4.6,17.8z"/>
	<path class="st12" d="M18.1,11.2l-2.2,0c-3.3-2.9-1.3-6.5,1.6-6.5l2.2,0C23,7.6,21,11.2,18.1,11.2z"/>
	<path class="st12" d="M18.1,63.6l-2.2,0c-3.3-2.9-1.3-6.5,1.6-6.5h2.2C23,60,21,63.6,18.1,63.6z"/>
	<path class="st12" d="M50.8,57.1h2.2c3.3,2.9,1.3,6.5-1.6,6.5l-2.2,0C46,60.8,48,57.1,50.8,57.1z"/>
</g>
<g id="geel" class="st0">
	<path class="st5" d="M17.6,10.6l-2.2,0c-3.3-2.9-1.3-6.5,1.6-6.5l2.2,0C22.4,6.9,20.4,10.6,17.6,10.6z"/>
	<path class="st5" d="M17.6,63l-2.2,0c-3.3-2.9-1.3-6.5,1.6-6.5h2.2C22.4,59.3,20.4,63,17.6,63z"/>
	<path class="st5" d="M10.5,48.9l0,2.2C7.6,54.4,4,52.4,4,49.6l0-2.2C6.9,44.1,10.5,46.1,10.5,48.9z"/>
	<path class="st5" d="M9.5,33.2l0,2.2C6.7,38.7,3,36.7,3,33.8l0-2.2C5.9,28.4,9.5,30.4,9.5,33.2z"/>
	<path class="st5" d="M64.7,48.9v2.2c-2.9,3.3-6.5,1.3-6.5-1.6v-2.2C61.1,44.1,64.7,46.1,64.7,48.9z"/>
	<path class="st5" d="M50.3,56.5h2.2c3.3,2.9,1.3,6.5-1.6,6.5l-2.2,0C45.5,60.1,47.5,56.5,50.3,56.5z"/>
	<path class="st5" d="M50.3,4.1l2.2,0c3.3,2.9,1.3,6.5-1.6,6.5l-2.2,0C45.5,7.7,47.5,4.1,50.3,4.1z"/>
	<path class="st5" d="M57.2,18.1v-2.2c2.9-3.3,6.5-1.3,6.5,1.6v2.2C60.8,23,57.2,21,57.2,18.1z"/>
	<path class="st5" d="M58.2,33.8v-2.2c2.9-3.3,6.5-1.3,6.5,1.6v2.2C61.8,38.7,58.2,36.7,58.2,33.8z"/>
	<path class="st5" d="M34.3,9.6l-2.2,0c-3.3-2.9-1.3-6.5,1.6-6.5l2.2,0C39.1,6,37.1,9.6,34.3,9.6z"/>
	<path class="st5" d="M33.6,57.5h2.2c3.3,2.9,1.3,6.5-1.6,6.5l-2.2,0C28.8,61.1,30.8,57.5,33.6,57.5z"/>
	<path class="st5" d="M50.3,4.1l2.2,0c3.3,2.9,1.3,6.5-1.6,6.5l-2.2,0C45.5,7.7,47.5,4.1,50.3,4.1z"/>
	<path class="st5" d="M4,17.2l0-2.2c2.9-3.3,6.5-1.3,6.5,1.6l0,2.2C7.6,22,4,20,4,17.2z"/>
	<path class="st5" d="M17.6,10.6l-2.2,0c-3.3-2.9-1.3-6.5,1.6-6.5l2.2,0C22.4,6.9,20.4,10.6,17.6,10.6z"/>
	<path class="st5" d="M17.6,63l-2.2,0c-3.3-2.9-1.3-6.5,1.6-6.5h2.2C22.4,59.3,20.4,63,17.6,63z"/>
	<path class="st5" d="M50.3,56.5h2.2c3.3,2.9,1.3,6.5-1.6,6.5l-2.2,0C45.5,60.1,47.5,56.5,50.3,56.5z"/>
</g>
<g id="geel_kleiner">
	<path class="st13" d="M18.1,10.3l-1.7,0c-2.4-2.1-1-4.9,1.2-4.9l1.7,0C21.7,7.6,20.2,10.3,18.1,10.3z"/>
	<path class="st13" d="M18.1,62.8h-1.7c-2.4-2.1-1-4.9,1.2-4.9h1.7C21.7,60,20.2,62.8,18.1,62.8z"/>
	<path class="st13" d="M10.3,49.6l0,1.7c-2.1,2.4-4.9,1-4.9-1.2l0-1.7C7.6,46,10.3,47.5,10.3,49.6z"/>
	<path class="st13" d="M9.3,33.9l0,1.7c-2.1,2.4-4.9,1-4.9-1.2l0-1.7C6.6,30.3,9.3,31.7,9.3,33.9z"/>
	<path class="st13" d="M64.5,49.6v1.7c-2.1,2.4-4.9,1-4.9-1.2v-1.7C61.8,46,64.5,47.5,64.5,49.6z"/>
	<path class="st13" d="M51,57.9h1.7c2.4,2.1,1,4.9-1.2,4.9h-1.7C47.4,60.6,48.9,57.9,51,57.9z"/>
	<path class="st13" d="M51,5.5l1.7,0c2.4,2.1,1,4.9-1.2,4.9l-1.7,0C47.4,8.2,48.9,5.5,51,5.5z"/>
	<path class="st13" d="M58.6,18.6V17c2.1-2.4,4.9-1,4.9,1.2v1.7C61.4,22.3,58.6,20.8,58.6,18.6z"/>
	<path class="st13" d="M59.6,34.4v-1.7c2.1-2.4,4.9-1,4.9,1.2v1.7C62.3,38,59.6,36.5,59.6,34.4z"/>
	<path class="st13" d="M34.8,9.4l-1.7,0c-2.4-2.1-1-4.9,1.2-4.9l1.7,0C38.4,6.6,36.9,9.4,34.8,9.4z"/>
	<path class="st13" d="M34.3,58.9H36c2.4,2.1,1,4.9-1.2,4.9h-1.7C30.7,61.6,32.2,58.9,34.3,58.9z"/>
	<path class="st13" d="M5.4,18.6l0-1.7c2.1-2.4,4.9-1,4.9,1.2l0,1.7C8.2,22.3,5.4,20.8,5.4,18.6z"/>
</g>
<g id="geel_kleiner_copy">
	<path class="st3" d="M17.5,9.7l-1.7,0c-2.4-2.1-1-4.9,1.2-4.9l1.7,0C21.1,7,19.6,9.7,17.5,9.7z"/>
	<path class="st3" d="M17.5,62.2h-1.7c-2.4-2.1-1-4.9,1.2-4.9h1.7C21.1,59.4,19.6,62.2,17.5,62.2z"/>
	<path class="st3" d="M9.7,49l0,1.7c-2.1,2.4-4.9,1-4.9-1.2l0-1.7C7,45.4,9.7,46.9,9.7,49z"/>
	<path class="st3" d="M8.7,33.3l0,1.7c-2.1,2.4-4.9,1-4.9-1.2l0-1.7C6,29.7,8.7,31.1,8.7,33.3z"/>
	<path class="st3" d="M63.9,49v1.7c-2.1,2.4-4.9,1-4.9-1.2v-1.7C61.2,45.4,63.9,46.9,63.9,49z"/>
	<path class="st3" d="M50.4,57.3H52c2.4,2.1,1,4.9-1.2,4.9h-1.7C46.8,60,48.2,57.3,50.4,57.3z"/>
	<path class="st3" d="M50.4,4.9l1.7,0c2.4,2.1,1,4.9-1.2,4.9l-1.7,0C46.8,7.6,48.2,4.9,50.4,4.9z"/>
	<path class="st3" d="M58,18.1v-1.7c2.1-2.4,4.9-1,4.9,1.2v1.7C60.8,21.7,58,20.2,58,18.1z"/>
	<path class="st3" d="M59,33.8v-1.7c2.1-2.4,4.9-1,4.9,1.2v1.7C61.7,37.4,59,35.9,59,33.8z"/>
	<path class="st3" d="M34.2,8.8l-1.7,0c-2.4-2.1-1-4.9,1.2-4.9l1.7,0C37.8,6.1,36.3,8.8,34.2,8.8z"/>
	<path class="st3" d="M33.7,58.3l1.7,0c2.4,2.1,1,4.9-1.2,4.9l-1.7,0C30.1,61,31.6,58.3,33.7,58.3z"/>
	<path class="st3" d="M4.8,18.1l0-1.7c2.1-2.4,4.9-1,4.9,1.2l0,1.7C7.5,21.7,4.8,20.2,4.8,18.1z"/>
</g>
</svg>
