<svg version="1.2" xmlns="http://www.w3.org/2000/svg" viewBox="0 0 357 654" width="357" height="654"><defs><linearGradient id="P" gradientUnits="userSpaceOnUse"/><linearGradient id="g1" x1="-6.6" y1="640.3" x2="-6.6" y2="576.2" href="#P"><stop offset="0" stop-color="#fff"/><stop offset=".8" stop-color="#b9ada4"/></linearGradient><radialGradient id="g2" cx="43.6" cy="176.9" r="4.8" href="#P"><stop stop-color="#fcd4c6"/><stop offset="1" stop-color="#f4ae98"/></radialGradient><radialGradient id="g3" cx="49.4" cy="164.8" r="1" href="#P"><stop stop-color="#fcd4c6"/><stop offset="1" stop-color="#f4ae98"/></radialGradient><radialGradient id="g4" cx="263.4" cy="171.2" r="4.4" href="#P"><stop stop-color="#fcd4c6"/><stop offset="1" stop-color="#f4ae98"/></radialGradient><radialGradient id="g5" cx="259" cy="158.4" r="1" href="#P"><stop stop-color="#fcd4c6"/><stop offset="1" stop-color="#f4ae98"/></radialGradient><radialGradient id="g6" cx="141" cy="198.9" r="2.7" href="#P"><stop stop-color="#fcd4c6"/><stop offset="1" stop-color="#f4ae98"/></radialGradient><radialGradient id="g7" cx="147.5" cy="198.5" r="1.1" href="#P"><stop stop-color="#fcd4c6"/><stop offset="1" stop-color="#f4ae98"/></radialGradient><radialGradient id="g8" cx="89.1" cy="201.9" r="10.8" href="#P"><stop stop-color="#fcd4c6"/><stop offset="1" stop-color="#f4ae98"/></radialGradient><radialGradient id="g9" cx="205.5" cy="200.1" r="11" href="#P"><stop stop-color="#fcd4c6"/><stop offset="1" stop-color="#f4ae98"/></radialGradient><radialGradient id="g10" cx="146.9" cy="216.9" r="18.2" href="#P"><stop stop-color="#fcd4c6"/><stop offset="1" stop-color="#f4ae98"/></radialGradient><radialGradient id="g11" cx="92.5" cy="286.5" r="14.2" href="#P"><stop stop-color="#fcd4c6"/><stop offset="1" stop-color="#f4ae98"/></radialGradient><radialGradient id="g12" cx="56" cy="316.2" r="7.8" href="#P"><stop stop-color="#fcd4c6"/><stop offset="1" stop-color="#f4ae98"/></radialGradient><radialGradient id="g13" cx="268.1" cy="216.6" r="17.6" href="#P"><stop stop-color="#fcd4c6"/><stop offset="1" stop-color="#f4ae98"/></radialGradient></defs><style>.a{mix-blend-mode:multiply;fill:url(#g1)}.b{fill:#231f20}.c{fill:#141414}.d{opacity:.1;fill:#fff}.e{fill:#007338}.f{fill:#02441f}.g{opacity:.5;mix-blend-mode:multiply;fill:#007338}.h{fill:#fff338}.i{fill:#cebb09}.j{mix-blend-mode:multiply;fill:#ffdc38}.k{fill:#f6bb93}.l{fill:#c68267}.m{opacity:.5;mix-blend-mode:multiply;fill:#f6bb93}.n{fill:#662550}.o{fill:#471038}.p{fill:#d1d2d7}.q{fill:#98999b}.r{opacity:.3;mix-blend-mode:multiply;fill:#534351}.s{fill:#aab7c1}.t{fill:#818b91}.u{fill:#f3a01e}.v{fill:#af680b}.w{opacity:.5;mix-blend-mode:multiply;fill:#f3a01e}.x{opacity:.5;mix-blend-mode:multiply;fill:#aab7c1}.y{opacity:.5;mix-blend-mode:multiply;fill:#d1d2d7}.z{opacity:.8;fill:#fff}.A{opacity:.7;mix-blend-mode:screen;fill:#f3a01e}.B{opacity:.5;mix-blend-mode:screen;fill:#a99688}.C{fill:#613906}.D{fill:#3f2203}.E{opacity:.3;mix-blend-mode:multiply;fill:#613906}.F{opacity:.4;mix-blend-mode:screen;fill:#613906}.G{fill:#ed1c24}.H{fill:#bc141a}.I{opacity:.5;mix-blend-mode:multiply;fill:#b9788a}.J{fill:#f5e4d1}.K{fill:#eaae8a}.L{opacity:.5;mix-blend-mode:multiply;fill:#eddcd1}.M{opacity:.8;mix-blend-mode:multiply;fill:#c1b5ae}.N{fill:#2b3190}.O{fill:#120a56}.P{opacity:.8;mix-blend-mode:multiply;fill:#2a2d78}.Q{opacity:.6;mix-blend-mode:multiply;fill:#f6bb93}.R{opacity:.7;mix-blend-mode:screen;fill:url(#g2)}.S{opacity:.7;mix-blend-mode:screen;fill:url(#g3)}.T{opacity:.7;mix-blend-mode:screen;fill:url(#g4)}.U{opacity:.7;mix-blend-mode:screen;fill:url(#g5)}.V{fill:#fff}.W{fill:#52c1c5}.X{fill:#333332}.Y{mix-blend-mode:screen;fill:#333332}.Z{fill:#0a0a0a}.a0{opacity:.4;mix-blend-mode:multiply;fill:#333332}.a1{opacity:.7;mix-blend-mode:screen;fill:url(#g6)}.a2{opacity:.7;mix-blend-mode:screen;fill:url(#g7)}.a3{opacity:.3;fill:#3b3b3b}.a4{opacity:.3;mix-blend-mode:screen;fill:url(#g8)}.a5{opacity:.3;mix-blend-mode:screen;fill:url(#g9)}.a6{fill:#d6d6d6}.a7{fill:#a43145}.a8{fill:#eb5a61}.a9{mix-blend-mode:screen;fill:#eb5a61}.aa{opacity:.7;mix-blend-mode:multiply;fill:#d1c3ba}.ab{opacity:.3;mix-blend-mode:screen;fill:#eddcd1}.ac{opacity:.5;mix-blend-mode:screen;fill:#eddcd1}.ad{opacity:.7;mix-blend-mode:screen;fill:url(#g10)}.ae{opacity:.5;mix-blend-mode:screen;fill:url(#g11)}.af{opacity:.5;mix-blend-mode:screen;fill:url(#g12)}.ag{opacity:.5;mix-blend-mode:screen;fill:url(#g13)}.ah{mix-blend-mode:screen;fill:#007338}</style><path class="a" d="m11.2 640.5c-24.1-7.7-0.7-27.4 18.7-32 22.2-5.4 49.6-7.4 73-6.7 10.6 0.4 38.8-0.2 70.2 0.5 53.1 1.1 115.2 5.7 116.9 24 0.7 6.9-15.2 19.8-56.7 24.5-5 0-156.6 10.4-222.1-10.3z"/><path class="b" d="m276.8 107.8q13.2 20.5 2.2 44.9c-10.5 18.6-28.8 25.9-30.4 26.5 0-1.2-0.2-2.3-0.3-3.5q-0.3-2.8-0.6-5.5c-0.4-6.7-0.5-16.4 0.8-26.7 0.6-3.8 1.3-7.7 2.2-11.8q3.4-15.6 3.4-15.6h-0.3l-3-0.2q0.4-17.1-5.9-26 1.9 11.5 1.6 25.5h-38.5q-0.7-14-5.4-23.2 3.6 18.5 1.2 25.3-24.8 2.8-46.3 0.2-3.8-17.7 1-29-7.2 10.6-6.4 30.2-30.3 4.3-40.4 2.2c-3.6-16.6 2.6-34.3 4.5-38.1-7.1 7.6-10 14-11.8 37.6q-11.1 4.5-36.4 2.1-1.4-17.3 5.2-28.4c-9.3 9-11.1 22.5-10.7 30.8q-10.3 0.2-14.4-0.3 1.1 9.3 4.4 21.4c0.5 1.7 1 3.5 1.5 5.3 0.8 2.7 1.5 5.1 2 7.2 1.3 6.7 1.6 11.4 1.2 16.8-1.3-1.1-8.2-7.4-16.4-20.5q-9.1-14.5-9.7-27.9l-8.6 1.6q-5-14.5-0.5-27.9c-2.7-7.6-0.9-36.3 47.6-70.7 48.6-34.4 139.3-47.1 177.2 6.8q0.3-7.5 0-9.3 4.6 5.5 5.2 11 8.4-3.1 12.1-1.4-6.6 3.4-7.9 6.3 20.8 7.7 25 34.1-4.2-4.3-9.4-4.7 18.2 12.3 11.1 43.2-1.4-4-6.1-8.3z"/><g style="opacity:.6;mix-blend-mode:multiply"><path class="c" d="m226.2 77.6q-1-2.1-2.3-4 1.2 2 2.3 4z"/><path class="c" d="m161.3 0.4c33.8-0.9 66.3 9.3 85.5 36.5q0.3-7.5 0-9.3 4.6 5.5 5.2 11 8.4-3.1 12.1-1.4-6.6 3.4-7.9 6.3-7.3 1.7-10.1 6.5 0.9-8.1-1-10.9l-2.3 9.9q-18.7-46.2-81.5-48.6z"/><path class="c" d="m276.8 107.8q13.2 20.5 2.2 44.9c-10.5 18.6-28.8 25.9-30.4 26.5 0-1.2-0.2-2.3-0.3-3.5q-0.3-2.8-0.6-5.5c-0.4-6.7-0.5-16.4 0.8-26.7 0.6-3.8 1.3-7.7 2.2-11.8q3.4-15.6 3.4-15.6h-0.3l-3-0.2q0.4-17.1-5.9-26 1.9 11.5 1.6 25.5h-38.5q-0.7-14-5.4-23.2 3.6 18.5 1.2 25.3-24.8 2.8-46.3 0.2-3.8-17.7 1-29-7.2 10.6-6.4 30.2-30.3 4.3-40.4 2.2c-3.6-16.6 2.6-34.3 4.5-38.1-7.1 7.6-10 14-11.8 37.6q-11.1 4.5-36.4 2.1-1.4-17.3 5.2-28.4c-9.3 9-11.1 22.5-10.7 30.8q-10.3 0.2-14.4-0.3 1.1 9.3 4.4 21.4c0.5 1.7 1 3.5 1.5 5.3 0.8 2.7 1.5 5.1 2 7.2 1.3 6.7 1.6 11.4 1.2 16.8-1.3-1.1-8.2-7.4-16.4-20.5q-9.1-14.5-9.7-27.9l-8.6 1.6q-5-14.5-0.5-27.9c-1.9-5.4-1.5-21.5 16.3-42.8h0.9q-18.9 27.4-11.9 60 8.1-1 14.7-0.5 1.9-20.8 9.9-34.5-5.2 21.3-2.8 33.6l8.5 1.4q3.3-30.3 33.1-46.3-12.3 21.7-14.2 43.9l23.1-0.9q-3.3-34.5 30.3-52.5-15.2 28.4-13.3 52.5l29.3-1.9q1.4-26.9 18-48.2-4.3 28.8-0.5 44.9l35.9 1.9q1.4-30.7-8.5-46.3 24.6 24.5 24.6 43.4 12.7-0.4 16-0.4 1.2-17.6-5.2-30.5 7.5 14 9.5 30l5.6 1.4q5.7-32.1-10.8-53.4 23.1 18 27.4 49.2 8.5-1.9 10.4-1.5-3.3-31.6-14.7-44.8 16.1 7.5 19.9 10.8-2.4-20.3-24.1-17 4.2-7.1 6.8-8.8 20.8 7.7 25 34.1-4.2-4.3-9.4-4.7 18.2 12.3 11.1 43.2-1.4-4-6.1-8.3z"/></g><path class="d" d="m135 40.1q-37.7 38.2-37.7 68.4-7.6 0.5-7.6 0.5 0.5-22.2 11.8-36.8-13.2 8.9-18.4 34.9 2.7-63.7 51.9-67z"/><path class="c" d="m237.1 50.4q-45.8-41.1-122.8-16.5c19.8-12.8 82.2-20.8 122.8 16.5z"/><path class="d" d="m101.5 48.5q-40.6 29.3-44.9 62.4-5.6-1.4-5.6-1.4 9.9-52.4 50.5-61z"/><path class="d" d="m76.9 46.7q-37.7 18.9-40.1 61.8-4.7 1.9-8.5 1.4-3.3-49.6 48.6-63.2z"/><path class="d" d="m164.8 41.6q-22.2 28.9-23.6 66.5-9.9 0.7-9.9 0.7-0.7-17.7 10.6-37.6-18.4 15.6-19.1 36.9-4-55.9 42-66.5z"/><path class="d" d="m194.6 103.8q-5.2-23.1-13.7-40.6 2.3 15.1 2.3 39.2-4.7 0.5-14.6 0-2.8-39.7 8-61.4 22.7 24.1 18 62.8z"/><path class="d" d="m238.5 101.4q-9.4-40.1-28.8-46.2 16.5 16.5 17.9 45.3 0 0-9.4-1.4-8.5-33.5-28.8-56.2 49.1-0.5 49.1 58.5z"/><path class="d" d="m76.9 29.6c29.3-21.2 75.6-36.3 121.4-20.7-24-8.1-38.7-4.3-55.2-1-16.6 3.3 37.3-0.9 17 3.8-20.3 4.7 2.8-1 23.1 7.6q-34.9-9-77.9 14.1c8-12.3 23.6-12.7 16.5-17.5q-9.4-6.2-44.9 13.7z"/><path class="e" d="m68.4 391c4.6 2.1 12.5 5.2 21.5 6.8q-4.1 9.8-8.2 16.4-16.7 0-34.7-14.9c-18.1-14.9-13.5-22.4-5-35.8q8.5-13.5 21.6-33.7l6.6-4.5 3.2-0.4q-13.5 24.3-19.1 40.8c-5.7 16.5 6.1 21.5 14.1 25.3z"/><path fill-rule="evenodd" class="f" d="m82.1 414.8h-0.4c-0.2 0-17.1-0.1-35.2-15-18.6-15.3-13.5-23.4-5.1-36.7 8.4-13.3 21.5-33.5 21.6-33.7l0.2-0.2 6.9-4.6 4.6-0.6-0.7 1.2c-0.1 0.3-13.5 24.5-19.1 40.8-5.3 15.4 4.9 20.2 13.2 24l0.7 0.3c2.3 1.2 10.7 4.9 21.2 6.8l0.9 0.2-0.3 0.8c-4.2 9.7-8.3 16.4-8.3 16.4zm-17.9-84.5c-1.2 1.7-13.5 20.8-21.6 33.5-8.5 13.6-12.8 20.4 4.8 34.9 16.2 13.3 31.3 14.6 33.9 14.7 0.9-1.4 4.2-7.1 7.6-15.1-9.9-1.9-17.8-5.3-20.7-6.7l-0.7-0.3c-7.8-3.7-19.6-9.2-13.9-25.8 4.9-14.3 15.7-34.6 18.5-39.8l-1.6 0.3z"/><path class="g" d="m89.9 397.8q-4.1 9.8-8.2 16.4-3.8-0.1-9.8-1.7c1.6-2.5 2.9-5.1 3.5-8 1-4.9-3.5-6.5-7.3-7.9-5.2-2-9.9-5.8-15.5-6.6-4.4-0.7-8 1.6-11.6 3.8-5.2-5.5-6.9-10-6.4-14.5q0.3 0 0.5 0c4.8 0.1 10-0.7 12.5-5.2 1-1.8 1.1-3.9 1.3-5.8 0.3-4 1.2-6.8 3-10.3 1.7-3.2 5.1-8.6 3.2-12.3q-0.1 0-0.2 0.1c-1.4 0.9-2.7 2.1-3.7 3.4q6.4-10.2 12.4-19.4l6.6-4.5 3.2-0.4q-13.5 24.3-19.1 40.8c-5.7 16.5 6.1 21.5 14.1 25.3 4.6 2.1 12.5 5.2 21.5 6.8z"/><path class="e" d="m89.9 397.8c-9-1.6-16.9-4.7-21.5-6.8-8-3.8-19.8-8.8-14.1-25.3q5.6-16.5 19.1-40.8l-3.2 0.4 18.2-12.5q4.3 9.2 9.2 38.6c2.8 16.4-2.5 34-7.7 46.4z"/><path fill-rule="evenodd" class="f" d="m90.3 398.6l-0.5-0.1c-10.4-1.9-18.6-5.4-21.7-6.9l-0.7-0.3c-7.7-3.6-19.5-9.1-13.8-25.8 4.9-14.3 15.7-34.5 18.5-39.7l-4.9 0.7 21.5-14.7 0.3 0.7c0.2 0.4 4.4 9.7 9.3 38.8 2.8 16.7-2.7 34.7-7.7 46.8zm-15.7-74.7l-0.7 1.3c-0.1 0.2-13.4 24.5-19 40.7-5.3 15.5 4.9 20.3 13.1 24.1l0.7 0.3c2.3 1.1 10.5 4.8 20.7 6.7 5-11.9 10.2-29.3 7.4-45.5-4-24.3-7.7-34.8-8.8-37.6l-15 10.3z"/><path class="g" d="m89.9 397.8c-6.4-1.2-12.2-3-16.7-4.8 1.1-4.4-2.2-8.2-6-10.5-2.5-1.6-5.1-2.6-7.3-4.5-2.1-1.8-1.4-4.9-1-7.3 0.6-2.6 1.3-5.2 2.2-7.7 0.5-1.5 1.1-2.9 1.9-4.3 1.2-2.2 4.3-1.9 6.3-1.8 4.1 0.2 4.3-1.2 5.8-4.6 1.8-3.8 2.8-8.3 2.5-12.4-0.4-5.1-3-3.2-5.3-1-2.7 2.7-6 4.9-9.5 6.6q5.3-11.1 10.6-20.6l-3.2 0.4 18.2-12.5q4.3 9.2 9.2 38.6c2.8 16.4-2.5 34-7.7 46.4z"/><path class="f" d="m37.6 389.9l-0.7-1.2c0.1 0 7.5-4.5 18.4-7.1l0.3 1.3c-10.6 2.6-17.9 7-18 7z"/><path class="h" d="m84 363.8l-5.9 17.8-16-5.3 5.9-17.7z"/><path fill-rule="evenodd" class="i" d="m78.6 382.4l-17.4-5.6 6.3-19 17.4 5.6zm-15.6-6.6l14.7 4.8 5.5-16.4-14.7-4.7z"/><path class="j" d="m84 363.8l-5.9 17.8-3.6-1.2c-0.9-1.6-2.7-2.5-4-3.6-2.8-2.4-2.2-4.6-1.3-7.6 0.8-2.5 2-6.4 1.9-9.6z"/><path class="k" d="m199.8 575.1l-1.7-10.6q-5-32.2-21.1-92.1 11.9 0 31.3-5 6.9 25.7 17.1 94.8c0.1 0 0.2 0 0.3 0 0.2 0.7 0.6 2.6 1.7 7.4q-16.1-8.3-27.6 5.5z"/><path fill-rule="evenodd" class="l" d="m199.4 576.7l-2-12.1c-4.9-31.8-20.9-91.5-21.1-92l-0.2-0.9h0.9c11.7 0 30.9-4.9 31.1-4.9l0.7-0.2 0.2 0.7c0 0.2 7 26.3 17 94.3l0.4 0.4 2.1 8.9-1.4-0.7c-3.3-1.7-6.7-2.6-10-2.6-10 0-16.7 7.8-16.7 7.9zm-21.5-103.6c2.1 7.5 16.3 61.5 20.9 91.3l1.5 9.2c2.3-2.3 8.3-7.4 16.8-7.4q4.6 0 9.3 2.1l-1.3-5.4-0.4-0.6c-9.2-62.3-15.8-89.5-16.9-94-3.5 0.9-19.3 4.6-29.9 4.8z"/><g style="opacity:.5;mix-blend-mode:multiply"><path fill-rule="evenodd" class="k" d="m227.4 569.6q-16.1-8.3-27.6 5.5l-1.7-10.6q-5-32.2-21.1-92.1 11.9 0 31.3-5 6.9 25.7 17.1 94.8c0.1 0 0.2 0 0.3 0 0.2 0.7 0.6 2.6 1.7 7.4zm-11.1-41.2c-1.6-10.3-2.9-21.4-7.1-31.1-5.7-13.5-19.8-3.2-17.5 8.5q4.3 21.2 8.5 41.1c2.9 14.6 6.7 15.5 12.8 15.1 6.1-0.5 7.1-9.9 3.3-33.6z"/></g><path class="k" d="m198.2 475.7c6.9-0.7 8.6 4.9 0.2 7.5q-8.3 2.6-11.8-2.6c-0.6-2.4 4.7-4.3 11.6-4.9z"/><path class="l" d="m193.2 485.9q0.5 0 1.2-0.2 0.5-0.2 1.1-0.4c0.5-0.1 0.9-0.2 1.3-0.4 0.5-0.1 1-0.3 1.4-0.4 0.4-0.1 0.8-0.2 1.2-0.3q0.8-0.1 1.3-0.1-0.3 0.4-0.9 0.9c-0.3 0.2-0.7 0.5-1.1 0.7-0.5 0.2-0.9 0.5-1.4 0.6-0.6 0.1-1.1 0.3-1.6 0.3-0.4 0-0.9 0-1.3-0.1-0.4-0.1-0.7-0.3-0.9-0.3q-0.3-0.2-0.3-0.3z"/><path class="m" d="m227.4 569.6c-1.8-1-3.5-1.6-5.1-2 0-18.2-5.3-55.8-9.2-67.4-4.6-13.8-10.6-14.8-9.5-16.3 3.8-5.8 2.3-12.8 1.4-15.7q2.1-0.4 3.3-0.8 6.9 25.7 17.1 94.8c0.1 0 0.2 0 0.3 0 0.2 0.7 0.6 2.6 1.7 7.4z"/><path class="k" d="m117.1 472.8q-8.7 32-16.3 89.7-0.9 7.8 0 10.3 0 0-5 1.1c-4.2-8.3-17.6-7.1-21.9-1.6q-1.6-2.3-1.2-9.9-1.4-59.5 13.7-98.7 19 6.4 30.7 9.1z"/><path fill-rule="evenodd" class="l" d="m95.4 574.7l-0.3-0.5c-1.8-3.5-5.6-5.6-10.4-5.6-4.3 0-8.3 1.6-10.3 4.2l-0.5 0.7-0.6-0.8c-1.7-2.4-1.4-9.5-1.3-10.3-1.4-58.9 13.6-98.5 13.7-98.9l0.3-0.6 0.6 0.2c0.2 0 19.1 6.4 30.6 9.1l0.7 0.1-0.2 0.7c-8.5 31.6-16.1 89.1-16.2 89.6-0.9 7.4 0 9.9 0 9.9l0.2 0.8zm-10.6-7.5c5.1 0 9.3 2.2 11.4 5.9l3.9-0.9c-0.3-1.3-0.6-4.2 0.1-9.8 0.1-0.6 7.6-57.3 16.1-89.1-10.4-2.5-26-7.6-29.4-8.7-1.9 5.3-14.7 43.2-13.4 97.8-0.1 1.8-0.2 6.3 0.6 8.6 2.4-2.4 6.5-3.8 10.7-3.8z"/><g style="opacity:.5;mix-blend-mode:multiply"><path fill-rule="evenodd" class="k" d="m100.8 572.8q0 0-5 1.1c-4.2-8.3-17.6-7.1-21.9-1.6q-1.6-2.3-1.2-9.9-1.4-59.5 13.7-98.7 19 6.4 30.7 9.1-8.7 32-16.3 89.7-0.9 7.8 0 10.3zm-1.7-27.8q2.4-24.1 6.6-48.2c0.5-6.1-1.3-9.4-11.3-9-9.9 0.5-12.7 27.4-13.7 52-0.9 24.5 16.1 30.2 18.4 5.2z"/></g><path class="l" d="m98.2 480.7q0.1 0.1 0.3 0.1c0.2 0.1 0.5 0 0.8 0.1 0.3 0 0.5 0.2 0.9 0.2 0.4 0 0.8 0.1 1.1 0.2 0.2 0.1 0.4 0.2 0.6 0.2 0.1 0 0.3 0.1 0.5 0.1q0.5 0.1 1 0.3 0.5 0.2 1 0.5-0.5 0.2-1.1 0.3-0.5 0.1-1.1 0.1c-0.2 0-0.4 0-0.6 0-0.2 0-0.4-0.1-0.6-0.1-0.4-0.1-0.9-0.3-1.2-0.5-0.4-0.1-0.7-0.4-0.9-0.6q-0.5-0.4-0.7-0.9z"/><path class="k" d="m102.6 475.8c3.5 0.7 12.4 2.8 3.1 4.9q-9.1 2.2-10.9-5.3c0.3-1.7 4.2-0.3 7.8 0.4z"/><path class="m" d="m78.1 569.3c-1.7 0.7-3.2 1.8-4.2 3q-1.6-2.3-1.2-9.9-1.4-59.5 13.7-98.7 1.5 0.6 4.1 1.4c-1.3 3.7-2.9 9.6-1.7 11.7 1.7 3.2-16.9 21.2-10.7 92.5z"/><path class="n" d="m188 618.7h-0.5c-2.4-3-2.6-6.3-2.3-8.3 0.6-2.7 1.6-5.5 2.7-8.1 5.2-12.8 9.5-20.7 5.2-25-4.2-4.3-2.3-9.5 5-12.8l1.7 10.6q11.5-13.8 27.6-5.5c-1.1-4.8-1.5-6.7-1.7-7.4q13.8 0.4 10.9 7.9 5.2 5.2 17.1 34.8 0.5 1.4 0.9 2.7c-6.4-6.5-17.3-12.6-32.6-11.1q-24.1 2.3-34 22.2z"/><path fill-rule="evenodd" class="o" d="m187.2 619.5l-0.2-0.3c-2.5-3.2-2.8-6.6-2.5-8.8q0.9-4 2.7-8.4 1.1-2.6 2.1-4.9c4-9.6 6.7-15.9 3.3-19.3-1.9-1.9-2.7-4.1-2.3-6.3 0.5-3 3.2-5.7 7.5-7.6l0.8-0.5 1.7 10.1c2.3-2.2 8.3-7.3 16.8-7.3q4.6 0 9.3 2.1l-1.6-6.8h0.9c5.6 0.2 9.3 1.5 10.9 4 1.2 1.8 1 3.6 0.8 4.4 1.2 1.5 6.6 8.8 17 34.8q0.4 1.2 0.9 2.7l0.8 2.7-2-2c-4.1-4.2-13.2-11.1-27.5-11.1q-2.3-0.1-4.6 0.2c-23.4 2.3-33.3 21.6-33.4 21.8l-0.2 0.3zm10.3-53.9c-3.3 1.7-5.4 3.8-5.8 6.2-0.3 1.7 0.4 3.5 2 5.1 4 4 1.2 10.7-3.1 20.8-0.6 1.5-1.3 3.2-2 4.9-1.2 2.9-2.1 5.6-2.7 8-0.2 1.8 0 4.5 1.8 7.2 1.9-3.4 12.4-19.9 34.2-22 1.6-0.2 3.2-0.2 4.7-0.2 12.8 0 21.5 5.3 26.4 9.5-11.6-28.8-16.9-34.4-16.9-34.5l-0.3-0.3 0.1-0.4c0-0.1 0.7-1.9-0.4-3.6-1.3-1.9-4.3-3-8.9-3.3l1.9 7.9-1.4-0.7c-3.3-1.7-6.7-2.6-10-2.6-10 0-16.7 7.9-16.7 8l-1 1.2z"/><path class="p" d="m254.6 607.6q0.5 1.8 0.9 3.5c-3.2 6.1-11.6 12.3-32.2 14.4-22.5 2.3-32-1.9-35.8-6.8h0.5q9.9-19.9 34-22.2c15.3-1.5 26.2 4.6 32.6 11.1z"/><path fill-rule="evenodd" class="q" d="m211.7 626.9c-12.4 0-20.7-2.6-24.7-7.7l-0.8-1 1.3-0.2c1.5-2.7 12-20 34.4-22.2 1.6-0.2 3.1-0.3 4.7-0.3 14.9 0 24.2 7.3 28.5 11.6l0.2 0.3q0.5 1.9 0.9 3.5v0.3l-0.1 0.2c-4.1 8-15.1 13-32.7 14.8-4.2 0.4-8.2 0.7-11.7 0.7zm-23.1-8c4 4.3 11.7 6.5 23.1 6.5 3.5 0 7.4-0.2 11.5-0.6 17-1.7 27.5-6.4 31.5-13.9q-0.2-1.4-0.7-3c-4.2-4.1-13.2-10.9-27.4-10.9q-2.3-0.1-4.6 0.2c-22.8 2.2-32.7 20.5-33.4 21.7z"/><path class="r" d="m254.6 607.6c-6.4-6.5-17.3-12.6-32.6-11.1q-24.1 2.3-34 22.2h-0.5c-2.4-3-2.6-6.3-2.3-8.3 0.6-2.7 1.6-5.5 2.7-8.1 0.8-1.9 1.6-3.7 2.3-5.4-0.1 0.1-0.1 0.3-0.1 0.4-2.5 10.6-0.7 13.5 4.9 7.1 5.7-6.4 5.7-11 3.6-15.6-2.1-4.6-1.8-8.9-2.1-17-0.2-2.7-1.3-4-2.8-4.6q1.8-1.5 4.4-2.7l1.7 10.6q0.3-0.4 0.9-0.9c0.1 1 0.6 1.9 1.9 2.3 2.5 0.6 5.9-1.8 8.1-2.7 4.4-1.7 10-0.3 14.3 1.1 1.4 0.4 3.6 2 4.6 0.2 1.4-2.2-0.9-4.5-2.3-6.2-1-4.3-1.4-6-1.6-6.7 1.8 0 3.3 0.2 4.6 0.5-0.2 0.4-0.2 1-0.2 1.6 0.4 8.2 3.2 8.2 7.1 13.5 3.9 5.3 1.4 16.3 8.1 19.2 2.5 1 3.5-0.6 3.6-3.4 1.5 3.3 3.1 7.1 4.8 11.3q0.5 1.4 0.9 2.7z"/><path class="p" d="m255.5 611.1c4.1 23.4-32.1 23.3-53.2 21.8-18-1.3-19.8-11.8-17.1-22.5-0.6 5.3 1.4 18.8 38.1 15.1 20.6-2.1 29-8.3 32.2-14.4z"/><g style="opacity:.5;mix-blend-mode:multiply"><path class="s" d="m255.5 611.1c4.1 23.4-32.1 23.3-53.2 21.8-18-1.3-19.8-11.8-17.1-22.5-0.6 5.3 1.4 18.8 38.1 15.1 20.6-2.1 29-8.3 32.2-14.4z"/><path fill-rule="evenodd" class="t" d="m216.8 634.2c-4.5 0-9.2-0.2-14.5-0.6-7.8-0.6-13.3-2.9-16.2-7-2.8-3.9-3.4-9.4-1.6-16.3l1.4 0.2c-0.3 2.2 0 5.4 2.7 8.4 5.1 5.7 16.9 7.7 34.6 5.9 17.1-1.7 27.7-6.5 31.6-14.1l1-1.9 0.4 2.1c0.9 5.3-0.2 9.8-3.1 13.4-5.5 6.5-17.8 9.9-36.3 9.9zm-31.8-18.7c-0.4 4.2 0.4 7.7 2.2 10.3q4.1 5.6 15.2 6.4c5.3 0.4 10 0.5 14.4 0.5 18.1 0 30-3.1 35.2-9.3q3.5-4.2 3-10.2c-4.8 7-15.4 11.4-31.6 13-18.2 1.9-30.4-0.3-35.9-6.4-1.3-1.4-2.1-2.9-2.5-4.3z"/></g><g style="mix-blend-mode:multiply"><path class="n" d="m227.4 569.6q0.5 0.1 1.1 0.5c0.6 0.4 1.3 1.1 1.9 1.9 0.3 0.4 0.5 0.8 0.7 1.2 0.2 0.4 0.3 0.8 0.5 1.1q0.2 0.7 0.2 1.2-0.4-0.3-0.9-0.8c-0.6-0.4-1.1-1.2-1.7-1.9-0.5-0.7-1-1.5-1.3-2.1-0.1-0.3-0.3-0.6-0.3-0.8q-0.1-0.2-0.2-0.3z"/><path class="n" d="m200.5 574.6q0 0.4-0.2 0.9c-0.1 0.5-0.3 1-0.5 1.5q-0.4 0.8-0.7 1.5-0.2 0.4-0.4 0.7-0.3-0.3-0.4-0.8c-0.1-0.3-0.1-0.6-0.1-0.9 0.1-0.4 0.2-0.7 0.3-1 0.3-0.7 0.7-1.2 1.2-1.5q0.4-0.3 0.8-0.4z"/></g><path class="u" d="m232.8 583.8q-14-4.3-27.5 2.3c-3.9 2.3-6.2 0.2-5.7-2.3 0.5-2.6 7.5-7.5 19.4-7.2 17.9 0.4 18.7 7.8 13.8 7.2z"/><path fill-rule="evenodd" class="v" d="m232.8 583.8c-2.3-0.6-4.6-0.9-6.9-0.9q-1.8-0.1-3.6 0c-1.1 0.1-2.2 0.1-3.4 0.2-1.2 0.1-2.3 0.3-3.5 0.4-1.1 0.3-2.2 0.4-3.4 0.7q-1.7 0.4-3.3 0.9c-1.1 0.3-2.2 0.8-3.3 1.3v-0.1c-0.5 0.3-1 0.5-1.5 0.8-0.5 0-1 0.3-1.6 0.2-1.1 0.1-2.4-0.6-2.8-1.7-0.4-1.2-0.2-2.4 0.6-3.3 0.6-0.9 1.5-1.6 2.4-2.3q1.3-0.9 2.8-1.6 1.5-0.7 3.1-1.2 1.6-0.5 3.2-0.8c1.1-0.2 2.1-0.3 3.2-0.4 1.1-0.1 2.2-0.2 3.3-0.2 1.1 0 2.2 0.1 3.3 0.2 1 0 2.1 0.2 3.2 0.3 1.1 0.2 2.1 0.4 3.2 0.7q1.6 0.4 3.1 1c1 0.5 2 1 2.9 1.7 0.8 0.7 1.7 1.5 1.7 2.8-0.1 0.6-0.5 1-1.1 1.2-0.2 0.1-0.5 0.1-0.8 0.2h-0.8zm0-0.2h0.8c0.3 0 0.6 0 0.8-0.1 0.4-0.2 0.8-0.7 0.8-1.1 0-1.1-0.9-1.8-1.7-2.4-0.9-0.5-1.9-0.9-2.9-1.2-1-0.3-2-0.5-3.1-0.7-1-0.2-2.1-0.4-3.1-0.5-1-0.1-2.1-0.2-3.1-0.3-1.1 0-2.1-0.1-3.2-0.1-1 0-2.1 0.1-3.1 0.1-1.1 0.1-2.1 0.2-3.2 0.4q-1.5 0.2-3 0.6-1.6 0.4-3 1c-1 0.4-2 0.8-2.9 1.4-0.8 0.5-1.7 1.1-2.4 1.9-0.6 0.6-0.9 1.8-0.5 2.7 0.3 0.9 1.3 1.5 2.3 1.5 0.5 0.1 1-0.2 1.5-0.3 0.4-0.2 0.9-0.5 1.4-0.7 1.1-0.5 2.1-1.1 3.2-1.5q1.7-0.7 3.4-1.2c1.1-0.4 2.3-0.6 3.4-0.9 1.2-0.1 2.4-0.3 3.6-0.4q1.8-0.1 3.6 0 1.8 0.1 3.5 0.4 3.5 0.5 6.9 1.4z"/><path class="u" d="m236.1 594.7q-14-4.3-27.5 2.3c-3.9 2.4-6.2 0.2-5.7-2.3 0.4-2.5 7.5-7.5 19.3-7.2 18 0.4 18.7 7.8 13.9 7.2z"/><path fill-rule="evenodd" class="v" d="m236.1 594.8c-2.3-0.7-4.7-1-7-1q-1.7-0.1-3.5 0c-1.1 0.1-2.3 0.1-3.5 0.2-1.1 0.1-2.2 0.3-3.4 0.5-1.1 0.2-2.3 0.4-3.4 0.6-1.1 0.3-2.3 0.6-3.4 0.9-1.1 0.3-2.1 0.8-3.2 1.3-0.5 0.2-1 0.5-1.5 0.6-0.6 0.1-1.1 0.4-1.7 0.3-1.1 0.1-2.3-0.6-2.7-1.7-0.5-1.1-0.2-2.4 0.5-3.3 0.7-0.9 1.5-1.6 2.4-2.3 0.9-0.6 1.9-1.2 2.9-1.6q1.5-0.7 3.1-1.2 1.5-0.5 3.2-0.8 1.6-0.3 3.2-0.4 1.6-0.2 3.3-0.2c1.1 0 2.2 0.1 3.2 0.2 1 0 2.2 0.2 3.2 0.3q1.7 0.3 3.2 0.7 1.7 0.4 3.2 1c1 0.5 1.9 1 2.8 1.7 0.8 0.7 1.7 1.6 1.8 2.8-0.2 0.6-0.6 1-1.1 1.2q-0.4 0.1-0.8 0.2h-0.8zm0-0.2h0.8c0.2 0 0.5-0.1 0.8-0.1 0.4-0.2 0.8-0.6 0.8-1.1-0.1-1.1-0.9-1.8-1.8-2.4-0.9-0.5-1.8-0.9-2.8-1.2-1-0.3-2.1-0.5-3.1-0.7-1-0.2-2.1-0.4-3.1-0.5-1.1-0.1-2.1-0.2-3.2-0.3-1 0-2.1-0.1-3.1-0.1-1.1 0-2.1 0.1-3.2 0.1-1 0.1-2.1 0.2-3.1 0.4q-1.5 0.2-3.1 0.6-1.5 0.4-2.9 1-1.5 0.6-2.9 1.4c-0.9 0.5-1.7 1.1-2.4 1.9-0.7 0.6-0.9 1.8-0.5 2.7 0.3 0.9 1.2 1.5 2.3 1.5 0.4 0 0.9-0.2 1.4-0.3 0.5-0.2 1-0.5 1.4-0.7h0.1c1-0.5 2.1-1.1 3.2-1.5 1.1-0.5 2.2-0.9 3.4-1.2 1.1-0.4 2.3-0.6 3.4-0.9 1.2-0.1 2.4-0.3 3.6-0.4q1.8-0.1 3.5 0c1.2 0.1 2.4 0.2 3.6 0.4 2.3 0.3 4.6 0.8 6.9 1.4z"/><path class="w" d="m234.8 581c1.3 1.6 0.3 3.1-2 2.8q-14-4.3-27.5 2.3c-3.9 2.3-6.2 0.2-5.7-2.3q0.1-0.5 0.5-1 0.1 0.8 1.1 1.4c1.6 0.9 4.3 0 5.7-0.8 3.3-2 6.8-3 10.5-3.5 3-0.3 6.1-0.1 9 0.8 1.8 0.5 3.7 1.4 5.6 1.4 1.2-0.1 2.1-0.5 2.8-1.1z"/><path class="w" d="m236.1 594.7q-14-4.3-27.5 2.3c-3.9 2.4-6.2 0.2-5.7-2.3q0.1-0.5 0.6-1.2 0.2 0.5 0.7 1c1.8 1.7 4.4 0.1 6-0.9 3.7-2.5 7.6-3.1 12-2.8 1.7 0.1 12.5 2.7 14.4-0.2 3.2 2.1 2.3 4.4-0.5 4.1z"/><path class="x" d="m252.3 624.1c-1.2-2.8-4.2-3.8-8.9-1.6-14.9 7.8-37.1 6.6-43.6 5.1-5.8-1.3-6.1 2.6-6 3.6-10-3.6-10.8-12.1-8.6-20.8-0.6 5.3 1.4 18.8 38.1 15.1 20.6-2.1 29-8.3 32.2-14.4 0.9 5.5-0.4 9.7-3.2 13z"/><g style="opacity:.5;mix-blend-mode:multiply"><path class="y" d="m254.6 607.6q0.5 1.8 0.9 3.5c-3.2 6.1-11.6 12.3-32.2 14.4-22.5 2.3-32-1.9-35.8-6.8h0.5q5.2-10.4 17.2-17.1c-3.2 3-20.1 19.7 12.2 18.7 34.2-1 38-14.9 24.2-21.3 5.4 2.2 9.8 5.3 13 8.6z"/></g><path class="z" d="m214.3 601.6q14.2-3.6 25.8 1.9c5.3 2.5-7.2-11.5-25.8-1.9z"/><path class="z" d="m246.3 604.8c-0.1 0.5-1 0.6-2 0.3-1-0.3-1.7-1-1.5-1.5 0.1-0.4 1-0.6 2-0.2 1 0.3 1.7 0.9 1.5 1.4z"/><path class="A" d="m204.8 581q8.2-3.6 17.2-2.6c3.9 1.1-7-5-17.2 2.6z"/><path class="A" d="m207.1 591.8q8.2-3.6 17.2-2.6c3.9 1.1-7-5-17.2 2.6z"/><path class="B" d="m205.5 572.6q14.2-4.5 21.2 2.1c2.3 2.4-1.3-11.3-21.2-2.1z"/><path class="n" d="m104.2 618.5c-3.7-8-11.5-16.1-28.7-17.8q-24.1-2.3-34.9 14.7l-0.1-0.1q-0.8-3.7 0.9-6.8c1.6-3.4 3.8-6.5 6-9.1 8.4-9.8 18.4-19.5 16.5-24.9-1.9-5.4-1.6-9.7 8.8-12.1q-0.4 7.6 1.2 9.9c4.3-5.5 17.7-6.7 21.9 1.6q5-1.1 5-1.1-0.9-2.5 0-10.3 6.5 2.5 6.8 6.3c0.2 3.8-2.7 5.7-2.2 11.6 1.9 8.4 0.6 25.7-1.2 38.1z"/><path fill-rule="evenodd" class="o" d="m104.6 620.9l-1-2.1c-4.8-10.2-14.3-16-28.1-17.4-1.5-0.1-3-0.2-4.5-0.2-20.3 0-29.7 14.4-29.8 14.5l-0.3 0.5-0.9-0.3-0.2-0.4c-0.7-3 0.2-5.7 0.7-6.8l0.1-0.1q0-0.2 0.1-0.3v-0.1c1.6-3.2 3.7-6.4 6.2-9.3 1.4-1.6 2.8-3.2 4.3-4.9 6.6-7.4 13.5-15.2 12.1-19.3-0.9-2.4-1.6-5.3-0.2-7.7 1.3-2.4 4.3-4.1 9.4-5.2l1-0.2-0.1 0.9c-0.1 1.8-0.1 6.3 0.6 8.6 2.4-2.4 6.5-3.9 10.7-3.9 5.1 0 9.3 2.2 11.4 5.9l3.9-0.9c-0.3-1.2-0.6-4.2 0.1-9.7l0.1-0.9 0.9 0.3c0.2 0.1 6.9 2.6 7.2 6.8 0.1 1.9-0.4 3.3-1 4.7-0.7 1.9-1.5 3.8-1.2 7 1.9 8.1 0.8 25.1-1.2 38.2zm-33.5-21.1q2.2 0 4.5 0.2c13.5 1.4 23 6.8 28.3 16.2 1.7-12.6 2.6-28 0.8-35.6-0.3-3.6 0.6-5.8 1.3-7.7 0.5-1.4 1.1-2.6 0.9-4.1-0.2-2.3-3.5-4.3-5.5-5.2-0.7 6.6 0.1 8.9 0.1 8.9l0.3 0.8-6.4 1.4-0.3-0.5c-1.7-3.5-5.5-5.6-10.4-5.6-4.2 0-8.3 1.6-10.2 4.2l-0.6 0.7-0.6-0.8c-1.4-2-1.4-7.1-1.3-9.3-4.1 1-6.6 2.4-7.6 4.3-0.9 1.5-0.8 3.5 0.2 6.5 1.8 4.9-4.8 12.3-12.3 20.8q-2.2 2.4-4.3 4.9c-2.3 2.6-4.2 5.5-5.6 8.3l-0.3 0.6c-0.1 0-1.2 2.1-1.1 4.9 3-3.7 12.7-13.9 30.1-13.9z"/><path class="p" d="m104.2 618.5c-0.2 1.4-0.4 2.8-0.6 4.1-6.7 4.6-19.5 7.3-40.3 5-17-1.9-21.8-7.6-22.8-12.3l0.1 0.1q10.8-17 34.9-14.7c17.2 1.7 25 9.8 28.7 17.8z"/><path fill-rule="evenodd" class="q" d="m77.6 629.2c-4.4 0-9.3-0.3-14.4-0.9-17.6-2-22.5-8.1-23.4-12.8l-0.3-1.2 0.8 0.2c1.9-2.5 11.7-14.7 30.7-14.7q2.3 0 4.6 0.2c14.4 1.4 24.2 7.5 29.3 18.2l0.1 0.2-0.1 0.2c-0.2 1.4-0.4 2.8-0.6 4.1l-0.1 0.3-0.2 0.1c-5.6 4-14.7 6.1-26.4 6.1zm-36.3-13.6c1.1 4.2 5.9 9.4 22.1 11.3 18.1 2 32.1 0.3 39.5-4.7q0.3-1.7 0.6-3.6c-4.8-10.1-14.3-15.8-28-17.2-1.5-0.1-3-0.2-4.5-0.2-19.2 0-28.7 13-29.7 14.4z"/><path class="r" d="m106.2 598.4c-0.3 6.8-1.1 14-2 20.1-3.7-8-11.5-16.1-28.7-17.8q-24.1-2.3-34.9 14.7l-0.1-0.1q-0.8-3.7 0.9-6.8c1-2.1 2.2-4.1 3.6-6 1 2.5 4.6 2.1 8.7-3.1 7.1-8.8 15.6-10.2 9.9-9.9-5.7 0.3 6.4-8.1 6-11-0.3-2.8-1.7-6 0-12.4 0.4-1.3 0.2-2.1-0.5-2.6q1.6-0.6 3.6-1.1-0.4 7.6 1.2 9.9c0.9-1.2 2.3-2.2 4-2.9q-0.8 0.8-1.2 1.9c-1.3 3.2 4.2 3.4 6 4 3.2 0.9 6.3 3.4 9.7 3.3 2.9 0 2.7-4.2 2.3-6 0-0.2-0.1-0.3-0.1-0.5 0.4 0.6 0.8 1.2 1.2 1.8q5-1.1 5-1.1-0.9-2.5 0-10.3 1 0.4 2.3 1.1c-0.4 0.8-0.6 1.9-0.7 3.4-0.1 9.2-5 12-2 16.5 3.1 4.5 0.4 8.5-1.7 9.6-2 1 0.7 3.5-0.1 8.9-0.8 5.4 6.3 13.4 7.4-1.8q0.1-1 0.2-1.8z"/><path class="p" d="m103.6 622.6q-0.1 0.2-0.1 0.4c-2.2 12.2-33.6 14.4-52.6 8.7-13.8-4.2-13.8-14.3-9.5-23.2q-8.7 15.6 21.9 19.1c20.8 2.3 33.6-0.4 40.3-5z"/><g style="mix-blend-mode:multiply"><path class="n" d="m73.9 572.3q0 0.1-0.1 0.3c0 0.1-0.1 0.4-0.2 0.6-0.1 0.5-0.4 1.1-0.7 1.7q-0.3 0.4-0.6 0.7c-0.1 0.3-0.3 0.5-0.5 0.7q-0.4 0.4-0.7 0.6-0.1-0.4 0-0.9c0-0.3 0-0.6 0.1-0.9 0.1-0.4 0.3-0.7 0.5-1 0.2-0.3 0.4-0.6 0.6-0.8 0.3-0.2 0.5-0.4 0.7-0.6q0.5-0.3 0.9-0.4z"/><path class="n" d="m95.8 573.9q0.3 0.3 0.6 0.8c0.1 0.3 0.3 0.6 0.3 1 0.1 0.3 0.2 0.7 0.2 1.1v0.5c0 0.2-0.1 0.4-0.1 0.6-0.1 0.3-0.2 0.7-0.3 0.9q-0.3 0.6-0.5 0.9-0.2-0.4-0.4-1c-0.1-0.5 0-1.2-0.1-1.9 0-0.3 0-0.7 0-1q0-0.5 0.1-0.9c0-0.3 0.1-0.5 0.1-0.7q0-0.2 0.1-0.3z"/></g><g style="opacity:.5;mix-blend-mode:multiply"><path class="s" d="m103.6 622.6q-0.1 0.2-0.1 0.4c-2.2 12.2-33.6 14.4-52.6 8.7-13.8-4.2-13.8-14.3-9.5-23.2q-8.7 15.6 21.9 19.1c20.8 2.3 33.6-0.4 40.3-5z"/><path fill-rule="evenodd" class="t" d="m73.3 635.4c-8 0-16.1-1.1-22.6-3.1-5.8-1.7-9.7-4.6-11.4-8.6-1.9-4.2-1.4-9.3 1.3-15.1 0-0.1 0-0.2 0.1-0.3q0-0.1 0-0.1l0.4-0.8 1.2 0.8-0.3 0.6c0 0-2.3 4.3-0.1 8.6 2.6 4.9 10 8.2 21.5 9.5 18.3 2 32.4 0.3 39.8-4.9l1.4-1-0.4 2.1c-1.6 9.1-17.6 12.3-30.9 12.3zm-33.5-19.8c-0.4 2.5-0.3 5.1 0.8 7.5 1.6 3.6 5.1 6.3 10.6 7.9 6.3 1.9 14.2 2.9 22.1 2.9 12.1 0 26.4-2.6 29.1-9.8-7.9 4.7-21.6 6.1-39.2 4.2-12.2-1.4-19.7-4.8-22.5-10.2-0.4-0.9-0.7-1.7-0.9-2.5z"/></g><path class="u" d="m79.6 578.7c11.8-0.3 18.9 4.8 19.3 7.5 0.5 2.6-1.8 4.9-5.7 2.4q-13.5-6.9-27.5-2.4c-4.8 0.6-4.1-7.1 13.9-7.5z"/><path fill-rule="evenodd" class="v" d="m65.7 586.2l-0.8 0.1c-0.3-0.1-0.6-0.1-0.8-0.2-0.5-0.2-1-0.7-1-1.3 0-1.2 0.8-2.1 1.6-2.8 0.9-0.8 1.8-1.3 2.9-1.8l1.5-0.6 1.6-0.5c1-0.3 2.1-0.5 3.2-0.7 1.1-0.1 2.2-0.3 3.3-0.3 1-0.1 2.1-0.2 3.3-0.2 1.1 0 2.1 0.1 3.3 0.2 4.3 0.4 8.7 1.6 12.4 4.3 0.9 0.6 1.7 1.4 2.4 2.3 0.7 1 0.8 2.2 0.4 3.3-0.4 1.2-1.6 1.9-2.7 1.8-0.6 0.1-1.1-0.1-1.7-0.2-0.5-0.2-1-0.5-1.5-0.8-1.1-0.4-2.1-0.9-3.2-1.2-1.1-0.4-2.3-0.8-3.4-1-1.1-0.3-2.3-0.5-3.4-0.7-1.1-0.1-2.3-0.3-3.4-0.4-1.2-0.2-2.4-0.2-3.5-0.3q-1.8-0.1-3.5 0c-2.4 0.1-4.7 0.4-7 1zm0-0.1c2.3-0.7 4.6-1.1 6.9-1.5q1.8-0.3 3.6-0.4c1.2 0 2.4 0 3.6 0.1 1.2 0 2.3 0.2 3.5 0.4 1.2 0.3 2.4 0.4 3.5 0.8q1.7 0.5 3.4 1.3c1.1 0.4 2.1 1.1 3.2 1.5v0.1c0.4 0.2 0.9 0.5 1.4 0.7 0.5 0.1 1 0.3 1.5 0.3 1 0 1.9-0.6 2.3-1.6 0.3-0.9 0.1-2-0.5-2.7-0.7-0.8-1.5-1.5-2.4-2q-1.4-0.9-2.8-1.5c-1-0.4-2-0.8-3-1-2-0.6-4.1-0.9-6.3-1.1-1-0.1-2.1-0.1-3.1-0.1-1.1 0-2.1 0.1-3.2 0.1-1.1 0-2.1 0.2-3.2 0.3-1 0.1-2.1 0.3-3.2 0.5-1 0.2-2 0.4-3 0.7-1 0.4-2 0.8-2.8 1.4-0.9 0.6-1.7 1.3-1.8 2.4 0.1 0.5 0.3 0.9 0.9 1.1 0.2 0.1 0.5 0.1 0.7 0.2z"/><path class="u" d="m76.4 590.1c11.8-0.4 18.8 4.8 19.3 7.5 0.4 2.6-1.9 4.9-5.7 2.4q-13.5-7-27.5-2.4c-4.9 0.6-4.1-7.1 13.9-7.5z"/><path fill-rule="evenodd" class="v" d="m62.5 597.6l-0.8 0.1c-0.3-0.1-0.6-0.1-0.9-0.2-0.5-0.2-0.9-0.7-1-1.3 0-1.2 0.8-2.1 1.6-2.9q1.4-1 2.9-1.7l1.5-0.6 1.6-0.5c1.1-0.3 2.2-0.5 3.3-0.7 1-0.1 2.2-0.3 3.2-0.4 1.1 0 2.2-0.1 3.3-0.1 1.1 0 2.2 0.1 3.3 0.1 4.4 0.5 8.8 1.7 12.4 4.4 0.9 0.6 1.8 1.4 2.4 2.3 0.7 1 0.9 2.2 0.5 3.3-0.4 1.2-1.6 1.9-2.8 1.8-0.6 0.1-1.1-0.1-1.7-0.2-0.5-0.3-1-0.5-1.4-0.8v0.1c-1.1-0.5-2.2-1-3.3-1.3q-1.7-0.6-3.3-1c-1.2-0.3-2.3-0.5-3.4-0.7-1.2-0.1-2.3-0.3-3.5-0.4-1.1-0.2-2.3-0.2-3.5-0.3q-1.7-0.1-3.5 0c-2.3 0.1-4.7 0.4-6.9 1zm0-0.1c2.3-0.7 4.5-1.1 6.9-1.5q1.7-0.2 3.5-0.3c1.2-0.1 2.4-0.1 3.6 0 1.2 0 2.4 0.2 3.6 0.4 1.2 0.3 2.3 0.4 3.5 0.9 1.1 0.3 2.2 0.7 3.3 1.2 1.1 0.4 2.2 1.1 3.2 1.5v0.1c0.5 0.2 1 0.5 1.4 0.7 0.5 0.1 1 0.4 1.5 0.3 1.1 0.1 2-0.6 2.3-1.5 0.4-1 0.2-2.1-0.5-2.8-0.6-0.8-1.5-1.5-2.4-2.1q-1.3-0.8-2.8-1.4-1.4-0.6-3-1c-2-0.6-4.1-0.9-6.2-1.1-1-0.1-2.1-0.1-3.2-0.1-1 0-2.1 0.1-3.2 0.1-1.1 0-2.1 0.2-3.1 0.3-1.1 0.1-2.1 0.3-3.2 0.5-1 0.2-2.1 0.4-3.1 0.7-0.9 0.4-1.9 0.8-2.8 1.4-0.8 0.6-1.7 1.4-1.7 2.4 0 0.5 0.3 0.9 0.8 1.1 0.3 0.1 0.5 0.1 0.8 0.2z"/><path class="w" d="m99 586.9c-0.1 2.3-2.3 3.9-5.8 1.7q-13.5-6.9-27.5-2.4c-3.1 0.4-3.9-2.6 0.6-4.9 0.9 1.2 3.5 1.4 4.6 1.5 4.6 0.1 9.1-0.7 13.6-0.1 3.7 0.5 7.2 1.9 10.6 3.2 1.1 0.4 2.5 1 3.9 1z"/><path class="w" d="m95.7 597.6c0.4 2.6-1.9 4.9-5.7 2.4q-13.5-7-27.5-2.4c-3 0.4-3.9-2.4 0.2-4.7 0.3 2.5 3.3 2.4 5.2 2.1 3.9-0.5 7-1.9 11-1.4 5.4 0.6 10 3.8 15.5 4.1 0.5 0 0.9-0.1 1.2-0.2 0 0 0 0 0.1 0.1z"/><path class="x" d="m41.4 608.5q0 0 0 0.1c0-0.1 0-0.1 0-0.1z"/><path class="x" d="m41.2 609q0.1-0.2 0.2-0.4-0.1 0.1-0.2 0.4z"/><path class="x" d="m103.6 622.6q-0.1 0.2-0.1 0.4c-0.8 4.4-5.4 7.5-11.8 9.4-0.1-1.9-2.3-3.1-8.9-2.4-12.3 1.2-25.4-0.3-33.5-3.6-3.3-1.3-5.2-0.4-6.2 1.2-5.6-4.9-5-12-1.9-18.6-1.2 2.7-5.2 15.5 22.1 18.6 20.8 2.3 33.6-0.4 40.3-5z"/><g style="opacity:.5;mix-blend-mode:multiply"><path class="y" d="m104.2 618.5c-0.2 1.4-0.4 2.8-0.6 4.1-6.7 4.6-19.5 7.3-40.3 5-17-1.9-21.8-7.6-22.8-12.3l0.1 0.1q4.5-7.1 14.2-11.5c-4.1 2.9-14.1 12.1 9.5 17.1 22.8 4.9 39.4-0.6 35.4-9.4 2 2.2 3.4 4.5 4.5 6.9z"/></g><path class="z" d="m67 604.2q14.6-1.2 25.1 6.2c4.8 3.4-5.3-12.6-25.1-6.2z"/><path class="z" d="m98 612.7c-0.3 0.5-1.2 0.4-2.1-0.1-0.9-0.5-1.5-1.2-1.2-1.7 0.2-0.4 1.1-0.4 2 0.1 0.9 0.5 1.5 1.3 1.3 1.7z"/><path class="A" d="m76.7 580.8q8.9-0.8 17.1 3.1c3.4 2.2-5-7-17.1-3.1z"/><path class="A" d="m74.4 592.1q9-0.9 17.2 3c3.3 2.3-5-6.9-17.2-3z"/><path class="B" d="m77.9 573.1q10.7-4.5 15.9 2.1c1.8 2.4-1-11.3-15.9-2.1z"/><path class="C" d="m159.9 461.1l-10.4-25.9-3.4-1.4q-2.9 8.4-11.6 31c-2.1 3.6-13.5 5.2-36-1.8-22.6-7.1-27.8-14.1-30-22.3l12-40.4q2.1-6 4.5-2.6-0.3-3.7-2.6-6-2.4-2.4 6.3-8.7l118.5-0.2q3 2.6 6.5 6.8c3.6 4.3-1.3 4.3-0.3 8.2q7.2 14.6 9.8 55.7-9.2 8-29 11.8c-19.8 3.8-31-1.4-34.3-4.2z"/><path fill-rule="evenodd" class="D" d="m124.3 468.6c-6.7 0-15.7-1.7-26-4.9-22.1-6.9-28.1-13.9-30.5-22.8l-0.1-0.2 12.2-40.6c0.9-2.8 2.1-4.1 3.5-4.1 0.2 0 0.4 0.1 0.6 0.1-0.3-1.2-1-2.8-2.1-3.9q-0.7-0.7-0.6-1.7c0.2-3.1 6.3-7.6 7-8.1l0.1-0.1h0.3l118.8-0.2 0.2 0.1c0.1 0.2 3 2.7 6.6 7 2.2 2.6 1.6 4 0.6 5.5-0.6 0.8-1.1 1.5-0.8 2.9 7.1 14.5 9.7 54.1 9.8 55.8v0.3l-0.2 0.3c-0.4 0.3-9.6 8.2-29.4 12q-7 1.4-13.4 1.4c-10.9 0-18.3-3.1-21.4-5.8l-0.2-0.2-10.4-25.7-2.4-0.9c-0.9 2.4-4.1 11.5-11.3 30.2-1.4 2.4-5.3 3.6-10.9 3.6zm-55.1-27.9c2.4 8.4 8.2 15 29.5 21.6 10.2 3.2 19 4.8 25.6 4.8 5 0 8.6-1 9.6-2.7 8.5-22.2 11.4-30.7 11.5-30.8l0.2-0.7 4.4 1.7 10.5 26.1c1.1 0.9 7.2 5.2 20.4 5.2 4.2 0 8.6-0.4 13.1-1.3 17.6-3.3 26.8-10.2 28.4-11.5-0.2-4.1-3-41.4-9.6-55-0.6-2.2 0.2-3.3 0.9-4.3 0.7-1.1 1.2-1.7-0.5-3.7-3-3.5-5.5-5.9-6.2-6.6l-118.1 0.2c-2.4 1.8-6.1 5.1-6.2 6.9-0.1 0.2 0 0.4 0.2 0.6 2.5 2.5 2.8 6.3 2.8 6.4l0.2 2.6-1.5-2.1c-0.1-0.2-0.6-0.7-1-0.7-0.7 0-1.5 1.2-2.2 3.1z"/><path class="C" d="m134.5 464.8c5-0.6 4.2 8.1-0.5 9.7-11.8 2.8-39.6 0.2-53.2-7.1-13.6-7.3-21-15.7-17.8-22.3q3.1-6.5 5.5-4.4c2.2 8.2 7.4 15.2 30 22.3 22.5 7 33.9 5.4 36 1.8z"/><path fill-rule="evenodd" class="D" d="m121.7 476.3c-12.4 0-30.6-2.6-41.2-8.3-14.6-7.8-21.4-16.5-18.1-23.2 1.6-3.4 3.3-5.1 5.1-5.1 0.9 0 1.4 0.4 1.5 0.4l0.1 0.2 0.1 0.2c2.3 8.5 8 15.1 29.5 21.8 10.2 3.2 19 4.8 25.6 4.8 5 0 8.6-1 9.6-2.7l0.2-0.3h0.4c2.2-0.3 3.7 1 4 3.3 0.5 2.9-1.1 6.7-4.3 7.7-3.2 0.8-7.5 1.2-12.5 1.2zm-54.2-35.2c-0.5 0-2 0.4-3.9 4.3-2.8 6 3.7 13.9 17.5 21.4 10.4 5.6 28.3 8.1 40.6 8.1 4.9 0 9.1-0.4 12.1-1.1 2.4-0.8 3.7-3.9 3.3-6.2-0.1-1-0.6-2.1-2.2-2.1-1.5 2-5.3 3.1-10.6 3.1-6.7 0-15.7-1.7-26-4.9-21.9-6.9-28-13.8-30.4-22.6q-0.2 0-0.4 0z"/><path class="E" d="m134 474.5c-8.6 2.1-25.8 1.2-39.8-2.3q1.6-0.7 2.7-2.1c2.8-3.7-0.9-6.2-3.3-8.7q0 0-0.1-0.1c1.6 0.6 3.2 1.1 5 1.7 22.5 7 33.9 5.4 36 1.8 5-0.6 4.2 8.1-0.5 9.7z"/><path class="E" d="m134 474.5c-6 1.4-16.3 1.5-26.6 0.2 3-0.6 5.8-1.8 7.7-4 0.1-0.1 0.7-0.8 0.5-0.9-1.8-1.7-3.9-2.8-6-3.8 15.2 3.3 23.1 1.7 24.9-1.2 5-0.6 4.2 8.1-0.5 9.7z"/><path class="C" d="m227.1 460.9c-12.7 10.8-43 16.3-62.4 13-4.7-0.8-5.8-3.9-6.6-8.1q-0.8-4.2 1.8-4.7c3.3 2.8 14.5 8 34.3 4.2q19.8-3.8 29-11.8 0 0 1.6-1.4c1.7-1.3 5.9 3 2.3 8.8z"/><path fill-rule="evenodd" class="D" d="m177 475.6c-4.6 0-8.7-0.3-12.5-1-5.2-0.8-6.3-4.6-7.1-8.6q-0.9-4.9 2.4-5.6l0.3-0.1 0.3 0.3c0.6 0.5 6.7 5.3 20.5 5.3 4.2 0 8.6-0.4 13.1-1.3 19.4-3.7 28.6-11.6 28.7-11.7l1.7-1.3c1.1-0.9 3-0.1 4 1.7 0.6 1.1 1.7 4-0.7 8l-0.1 0.2c-11 9.2-33.8 14.1-50.6 14.1zm-17.2-13.7c-0.5 0.3-1.5 1.1-1 3.8 0.8 4.5 2 6.9 6 7.5 3.6 0.6 7.7 1 12.2 1 19.2 0 40.1-5.8 49.6-13.7 1.9-3.3 1-5.7 0.6-6.5-0.5-0.9-1.2-1.4-1.7-1.4-0.1 0-0.2 0.1-0.3 0.1l-1.6 1.3c-0.3 0.3-9.5 8.2-29.3 12q-7 1.4-13.4 1.4c-10.5 0-17.9-2.9-21.1-5.5z"/><path class="E" d="m191.5 473.8c-9.5 1.3-19 1.4-26.8 0.1-4.7-0.8-5.8-3.9-6.6-8.1q-0.8-4.2 1.8-4.7c3.2 2.7 13.8 7.7 32.6 4.5q-1.2 0.9-2.1 2.2c-1.8 2.4-1.1 4.5 1.1 6z"/><path class="E" d="m175.5 474.9c-3.9-0.1-7.5-0.4-10.8-1-4.7-0.8-5.8-3.9-6.6-8.1q-0.8-4.2 1.8-4.7c1.7 1.5 5.6 3.5 11.7 4.7-0.6 1.3-0.6 2.7 0 4.1 0.8 1.9 2.2 3.5 3.9 5z"/><path class="D" d="m119.1 427q3 0.2 7.3 0.9c1.1 0.2 2.2 0.4 3.5 0.7 1.2 0.3 2.5 0.5 3.9 0.9 2.6 0.7 5.5 1.4 8.3 2.4q2 0.7 4.1 1.4c1.4 0.5 2.7 1.1 3.9 1.7q1.9 0.8 3.6 1.6 0.9 0.4 1.7 0.8 0.8 0.4 1.5 0.8 3.8 2.2 6.3 3.8-2.7-1.2-6.7-3.1c-0.5-0.2-1-0.4-1.5-0.7q-0.8-0.3-1.7-0.6c-1.2-0.5-2.4-1-3.6-1.5-1.3-0.5-2.6-1-4-1.5q-2.1-0.7-4.1-1.4-2.1-0.7-4.1-1.3c-1.4-0.4-2.8-0.8-4-1.3-2.7-0.6-5.1-1.4-7.3-1.9-2.1-0.5-3.9-1-5.1-1.2q-1.3-0.3-2-0.5z"/><path class="D" d="m154.1 429.1q0.7-0.4 1.8-0.9c1.2-0.5 2.8-1.4 4.8-2.2 1.9-0.9 4.2-2 6.8-3 2.4-1 5.1-2.1 7.9-3.1 2.6-1 5.4-1.9 8-2.7 2.5-0.9 5-1.5 7.1-2.1 1-0.3 2-0.5 2.9-0.7 0.8-0.1 1.6-0.2 2.2-0.3q1.2-0.3 2-0.4-0.8 0.2-1.9 0.6c-1.2 0.4-3 0.8-5 1.6-2 0.7-4.4 1.5-6.9 2.4-2.6 1-5.3 1.9-8 3-2.7 1-5.4 2-7.9 2.9-2.5 0.9-4.9 1.8-6.9 2.5q-4.1 1.5-6.9 2.4z"/><path class="D" d="m86.8 402.8q0.2 0.2 0.4 0.4 0.5 0.4 1.3 1c0.9 0.8 2.1 2 3.3 3.2 0.5 0.6 1.1 1.2 1.6 1.8 0.6 0.5 1.1 1 1.5 1.5q0.9 0.9 1.4 1.6-0.8-0.3-1.9-1c-0.5-0.3-1.2-0.7-1.8-1.2-0.6-0.5-1.2-1.1-1.8-1.7-0.6-0.6-1.2-1.2-1.7-1.9-0.5-0.6-0.9-1.2-1.2-1.8q-0.8-1.1-1.1-1.9z"/><path fill-rule="evenodd" class="E" d="m223.2 453.5q-9.2 8-29 11.8c-19.8 3.8-31-1.4-34.3-4.2l-10.4-25.9-3.4-1.4q-2.9 8.4-11.6 31c-2.1 3.6-13.5 5.2-36-1.8-22.6-7.1-27.8-14.1-30-22.3l12-40.4q2.1-6 4.5-2.6-0.3-3.7-2.6-6-2.4-2.4 6.3-8.7l118.5-0.2q3 2.6 6.5 6.8c3.6 4.3-1.3 4.3-0.3 8.2q7.2 14.6 9.8 55.7zm-109.9-25.7q-15.1-5.2-25-15.1c-7.1-5.2-2.4 17-7.6 19.9-5.2 2.8-11.8 11.8 1.4 18.8 13.3 7.6 34.1 11.4 36.4 0.5 2.4-10.8 9.9-18.8-5.2-24.1zm83.2-21.7c22.2-9-5.2-12.3-24.1-9-18.9 3.3-35.5 0.5-52-1.4q-16.5-1.9-21.3 1.4c-8.9-0.4 0.5 10.4 10 15.2 9.4 4.7 26.4 13.2 36.8 13.2 10.4 0 28.4-10.4 50.6-19.4zm18.4 36.4c-1.9-12.8-5.2-11.4-2.4-16.1 2.9-4.7 1.4-14.6-11.3-7.5q-12.8 7-28.4 10.4c-11.8 0.9-0.9 34 13.7 32.6 14.7-1.5 30.3-6.7 28.4-19.4z"/><path class="E" d="m201.7 463.3c1.3-0.5 2.5-0.7 3.8-0.9-3.3 1.1-7 2.1-11.3 2.9-19.8 3.8-31-1.4-34.3-4.2l-10.4-25.9-3.4-1.4q-2.9 8.4-11.6 31c-1.6 2.7-8.5 4.3-21.5 1.9 4.5-0.2 8.1-1.1 9.8-3.4 6.1-8.5 17.9-26 8.9-30.2q-8.9-4.3-17.4-9 9.9 1.8 24.1 4.7c14.1 2.8 23.1-5.2 44.4-11.3-21.8 12.2-35.9 13.2-23.6 21.2 12.2 8 8.9 8.5 2.3 5.7-6.6-2.9-1.9 4.7 1.4 10.4 3.3 5.6 15.1 16 38.8 8.5z"/><path class="F" d="m109.5 408q27.9 17.5 50.1 11.3c9-2.3-3.3 7.1-20.3 3.8-17-3.3-44.4-21.7-29.8-15.1z"/><path class="F" d="m170 416.2c0.2 0.5-0.5 1.3-1.5 1.8-1.1 0.4-2.1 0.4-2.3-0.1-0.2-0.6 0.4-1.3 1.5-1.8 1-0.4 2-0.4 2.3 0.1z"/><path class="F" d="m206.4 464.7q9.4-2.9 14.6-6.6c5.2-3.8 2.9 3.8-8.5 8-11.3 4.2-11.3 0-6.1-1.4z"/><path class="F" d="m72.9 459.4c-9.7-7.3-9.8-15.3-5.9-10.2q3.9 5.1 12.1 10.6c4.6 2.8 3.4 6.9-6.2-0.4z"/><path class="G" d="m230 279.3q-8 4.8-22.6 13-1.9-2.8-4.5-17.2-2.8-12.6-21.9-17.2l-0.1-0.3c1.4 0.2 2.7 0.1 4-0.3 8.9-5.2 23.1-13.2 32.6-16.7q-5.5 29 12.5 38.7z"/><path fill-rule="evenodd" class="H" d="m207.2 293.2l-0.3-0.5c-0.1-0.1-2-3.1-4.7-17.5-2.7-11.9-21.2-16.6-21.4-16.7h-0.3l-0.6-1.7 1.1 0.1c1.3 0.2 2.6 0.1 3.7-0.2 9.4-5.5 23.2-13.3 32.5-16.8l1.2-0.4-0.2 1.2c-0.1 0.3-5.2 28.6 12.1 38l1.1 0.5-1 0.7c-0.1 0-8.2 4.9-22.6 13zm-22.8-35c5.7 1.9 17 7 19.2 16.7 1.9 10.7 3.5 15 4.1 16.4 11.1-6.2 18.3-10.5 20.9-12-14.9-9.1-12.8-32.1-12-37.7-9.2 3.7-22.2 11-31.4 16.3-0.3 0.1-0.5 0.2-0.8 0.3z"/><path class="I" d="m230 279.3q-8 4.8-22.6 13-1.9-2.8-4.5-17.2-2.8-12.6-21.9-17.2l-0.1-0.3c1.4 0.2 2.7 0.1 4-0.3q1.6-0.9 3.3-1.9c1.6 2.1 4.7 3.5 6.9 4.5 3.6 1.7 7.4 3.3 10.1 6.3 2.9 3 2.6 10.8 8.2 10.8 2.3 0 3-2.2 3-4.2 0.3-5.3-3.4-9-5.8-13.3-2.7-5 0.7-9.6 0.7-14.7q0-0.9-0.4-1.5 3.6-1.6 6.6-2.7-5.5 29 12.5 38.7z"/><path class="J" d="m211.3 368.4c1.4 7.5 4 15.1-7.2 19.6q-11.2 4.5-31.7-0.8-29.2 6.6-51-1.3-30.1 7.3-34.9-1.8-4.7-9 6-22.4-3.7-21.7-5.6-43.9 10.4-11.7 18.5-24.8c7.3-11.7 10.3-28.5 14.2-34.8q7.2 1.6 15-2.3 24.3-0.9 40.1 0 3 1.4 6.2 1.7l0.1 0.3q19.1 4.6 21.9 17.2 2.6 14.4 4.5 17.2c3.9 12.4 7.1 44.3 3.9 76.1z"/><path fill-rule="evenodd" class="K" d="m192.5 390.5c-9.2 0-18.7-2.3-20.1-2.6-1.4 0.3-12.4 2.6-25.3 2.6-10 0-18.6-1.3-25.7-3.9-1.6 0.4-12.3 2.8-21.4 2.8-7.7 0-12.4-1.7-14.1-4.9-4.6-8.8 4.4-21 5.9-23-0.5-2.7-3.9-23.1-5.6-43.7l-0.1-0.3 0.3-0.2c0.1-0.1 10.4-11.8 18.4-24.7 4.2-6.7 6.9-15 9.3-22.3 1.7-5.2 3.2-9.7 4.9-12.4l0.3-0.5 0.4 0.1q1.7 0.4 3.5 0.4c5.7 0 11-2.6 11.1-2.6l0.3-0.1c7.1-0.3 14.3-0.4 21.2-0.4 11.8 0 18.9 0.4 19 0.4l0.2 0.1c0.1 0 2.9 1.3 6 1.6l0.5 0.1 0.1 0.3c2.7 0.7 19.3 5.6 22 17.6 2.6 14 4.4 16.9 4.4 17l0.1 0.2c3.7 11.5 7.3 42.9 3.9 76.3q0.2 0.8 0.4 1.6c1.4 7.1 2.8 14.3-8 18.7-3.1 1.2-7.1 1.8-11.9 1.8zm-20-4.1l0.1 0.1c0.1 0 10.2 2.6 19.9 2.6 4.7 0 8.5-0.6 11.3-1.7 9.8-4 8.6-10.3 7.2-17.1q-0.2-0.9-0.4-1.7v-0.1-0.1c3.3-33.2-0.2-64.3-3.8-75.8-0.4-0.7-2.2-4.3-4.6-17.4-2.7-12-21.2-16.6-21.4-16.7h-0.3l-0.1-0.2c-2.8-0.4-5.3-1.4-5.8-1.7-1.1-0.1-8-0.4-18.8-0.4-6.9 0-13.9 0.1-21.1 0.4-0.9 0.4-5.9 2.7-11.5 2.7-1.1 0-2.3-0.1-3.3-0.3-1.4 2.6-2.8 6.9-4.5 11.8-2.3 7-5.1 15.7-9.4 22.6-7.4 12-16.9 22.9-18.4 24.6 1.9 21.8 5.6 43.4 5.6 43.6l0.1 0.3-0.2 0.3c-0.1 0.1-10.4 13.1-6 21.6 1.5 2.7 5.9 4.2 12.9 4.2 9.7 0 21.1-2.8 21.3-2.8l0.2-0.1 0.1 0.1c7 2.6 15.6 3.9 25.5 3.9 13.6 0 25.1-2.6 25.2-2.6z"/><path class="G" d="m105.4 293q-8.1 13.1-18.5 24.8-3.1 2.8-8.5-4.7c-10.2-16.1-11.2-26.7-8.4-31.5q13.7-12.7 24.9-19.4c11.1-6.7 16.1-6.5 23.6-4.2q0.5 0.1 1.1 0.2c-3.9 6.3-6.9 23.1-14.2 34.8z"/><path fill-rule="evenodd" class="H" d="m85.2 319c-2.3 0-4.8-1.9-7.4-5.5-8.8-14-12-26-8.4-32.3l0.1-0.1c0.2-0.2 13.9-12.9 25-19.5 6.7-4 11.5-5.8 16.1-5.8 2.8 0 5.6 0.7 8.1 1.5 0.3 0.1 0.7 0.2 1 0.2l1 0.3-0.5 0.8c-1.6 2.6-3 7-4.8 12.2-2.2 7-5.1 15.7-9.4 22.6-8.1 13-18.5 24.7-18.6 24.9-0.2 0.1-0.9 0.7-2.2 0.7zm-14.6-37c-2.5 4.5-1.6 14.9 8.4 30.7 3 4.3 5.2 4.9 6.2 4.9q0.8 0 1.2-0.3c0.1-0.1 10.4-11.8 18.4-24.7 4.2-6.7 6.9-15 9.3-22.3 1.6-4.7 2.9-8.8 4.4-11.6-0.1 0-0.2 0-0.2-0.1-2.4-0.7-5-1.3-7.7-1.3-4.3 0-8.9 1.6-15.4 5.5-10.5 6.3-23.5 18.2-24.6 19.2z"/><path class="I" d="m119.6 258.2c-3.9 6.3-6.9 23.1-14.2 34.8q-8.1 13.1-18.5 24.8-3.1 2.8-8.5-4.7c-10.2-16.1-11.2-26.7-8.4-31.5q0.1-0.1 0.2-0.1c0.5 1.1 1.4 2.1 2.8 2.4 3.7 1.1 7.3-2.4 9.6-4.8 1.8-1.8 3.4-3.9 5.3-5.6 1.8-1.7 4.2-2.8 6.3-4 2.5-1.5 4.7-3.5 5.6-6.3 0.4-1.3 0.6-2.8-0.2-3.6 8-4 12.5-3.5 18.9-1.6q0.5 0.1 1.1 0.2z"/><path fill-rule="evenodd" class="L" d="m211.3 368.4c1.4 7.5 4 15.1-7.2 19.6q-11.2 4.5-31.7-0.8-29.2 6.6-51-1.3-30.1 7.3-34.9-1.8-4.7-9 6-22.4-3.7-21.7-5.6-43.9 10.4-11.7 18.5-24.8c7.3-11.7 10.3-28.5 14.2-34.8q7.2 1.6 15-2.3 24.3-0.9 40.1 0 3 1.4 6.2 1.7l0.1 0.3q19.1 4.6 21.9 17.2 2.6 14.4 4.5 17.2c3.9 12.4 7.1 44.3 3.9 76.1zm-51.3-74.9c3.5 3.5 20.2 0.8 29.9-0.8 9.7-1.5 8.9-11.6 5.8-19-3.1-7.3-9.3-6.6-12.4-0.7-3.1 5.8-7.4 15.1-13.2 17.8q-5.9 2.7-9.3-10.1c-3.2-4.6-4.3 9.3-0.8 12.8zm-11.3-2.3c0-16.7-3.1-12.8-10.4-2q-7.4 10.9-12.4-5.8c-6.6-15.1-7 27.6-17.1 41.2-10.1 13.5-10.5 29.5-0.4 42.3 10.1 12.7 19.4 17 31.8 5.4 12.4-11.6 8.5-64.4 8.5-81.1zm59 65.2c-0.4-17.1 1.2-28-8.5-20.2-9.7 7.8-8.9 14.4-19 9.7q-10.1-4.7-19.4-10.1c-8.6-6.2-5.9 3.9-6.2 21.4-0.4 17.4 0.3 25.2 16.3 24.8 15.9-0.4 25.6-16.7 24-8.2-1.5 8.6-7 11.7 1.6 10.1 8.5-1.5 11.6-10.4 11.2-27.5z"/><path class="M" d="m211.3 368.4c1.4 7.5 4 15.1-7.2 19.6q-11.2 4.5-31.7-0.8-29.2 6.6-51-1.3-30.1 7.3-34.9-1.8-4.7-9 6-22.4-3.7-21.7-5.6-43.9 5.9-6.7 12.3-15.6c2.1 9.9 3.3 20.2 0.9 26.4-5.7 14.7-9.4 27.4-1.9 46.3 2.4 6.7-4.2 1.4-5.7-5.2-1.4-6.6-6.1 13.7 3.4 14.2 9.4 0.5 15.1 3.3 10.3-4.3-4.7-7.5-2.8-8 6.2-1.4 9 6.7 32.6 13.7 36.8-14.1 1 20.8 11.8 28.3 41.2 14.1-2.4 5.2-7.6 8.6 1.3 9 9 0.5 21.8-2.6 19.6-18.8z"/><path class="M" d="m127.3 258.2q4.1-0.7 7.3-2.3 24.3-0.9 40.1 0 3 1.4 6.2 1.7l0.1 0.3q1 0.2 2.5 0.7c1.5 4 0.7 8.9-2.3 15.6-3.8 8.5-10.7 18.5-13.4 13.4-2.7-5.1-7.4-13.2-10.8-13.2-2.9 0-3.9 6.5-4.2 8.3 0.3-2 1.1-9.6-0.9-9.4-2.2 0.2-14.3 14.5-16.5 16.3-2.3 1.8-10.8-14.5-12.2-19.4-0.8-3.2 2-8.6 4.1-12z"/><path class="k" d="m137.8 249.6c14.2 1.4 24.1 0.8 29.4 0.1 0.1 2.9-0.2 6.7-1.9 10.2-3.2 6.7-9.8 9.6-12.7 9.6-2.9 0-7.5-2.9-11.9-7.8-2.6-3-3-8.4-2.9-12.1z"/><path fill-rule="evenodd" class="l" d="m152.6 270.2c-3.2 0-8.1-3.2-12.4-8.1-2.8-3.1-3.2-8.5-3.1-12.6v-0.7l0.8 0.1c5.6 0.6 11.1 0.8 16.2 0.8 6 0 10.3-0.4 13-0.7l0.8-0.1v0.8c0.1 2.8-0.2 6.8-2 10.6-3.3 7-10.3 9.9-13.3 9.9zm-14.1-19.9c0 3.7 0.5 8.3 2.7 10.9 4.7 5.2 9.1 7.6 11.4 7.6 2.6 0 9-2.8 12.1-9.2 1.5-3.1 1.8-6.6 1.8-9.1-2.7 0.3-6.9 0.7-12.4 0.7-4.9 0-10.2-0.3-15.6-0.9z"/><path class="m" d="m137.8 249.6c14.2 1.4 24.1 0.8 29.4 0.1 0.1 2.9-0.2 6.7-1.9 10.2-3.2 6.7-9.8 9.6-12.7 9.6-2.9 0-7.5-2.9-11.9-7.8-2.6-3-3-8.4-2.9-12.1z"/><path class="m" d="m138.7 257.9c-0.8-2.8-1-5.9-0.9-8.3 14.2 1.4 24.1 0.8 29.4 0.1 0.1 2.6-0.2 6-1.5 9.3-3 0.4-6.1 0.6-9 0.7-4.3 0-8.6-0.2-12.8-0.8-1.7-0.2-3.5-0.5-5.2-1z"/><path class="N" d="m181.5 268c-2.3 10.1-10.7 22.3-12.7 18.5-4.7-9.8-7.6-15.9-15.1-16.5-7.5-0.5-11.2 9.3-18.8 17.1-6-6.3-10.6-16.8-9.2-21.1q1.4-4.3 9.2-16.7 1.5 0.1 2.9 0.3c-0.1 3.7 0.3 9.1 2.9 12.1 4.4 4.9 9 7.8 11.9 7.8 2.9 0 9.5-2.9 12.7-9.6 1.7-3.5 2-7.3 1.9-10.2q2.9-0.4 4.5-0.7 12.1 8.9 9.8 19z"/><path fill-rule="evenodd" class="O" d="m134.9 288.1l-0.5-0.5c-6.3-6.7-10.9-17.3-9.4-21.8 1.5-4.4 9-16.4 9.3-16.9l0.3-0.4h0.4c1 0.1 1.9 0.2 2.8 0.3l0.6 0.1 0.1 0.7c-0.1 3.7 0.3 8.8 2.7 11.6 4.7 5.2 9.1 7.6 11.4 7.6 2.6 0 9-2.8 12.1-9.2 1.6-3.4 1.9-7.3 1.8-9.9v-0.6l0.6-0.1c2.8-0.4 4.4-0.7 4.4-0.7l0.3-0.1 0.2 0.2c0.6 0.4 12.6 9.3 10.2 19.8-2.1 8.8-8.9 19.7-12.4 19.7-0.7 0-1.3-0.3-1.7-1-4.5-9.7-7.3-15.6-14.4-16.1-4.8-0.4-8 3.8-12 9.2-1.9 2.5-3.9 5.1-6.2 7.6zm20.6-18.5c6.7 1.3 9.6 7.6 13.8 16.6 0.2 0.3 0.3 0.3 0.4 0.3 2.4 0 8.9-9.6 11-18.7 2-8.7-7.6-16.8-9.3-18.1-0.5 0.1-1.7 0.3-3.6 0.6 0.1 2.7-0.3 6.5-2 9.9-2.5 5.2-7 8.2-10.3 9.4zm-20.3-19.6c-1.3 2.1-7.6 12.4-8.9 16.2-1.3 3.9 2.9 13.6 8.6 19.8 2.1-2.2 3.8-4.6 5.6-6.9 3.2-4.3 6-8.1 9.8-9.4-3-1-6.8-3.7-10.2-7.6-2.6-2.9-3.2-8-3.1-11.9q-0.9-0.1-1.8-0.2z"/><path class="P" d="m169.8 287.2q-0.6 0-1-0.7c-4.7-9.8-7.6-15.9-15.1-16.5-7.2-0.5-10.9 8.5-17.9 16.2 0.5-4.1 2.3-7.5 3.5-11.4 1.9-6-3.8-12.4-7.2-16.6q0 0-0.1 0c-1.5 0.9-2.9 2-4.1 3.1q2.8-5.2 7-12 1.5 0.1 2.9 0.3c-0.1 3.7 0.3 9.1 2.9 12.1 4.4 4.9 9 7.8 11.9 7.8 2.9 0 9.5-2.9 12.7-9.6 1.7-3.5 2-7.3 1.9-10.2q2.9-0.4 4.5-0.7 5.1 3.8 8.1 9.2c-4.3 0.4-8.2 2.8-11 6.9-2.2 3.3-3.1 7.2-2.4 11.1 0.6 3.9 2.5 7.3 3.4 11z"/><path class="k" d="m62 187.9c-0.3 2.7-0.6 5.5-1.2 8-0.5 2.3-1.3 4.3-2 6.5-0.3 1-1.4 1.2-1.7 0.1q0-0.1 0-0.2c-0.2-0.5 0-1.1 0.2-1.4 0.2-0.6 0.4-1.2 0.5-1.7-1.1-2.6-2.3-4.3-5-4-1.8 0.1-3.7 0.2-5.6-0.1-2.6-0.3-5.7-3.3-7.1-6.2-4-8.4 0-19.8 6.4-24.1 2.5-1.6 5.3-2.4 8-1.9 1.4 0.3 2.9 1.3 3.9 2.6 1.6 2.1 2.6 4.8 3.2 7.6 0.9 4.8 0.8 10.1 0.4 14.8z"/><path fill-rule="evenodd" class="l" d="m57.8 203.9c-0.5-0.1-0.9-0.5-1.1-1.1l-0.1-0.2c-0.2-0.7-0.1-1.5 0.3-2l0.4-1.3c-1.1-2.4-2.2-3.7-4.5-3.5-1.8 0.1-3.8 0.2-5.6 0-2.9-0.4-6.1-3.6-7.5-6.5-1.7-3.7-2.1-8.2-1.1-12.7 1.1-5.2 4.1-9.9 7.7-12.3 2.8-1.9 5.6-2.6 8.3-2 1.5 0.3 3 1.3 4.1 2.7q2.3 3.1 3.3 7.9c0.9 4.1 1 9.1 0.5 15.1-0.3 2.6-0.6 5.4-1.2 8.1-0.3 1.4-0.8 2.7-1.2 4q-0.4 1.2-0.8 2.5c-0.3 0.8-0.9 1.4-1.5 1.3zm-4.1-9.4c2.2 0.2 3.4 1.8 4.5 4.3l0.2 0.3-0.8 2.3q-0.2 0.3-0.1 0.7l0.1 0.2c0 0.2 0.2 0.3 0.3 0.3 0.2 0 0.4-0.1 0.5-0.4q0.4-1.3 0.8-2.6c0.4-1.3 0.9-2.5 1.2-3.8 0.6-2.6 0.8-5.4 1.1-7.9 0.5-5.8 0.4-10.7-0.4-14.5q-0.9-4.6-3.1-7.4c-0.9-1.2-2.3-2.1-3.5-2.4-2.5-0.5-5.2 0.1-7.8 1.9-3.3 2.2-6.1 6.6-7.2 11.4-0.9 4.2-0.5 8.3 1.1 11.6 1.2 2.7 4.1 5.6 6.7 6 1.8 0.2 3.7 0.1 5.5 0q0.5 0 0.9 0z"/><path class="l" d="m57.1 191.6c-0.2 0.7-1 0.5-1.1-0.2-0.5-2.9-0.9-6.2-1.8-9-0.7-0.8-1.5-1.4-2.5-1-1.5 0.5-2.1 2.4-2.8 3.9-0.1 0.2-0.3 0.1-0.3-0.1 0.3-2.3 1.3-5.1 3.2-5.6q0.6-0.1 1.1-0.1-0.1-0.2-0.2-0.4c-1.3-1.9-2.9-3.8-4.9-3.8-2.6 0-3.4 2.6-4.3 5.3-0.1 0.2-0.4 0.1-0.3-0.1 0.8-5.5 4.7-8.3 8.2-5.3 3.4 2.8 7 10.6 5.7 16.4z"/><path class="m" d="m62 187.9c-0.3 2.7-0.6 5.5-1.2 8-0.5 2.3-1.3 4.3-2 6.5-0.3 1-1.4 1.2-1.7 0.1q0-0.1 0-0.2c-0.2-0.5 0-1.1 0.2-1.4 0.2-0.6 0.4-1.2 0.5-1.7-1.1-2.6-2.3-4.3-5-4-1.8 0.1-3.7 0.2-5.6-0.1-0.5 0-1-0.2-1.5-0.5-1.2-1.7-2.2-3.7-2.9-5.9-1-3.7-0.7-7.7 0.4-11.4 1.2-3.8 4-5.6 6.4-7.4 2.2-1.5 4.5-4 4.8-7q0 0 0.1 0c1.4 0.3 2.9 1.3 3.9 2.6 1.6 2.1 2.6 4.8 3.2 7.6 0.9 4.8 0.8 10.1 0.4 14.8z"/><path class="Q" d="m57 186.9q0.2 1 0.3 2.1c-1.2-1.1-2.5-1.7-4-2.2-2.9-0.8-6.9 0.6-9.1-2.5-2.2-3.2-0.7-7.8 2.2-9.1 1.8-0.8 3.9 0.2 5.4 1.4 2.7 2.2 4.3 6.4 5.2 10.3z"/><path class="R" d="m46.8 166.8c0.2-0.2 0-0.6-0.3-0.5-5.4 3.8-9.2 13.7-6.1 21.3 0.2 0.5 0.8 0.2 0.7-0.4-0.2-3.8-0.4-7.2 0.4-11 0.8-3.8 3.1-6.8 5.3-9.4z"/><path class="S" d="m50.4 165.1c-0.6 0.5-1.3 0.5-2 0.6-0.4 0.2-0.6-0.7-0.2-1 0.4-0.2 0.7-0.6 1.1-0.7 0.4-0.1 0.8-0.1 1.1 0 0.4 0.1 0.3 0.9 0 1.1z"/><path class="k" d="m246 165.1c0.9-2.8 2.2-5.2 4-7.1 1.2-1.2 2.7-2 4.2-2.1 2.7-0.2 5.5 0.9 7.7 2.9 5.8 5 8.4 16.8 3.4 24.6-1.8 2.8-5.2 5.3-7.9 5.3-1.8 0-3.7-0.3-5.5-0.7-2.6-0.5-4 1-5.5 3.4q0.2 0.9 0.3 1.8c0.2 0.4 0.3 0.9 0.1 1.4q-0.1 0.1-0.1 0.2c-0.4 1-1.5 0.7-1.7-0.3-0.4-2.2-0.9-4.4-1.2-6.7-0.3-2.6-0.2-5.4-0.1-8 0.2-4.8 0.7-10.1 2.3-14.7z"/><path fill-rule="evenodd" class="l" d="m244.5 194.6c-0.1-0.8-0.3-1.7-0.4-2.6-0.3-1.3-0.6-2.6-0.8-4.1-0.3-2.7-0.1-5.6-0.1-8.2 0.2-6 1-10.9 2.3-14.9 1.1-3 2.5-5.5 4.3-7.4 1.2-1.3 2.8-2.1 4.4-2.2 2.7-0.2 5.5 0.8 8 3 3.2 2.8 5.6 7.9 6.1 13.2 0.4 4.6-0.5 9.1-2.7 12.5-1.7 2.7-5.2 5.5-8.2 5.5-1.9 0-3.8-0.3-5.6-0.7-2.2-0.5-3.5 0.7-4.9 2.9l0.2 1.3c0.4 0.6 0.4 1.4 0.1 2l-0.1 0.3c-0.3 0.6-0.7 0.9-1.2 0.9-0.7 0-1.2-0.6-1.4-1.5zm7.5-7.2c1.7 0.3 3.6 0.7 5.4 0.6 2.7 0 5.9-2.5 7.5-5 2-3.1 2.8-7.1 2.4-11.4-0.4-4.9-2.6-9.7-5.7-12.3-2.3-2-4.9-3-7.4-2.8-1.3 0.1-2.8 0.9-3.9 2-1.6 1.7-3 4-3.9 6.9-1.3 3.7-2 8.6-2.2 14.4-0.1 2.5-0.1 5.3 0.1 7.9 0.1 1.3 0.4 2.7 0.7 4 0.2 0.8 0.3 1.7 0.5 2.6 0 0.3 0.2 0.5 0.4 0.5 0.1 0 0.3 0 0.4-0.3v-0.2q0.2-0.4 0-0.7l-0.4-2.4 0.2-0.2c1.3-2.3 2.8-3.8 5-3.7 0.3 0 0.6 0 0.9 0.1z"/><path class="l" d="m255.8 168.4c3.9-2.5 7.4 0.8 7.5 6.3 0 0.2-0.3 0.2-0.4 0-0.5-2.7-1-5.5-3.5-5.7-2-0.3-3.9 1.4-5.4 3.1q-0.1 0.2-0.3 0.4 0.6 0.1 1.1 0.2c1.9 0.7 2.5 3.6 2.5 6 0 0.2-0.2 0.3-0.3 0.1-0.6-1.7-0.8-3.5-2.2-4.2-1.1-0.6-1.9-0.1-2.6 0.6-1.3 2.7-2.1 5.9-3 8.8-0.2 0.6-1 0.7-1.1-0.1-0.6-5.9 3.9-13.1 7.7-15.5z"/><path class="m" d="m246 165.1c0.9-2.8 2.2-5.2 4-7.1 1.2-1.2 2.7-2 4.2-2.1q0.1 0 0.2 0c-0.1 2.9 1.9 5.8 3.8 7.5 2.2 2 4.7 4.2 5.4 8.1 0.7 3.8 0.5 7.9-1.1 11.4-0.9 2.1-2.1 3.9-3.5 5.5-0.5 0.2-1.1 0.3-1.6 0.3-1.8 0-3.7-0.3-5.5-0.7-2.6-0.5-4 1-5.5 3.4q0.2 0.9 0.3 1.8c0.2 0.4 0.3 0.9 0.1 1.4q-0.1 0.1-0.1 0.2c-0.4 1-1.5 0.7-1.7-0.3-0.4-2.2-0.9-4.4-1.2-6.7-0.3-2.6-0.2-5.4-0.1-8 0.2-4.8 0.7-10.1 2.3-14.7z"/><path class="Q" d="m255.2 169.8c1.6-1 3.8-1.8 5.6-0.7 2.7 1.6 3.5 6.4 1 9.2-2.6 2.9-6.4 0.9-9.4 1.4-1.5 0.3-2.9 0.8-4.2 1.7q0.3-1.1 0.5-2.1c1.5-3.7 3.5-7.7 6.5-9.5z"/><path class="T" d="m265.5 170.6c0.3 4-0.3 7.3-1 11-0.1 0.6 0.4 0.9 0.7 0.5 3.9-7.2 1.4-17.4-3.5-21.9-0.2-0.2-0.5 0.2-0.3 0.5 1.8 2.8 3.8 6.1 4.1 9.9z"/><path class="U" d="m258.1 157.5c0.4-0.1 0.7 0 1.1 0.1 0.4 0.2 0.7 0.6 1 0.8 0.4 0.3 0.1 1.2-0.3 1-0.6-0.3-1.4-0.3-1.9-0.8-0.3-0.3-0.3-1.1 0.1-1.1z"/><path class="k" d="m248.5 179.3q0.1 0 0.1-0.1c1.5 18.9-4.7 32.3-24.9 50.4-36.6 29-74.6 25.5-91.8 20.7-53.5-15.9-80.6-34.4-77.4-54.8 1.3-8.9 2.4-14.8 2.7-20q0.2 0.1 0.3 0.2c0.4-5.4 0.1-10.2-1.5-17-0.3-1.7-0.8-3.6-1.2-5.6-0.9-2.4-1.6-4.7-2.3-6.9q-3.3-12.1-4.4-21.4 4.1 0.5 14.4 0.3c-0.4-8.3 1.4-21.8 10.7-30.8q-6.6 11.1-5.2 28.4 25.3 2.4 36.4-2.1c1.8-23.6 4.7-30 11.8-37.6-1.9 3.8-8.1 21.5-4.5 38.1q10.1 2.1 40.4-2.2-0.8-19.6 6.4-30.2-4.8 11.3-1 29 21.5 2.6 46.3-0.2 2.4-6.8-1.2-25.3 4.7 9.2 5.4 23.2h38.5q0.3-14-1.6-25.5 6.3 8.9 5.9 26l3 0.2q-0.5 3.6-1.4 7.3-0.9 4.3-1.7 8.3-0.3 1.3-0.6 2.8c-0.7 3-1.2 6-1.6 9-1.2 8.4-1.6 16.6-0.8 26.7q0.4 5.6 0.8 9.1z"/><path fill-rule="evenodd" class="l" d="m156.9 254.2c-11.2 0-19.8-1.7-25.2-3.2-54.9-16.4-81.2-35.1-78-55.6l0.7-4.4c1.1-6.5 1.8-11.3 2.1-15.5l0.1-1.5 0.3 0.3c0.2-5.1-0.2-9.6-1.6-15.4q-0.5-2.6-1.2-5.7c-0.8-2.2-1.6-4.5-2.3-6.8-3.2-12.1-4.4-21.4-4.4-21.5l-0.1-0.9 0.9 0.1c0 0 3.9 0.5 13.6 0.3-0.4-9.4 2.3-22.2 10.9-30.5l3.9-3.8-2.8 4.6c-5.7 9.6-5.3 24.2-5.2 27.3 1.9 0.2 7.5 0.6 14 0.6 9.4 0 16.7-0.9 21.1-2.5 1.8-23.2 4.6-29.8 12-37.6l3.2-3.5-2.1 4.3c-1.7 3.5-7.8 20.8-4.5 37.1 1.8 0.4 4.3 0.5 7.5 0.5 11.4 0 28.1-2.1 31.5-2.6-0.5-19.2 6.2-29.6 6.5-30l1.3 0.7c-0.1 0.1-4.5 11.1-1 28.1 5.9 0.7 12.5 1 19.8 1 12.4 0 23-1 25.3-1.3 0.4-1.7 1.7-9-1.3-24.4l-0.9-4.9 2.2 4.4c4.2 8.2 5.3 19.8 5.5 22.8h37.1c0-3 0-14.8-1.6-24.7l-0.5-3 1.7 2.5c5.8 8.1 6.1 22.4 6.1 25.7l3.1 0.2-0.1 0.8c-0.4 2.5-0.8 4.9-1.4 7.4-0.6 2.8-1.2 5.6-1.7 8.2l-0.6 2.9c-0.6 2.7-1.1 5.7-1.5 8.9-1.4 9.1-1.6 17.3-0.9 26.6 0.3 3.8 0.6 6.7 0.7 8.1h0.1l0.2 0.9c1.5 19.3-5.3 33.1-25.2 50.9-25.2 19.9-50.5 24.1-67.3 24.1zm-99.1-77.3c-0.3 4-1 8.4-2 14.3l-0.7 4.4c-3 19.7 22.9 37.9 77 54 5.3 1.5 13.8 3.2 24.8 3.2 16.6 0 41.6-4.1 66.4-23.8 19.2-17.2 26-30.6 24.7-49.1l-0.2-0.5c0-0.1-0.5-3.6-0.8-9.1-0.8-9.4-0.5-17.7 0.9-26.9 0.3-3.3 0.8-6.2 1.5-9.1l0.6-2.8c0.5-2.6 1.1-5.3 1.7-8.2q0.8-3.3 1.2-6.6l-2.8-0.2v-0.7c0-0.1 0.3-13.4-4-22.4 1.3 10.6 1.1 21.9 1.1 22v0.7h-39.8l-0.1-0.7c0-0.1-0.4-8.7-2.9-16.7 1.9 13.5 0.1 18.8 0 19l-0.1 0.5h-0.5c-0.1 0-11.8 1.3-25.9 1.3-7.6 0-14.4-0.3-20.5-1.1h-0.5l-0.1-0.5c-2-9.3-1.7-16.8-0.9-21.9-1.8 5.1-3.5 12.8-3.1 22.9v0.6l-0.6 0.1c-0.3 0.1-19.6 2.7-32.4 2.7-3.6 0-6.4-0.2-8.3-0.6h-0.4l-0.1-0.5c-2.9-13.4 0.5-27.5 2.9-34.5-5.1 6.5-7.3 14-8.8 33.9l-0.1 0.5-0.4 0.1c-4.6 1.9-12 2.8-22 2.8-7.9 0-14.6-0.6-14.7-0.6l-0.6-0.1-0.1-0.5c0-0.7-1-13.3 3.1-24-5.8 8.1-7.5 18.4-7 26.2v0.7l-0.7 0.1c-7.8 0.1-12-0.1-13.6-0.2 0.3 2.6 1.5 10.6 4.2 20.4q1 3.4 2.2 6.8 0.8 3.2 1.3 5.8c1.5 6.5 2 11.3 1.5 17.2l-0.1 1.3z"/><path class="b" d="m250.1 134.5q0.3-1.5 0.6-2.8c-0.9 4.1-1.6 8-2.2 11.8 0.4-3 0.9-6 1.6-9z"/><path class="m" d="m122.2 216.3q-3.8-0.4-4.2 0.8c-0.4 1.2 9.1 6.5 32.8 4.5q23.8-2.1 30-10.3-0.8-1.8-0.6-3.2c1.6 1.6 4.8 4.2 10.8 4.8q-3 1.8-7.2 1.2-1.6 5.4-6.6 14.9c-5.1 9.4-11.5 15.7-26.6 15.1-15.1-0.6-20.3-16.1-25.3-19.9-1.9-1.2-11.1-1.9-10.9-7.1 0.2-5.2 6.8-1.6 7.8-0.8z"/><path class="m" d="m89.2 188.3q-5.6-4.7-5.2-20.3c1.5-18.8 17.5-25.5 28.4-23.6-6.2-4.7-16.5-4.2-22.2-2.3-5.7 1.9-6.6-6.7 5.7-8.5 28.8-1.5 34.4 25.5 30.6 20.3q-3.7-5.2-6.6-4.7 8.1 11.3 6.6 25.9-3.7 24.1-23.3 23.4 0 0 0 5.1-7.5-15.4-21.6-12.9-0.1 0.1 7.6-2.4z"/><path class="m" d="m188.4 194.5c-9.4 0-21.2-11.3-17-34.5 4.3-23.1 32.2-25 38.8-4.2q6.6 20.7-3 30 3.9 0 7.7 2.7-18.4-3.1-25.7 11.1-2.2-2.7-0.8-5.1z"/><path class="m" d="m202.3 130.9c11.8 6.1 6.9 13.5-1.2 8.9-14.6-8.6-26.7 3.5-27.9-1.4q-1.1-4.9 3.2-6.3c4.3-2.9 14.1-7.2 25.9-1.2z"/><ellipse class="V" cx="191.6" cy="168.7" rx="18.3" ry="24"/><path fill-rule="evenodd" class="l" d="m210 168.7q-0.1 0.5-0.1 1.5c0 1-0.1 2.4-0.4 4.2-0.3 1.8-0.9 4-1.9 6.3-1 2.4-2.5 4.9-4.7 7.2-2.2 2.2-5.2 4.2-8.8 4.9-3.7 0.7-7.7-0.1-11-2.3-3.5-2.2-6.1-5.6-7.8-9.4-1.8-3.8-2.6-8.1-2.7-12.4 0.1-4.2 0.9-8.5 2.7-12.3 1.7-3.9 4.3-7.2 7.8-9.5 3.3-2.2 7.4-3 11-2.2 3.6 0.6 6.6 2.6 8.8 4.9 2.2 2.3 3.7 4.8 4.7 7.1 1 2.4 1.6 4.5 1.9 6.3 0.3 1.8 0.4 3.2 0.4 4.2q0 1 0.1 1.5zm0 0q-0.1-0.5-0.1-1.5c-0.1-1-0.2-2.4-0.5-4.2-0.3-1.8-1-3.9-2-6.2-1-2.3-2.5-4.8-4.7-7-2.2-2.2-5.3-4-8.7-4.5-3.5-0.6-7.3 0.3-10.4 2.5-3.1 2.2-5.6 5.4-7.2 9.1-1.6 3.7-2.3 7.7-2.4 11.8 0.1 4.1 0.8 8.2 2.4 11.9 1.6 3.6 4.1 6.9 7.2 9.1 1.5 1.1 3.3 1.8 5 2.3 0.5 0 0.9 0.2 1.4 0.2l1.3 0.1c0.9 0 1.8 0 2.7-0.1 3.5-0.5 6.5-2.4 8.7-4.6 2.2-2.1 3.7-4.6 4.7-6.9 1-2.4 1.7-4.5 2-6.3 0.3-1.8 0.4-3.2 0.5-4.2q0-1 0.1-1.5z"/><ellipse class="V" cx="105.2" cy="172" rx="18.3" ry="24"/><path fill-rule="evenodd" class="l" d="m123.5 172q0 0.5 0 1.5c-0.1 1-0.2 2.4-0.5 4.2-0.3 1.9-0.9 4-1.9 6.3-1 2.4-2.5 4.9-4.7 7.2-2.1 2.2-5.1 4.2-8.8 4.9-3.6 0.7-7.6-0.1-11-2.3-3.4-2.2-6.1-5.6-7.8-9.4-1.8-3.8-2.6-8.1-2.6-12.4 0-4.2 0.8-8.5 2.6-12.3 1.7-3.9 4.4-7.2 7.8-9.4 3.3-2.2 7.5-3.1 11-2.3 3.7 0.6 6.7 2.6 8.8 4.9 2.2 2.3 3.7 4.8 4.7 7.1 1 2.4 1.6 4.5 1.9 6.3 0.3 1.8 0.4 3.3 0.5 4.2q0 1 0 1.5zm0 0q0-0.5-0.1-1.5c0-0.9-0.1-2.4-0.5-4.2-0.2-1.8-0.9-3.9-1.9-6.2-1-2.3-2.5-4.8-4.8-7-2.2-2.2-5.2-4-8.7-4.5-3.4-0.6-7.3 0.3-10.4 2.5-3.1 2.2-5.5 5.4-7.1 9.1-1.7 3.7-2.4 7.7-2.4 11.8 0 4.1 0.7 8.2 2.4 11.9 1.6 3.6 4 6.9 7.1 9.1 1.6 1.1 3.3 1.8 5.1 2.3 0.4 0.1 0.9 0.2 1.3 0.2l1.4 0.1c0.8 0 1.8 0 2.6-0.1 3.5-0.5 6.5-2.4 8.7-4.6 2.3-2.1 3.8-4.6 4.8-6.9 1-2.4 1.7-4.5 1.9-6.3 0.4-1.8 0.5-3.2 0.5-4.2q0.1-1 0.1-1.5z"/><path class="W" d="m116.9 175.6c-0.6 8.7-6.2 15.5-12.7 15.1-6.5-0.4-11.2-7.9-10.7-16.6 0.6-8.8 6.3-15.6 12.7-15.2 6.5 0.4 11.3 7.9 10.7 16.7z"/><path class="X" d="m116.9 175.6c-0.6 8.7-6.2 15.5-12.7 15.1-6.5-0.4-11.2-7.9-10.7-16.6 0.6-8.8 6.3-15.6 12.7-15.2 6.5 0.4 11.3 7.9 10.7 16.7z"/><path class="Y" d="m114.1 175.9c-0.4 6.8-4.8 11.9-9.7 11.6-4.9-0.3-8.6-6-8.2-12.7 0.5-6.7 4.8-11.8 9.8-11.5 4.9 0.3 8.5 6 8.1 12.6z"/><path class="Z" d="m112.6 175.2c-0.3 5.3-3.7 9.4-7.6 9.2-3.9-0.3-6.8-4.8-6.5-10.1 0.4-5.2 3.8-9.3 7.7-9.1 3.9 0.3 6.8 4.7 6.4 10z"/><path class="a0" d="m116.9 173.2q0.1 1.1 0 2.4c-0.6 8.7-6.2 15.5-12.7 15.1-6.5-0.4-11.2-7.9-10.7-16.6q0.1-1.3 0.4-2.5c5.3 6.3 15.7 5.9 23 1.6z"/><path class="V" d="m103.7 170.9c-0.4 2.7-2.4 4.6-4.4 4.3-1.9-0.3-3.2-2.8-2.8-5.5 0.5-2.7 2.4-4.6 4.4-4.3 2 0.3 3.3 2.8 2.8 5.5z"/><ellipse class="V" cx="99.3" cy="178.9" rx="1.8" ry="2.4"/><path class="W" d="m203.2 172.6c-0.5 8.8-6 15.6-12.5 15.3-6.5-0.3-11.4-7.6-11-16.4 0.5-8.8 6-15.6 12.5-15.3 6.4 0.2 11.4 7.6 11 16.4z"/><path class="X" d="m203.2 172.6c-0.5 8.8-6 15.6-12.5 15.3-6.5-0.3-11.4-7.6-11-16.4 0.5-8.8 6-15.6 12.5-15.3 6.4 0.2 11.4 7.6 11 16.4z"/><path class="Y" d="m200.3 173c-0.3 6.7-4.5 12-9.5 11.7-4.9-0.2-8.6-5.8-8.3-12.5 0.3-6.7 4.6-11.9 9.5-11.7 4.9 0.2 8.7 5.8 8.3 12.5z"/><ellipse class="Z" cx="191.8" cy="172" rx="7.1" ry="9.6"/><path class="a0" d="m203.1 170.2q0.1 1.2 0.1 2.4c-0.5 8.8-6 15.6-12.5 15.3-6.5-0.3-11.4-7.6-11-16.4q0.1-1.3 0.3-2.5c5.6 6.3 15.8 5.6 23.1 1.2z"/><path class="V" d="m189.9 168.1c-0.4 2.7-2.3 4.7-4.3 4.4-2-0.3-3.3-2.7-2.9-5.4 0.4-2.7 2.3-4.7 4.3-4.4 2 0.3 3.3 2.7 2.9 5.4z"/><ellipse class="V" cx="185.6" cy="176.3" rx="1.8" ry="2.3"/><path class="m" d="m149.7 206.6c-0.6 0.9-2.2 1.3-3.1 1.5q-0.9 0.2-1.8 0.3c-1.5-0.1-2.9-0.5-4.2-1-3.9-1.7-5-6.1-3.5-9.3 0.3 0.8 0.8 1.6 1.7 2.3 1.5 1.2 3.3 1.7 5 2 0.9 0.4 2 0.6 3 1 1.1 0.3 3.8 1.6 2.9 3.2z"/><path class="l" d="m150.4 197.6c-4.1-0.9-11.7-5.1-13.3 1.7-1.6 6.8 6.7 8.9 11.9 7.7 0.4-0.1 0.5 0.4 0.2 0.6-6.1 3.7-15.2-0.5-14.2-8 0.4-2.9 3-5.6 5.9-6.2q0.6-0.1 1.1-0.1 0 0 0.1 0c1.7-1.3 4-1.8 4.7-4 0.9-2.4 0-4.7-1.3-6.7-0.1-0.2 0.1-0.4 0.3-0.2 1.7 1.9 3.4 4.7 2.5 7.4-0.6 2-2 3.3-3.7 4.1 2.2 0.8 4.2 2.3 5.9 3.4 0.2 0 0.1 0.3-0.1 0.3z"/><path class="a1" d="m144.5 199.3c-0.6 1.2-2.1 1.7-3.4 1.9-0.9 0.1-2.2 0.2-3-0.4-1.1-0.7-0.7-2.2 0.2-3 1-0.7 2-1.2 3.3-1.1q0.2 0 0.4 0c1.6 0 3.3 0.9 2.5 2.6z"/><path class="a2" d="m148.6 199.4c-0.5 0.6-1.7 0.2-2.1-0.4-0.1 0-0.1-0.1-0.1-0.1-0.5-0.3-0.4-1.2 0.2-1.3 0.8-0.1 1.7 0 2.2 0.8 0.2 0.3 0.1 0.7-0.2 1z"/><path class="c" d="m199.7 135.7c-6.7-5.1-14.1-1.1-21.1-0.2-2.4 0.3-3.7-0.5-4-1.7q-0.3-0.5-0.3-1.1c-0.3-6.6 10-9.8 16.1-9.7 4.2 0 8.6 1.8 12.3 3.7 1.6 0.9 3.2 1.9 4.3 3.4 0.8 1.1 1.9 3.2 1.7 4.5-0.4 4-6.6 2.9-9 1.1z"/><path class="a3" d="m204.2 131.1c-3.4-2-6.3-4-10.3-5-4.1-1-7.5-0.1-11.5 0.2-0.1 0-0.1-0.1 0-0.1 3.9-2.1 8.2-2.8 12.8-1.4 3.5 1 7.9 2.5 9.8 5.6 0.3 0.4-0.2 1-0.8 0.7z"/><path class="c" d="m109.2 138.3c-6-4.6-12.6-1-18.9-0.2-2.1 0.3-3.3-0.5-3.6-1.5q-0.2-0.4-0.3-1c-0.2-5.9 9-8.7 14.5-8.7 3.8 0.1 7.7 1.6 11 3.3 1.5 0.8 2.9 1.7 3.8 3.1 0.8 1 1.7 2.8 1.6 4-0.4 3.6-5.9 2.6-8.1 1z"/><path class="a3" d="m113.3 134.1c-3.1-1.7-5.7-3.5-9.3-4.4-3.7-0.9-6.7 0-10.2 0.2-0.1 0-0.2-0.1-0.1-0.2 3.5-1.8 7.4-2.4 11.5-1.2 3.1 1 7.1 2.3 8.8 5 0.2 0.4-0.2 0.9-0.7 0.6z"/><path class="l" d="m85.6 190.1q1.3-0.4 3.4-0.2c1 0.1 2.2 0.3 3.4 0.8 1.3 0.4 2.5 1 3.7 1.8 1.1 0.8 2.2 1.7 3 2.6 0.9 1 1.7 1.9 2.2 2.8 0.6 0.8 0.9 1.6 1.2 2.1q0.3 0.6 0.4 0.9-0.2-0.3-0.6-0.7c-0.4-0.5-0.9-1.1-1.6-1.8-0.4-0.4-0.7-0.8-1.1-1.2q-0.6-0.6-1.3-1.2-1.4-1.2-3-2.3c-0.5-0.4-1.1-0.7-1.7-1-0.5-0.3-1.1-0.7-1.6-0.9-1.1-0.5-2.2-0.8-3.2-1.1q-1.9-0.6-3.2-0.6z"/><path class="l" d="m190.3 197.5q0.1-0.4 0.6-0.9c0.4-0.6 1-1.4 1.9-2.3 0.8-0.9 2-1.9 3.2-2.7 0.7-0.5 1.3-0.9 2.1-1.3 0.7-0.4 1.4-0.8 2.2-1.1 0.8-0.3 1.6-0.5 2.4-0.8 0.7-0.2 1.5-0.3 2.3-0.5 0.8-0.2 1.5-0.1 2.2-0.2 0.7-0.1 1.4 0 2 0 0.6 0 1.2 0 1.7 0.1q0.8 0.2 1.3 0.3 0.7 0.1 1.1 0.2-0.4 0-1.1 0-0.6 0-1.3 0c-0.5 0-1.1 0.2-1.7 0.2q-0.8 0.1-1.9 0.3c-0.6 0.1-1.3 0.1-2.1 0.3-0.7 0.3-1.4 0.4-2.2 0.6-0.7 0.3-1.4 0.5-2.2 0.9-2.9 1.1-5.6 2.8-7.5 4.3q-1.9 1.4-3 2.6z"/><path class="a4" d="m101 199.3c1.7 2.7 4.5 10.8-0.5 12.1-3 0.7-7.8-6-10.1-7.5-3.5-2.2-8-2.6-11.5-4.9-3.6-2.4-3.6-4.9-0.8-6.3 7.8-3.8 18.4-0.8 22.9 6.6z"/><path class="a5" d="m216.6 190.8c2.8 1.4 2.8 4-0.8 6.4-3.6 2.3-8.2 2.7-11.7 5-2.4 1.5-7.2 8.3-10.2 7.6-5.1-1.3-2.2-9.6-0.6-12.3 4.6-7.5 15.4-10.6 23.3-6.7z"/><g style="mix-blend-mode:multiply"><path class="a6" d="m119.3 157.4q-0.4-0.9-0.7-1.6c3 4.3 4.9 9.9 4.9 16.2 0 13.3-8.2 24-18.3 24-10.1 0-18.3-10.7-18.3-24 0-4.8 1-9.3 3-13.1-0.6 4-2.9 27.9 13.7 29.5 18.1 1.8 20.9-20.4 15.7-31z"/></g><g style="mix-blend-mode:multiply"><path class="a6" d="m210 168.7c0 13.3-8.3 24-18.4 24-10.1 0-18.3-10.7-18.3-24 0-7.8 2.9-14.7 7.2-19.1h0.1q-8.9 25.9 5.3 35.1c14.2 9.2 30.1-15.1 16.1-35.5-0.1-0.2-0.1-0.3-0.3-0.5 5 4.3 8.3 11.7 8.3 20z"/></g><path class="m" d="m147.2 184.7q1.5 7.6-6.3 8.7c-6.3 2.1-6.8 10-1.9 12.7 5 2.7 7.7 2.7 11.9 1.3 4.1-1.5-1 9.2-12.8 5-11.8-4.3-7.8-17 0.3-20.3 8-3.3 8.6-4.5 8.8-7.4z"/><path class="a7" d="m125.5 222.5q38.9 6.5 56.2-9.6c-6.7 15.3-11.2 28-28.9 29.1-15.6 0.7-18.9-9.8-27.3-19.5z"/><path class="a8" d="m164.6 238.7c-3.2 1.8-7 3-11.8 3.3-3.6 0.1-6.5-0.3-9-1.2 3.4-2.5 11.3-6.7 20.8-2.1z"/><path class="V" d="m131.9 223.3c9.5 0.9 27.7 1.4 41.2-4.8-3.2 7.9-8.1 12.6-21.4 13.7-11.3 1-17.4-5.6-19.8-8.9z"/><path class="a9" d="m153.3 240.4c-0.5 0.3-1.1 0.6-1.7 0.5-0.4 0-0.7-0.2-0.9-0.4-0.1 0-0.2-0.2-0.3-0.3-0.2-0.5 0.1-1 0.5-1.4 0.3-0.2 0.8-0.5 1.3-0.6q0.2-0.1 0.5-0.2c0.5-0.1 0.9 0 1.2 0.4 0.2 0.2 0.2 0.5 0.2 0.7 0 0.5-0.4 1.1-0.8 1.3z"/><path class="a9" d="m156.5 238.9c-0.5 0.4-1.3 0.4-1.6-0.2-0.3-0.8 0.5-1.2 1.1-1.2 0.5-0.1 1-0.1 1.1 0.3 0.2 0.5-0.2 1-0.6 1.1z"/><path class="l" d="m120 216.1q-0.2-0.1-0.7-0.2c-0.2-0.1-0.5-0.1-0.8-0.1-0.3 0-0.7 0-1 0.2-0.2 0-0.3 0.1-0.4 0.2-0.2 0.1-0.3 0.2-0.4 0.4l-0.2 0.2-0.1 0.1c0.1 0 0 0.1 0.1-0.1v0.1l-0.1 0.2c0 0.1-0.1 0.2 0 0.2 0 0 0 0 0 0.1 0.1 0.3 0.5 0.6 0.8 0.9q0.6 0.5 1.3 0.9c1.8 1 3.8 1.9 5.3 2.6 0.8 0.3 1.4 0.6 1.9 0.8q0.4 0.2 0.6 0.3-1.1 0-2.7-0.3c-1.7-0.4-3.8-1-5.9-2.2q-0.7-0.4-1.4-1c-0.4-0.5-0.9-0.9-1.1-1.7-0.1-0.3 0-1 0.1-1.1l0.1-0.2c0.1-0.2 0.1-0.1 0.1-0.1l0.1-0.1 0.3-0.3c0.2-0.2 0.4-0.4 0.7-0.5 0.2-0.1 0.5-0.2 0.7-0.2 0.5-0.1 0.9 0 1.3 0.1 0.3 0.1 0.6 0.2 0.8 0.4q0.4 0.2 0.6 0.4z"/><path class="l" d="m181.7 210.4q0.1 0.1 0.2 0.2c0.1 0.1 0.4 0.3 0.6 0.4 0.3 0.1 0.6 0.3 0.9 0.4 0.3 0.2 0.7 0.3 1 0.5 0.4 0.1 0.8 0.2 1.1 0.4 0.3 0.1 0.7 0.3 1 0.4q0.5 0.3 0.9 0.6-0.4 0.2-1.1 0.2c-0.3 0.1-0.7 0.1-1.1 0q-0.7-0.1-1.3-0.3c-0.4-0.3-0.8-0.4-1.2-0.8-0.3-0.2-0.6-0.5-0.8-0.9-0.1-0.3-0.2-0.6-0.2-0.8q-0.1-0.2 0-0.3z"/><path class="l" d="m147.7 246.6q0.2 0 0.5 0.1c0.4 0.1 0.8 0.1 1.3 0.2 0.3 0 0.6 0 0.9 0.1 0.3 0 0.6 0.1 0.9 0.1 0.3 0 0.6 0 1 0.1 0.3 0 0.7 0 1 0 0.4 0 0.7 0 1 0 0.4-0.1 0.7-0.1 1-0.1 0.3-0.1 0.6-0.1 1-0.1 0.3 0 0.5-0.1 0.8-0.1q1-0.1 1.8-0.1-0.6 0.4-1.6 0.9c-0.3 0.1-0.5 0.3-0.8 0.4-0.3 0-0.7 0.1-1 0.2-0.3 0.1-0.7 0.2-1.1 0.2q-0.5 0-1.1 0.1c-0.4-0.1-0.8 0-1.1-0.1-0.4 0-0.8-0.1-1.1-0.2-0.3 0-0.7-0.2-1-0.3-0.3-0.1-0.6-0.2-0.8-0.3q-1-0.6-1.6-1.1z"/><path fill-rule="evenodd" class="l" d="m125.5 222.5c2.5 0.4 4.9 0.6 7.3 0.7q3.7 0.2 7.3 0.3c2.5 0 4.9-0.1 7.4-0.2 2.4-0.1 4.8-0.3 7.2-0.6 1.2-0.1 2.4-0.3 3.6-0.5 1.2-0.3 2.4-0.4 3.6-0.7l3.5-0.9 3.4-1.1c1.2-0.3 2.3-0.9 3.4-1.3l1.6-0.7c0.6-0.3 1.1-0.6 1.6-0.9 1-0.7 2.1-1.2 3-1.9l2.8-2.3 2.2-1.6-1.1 2.4c-1.3 3-2.6 6.1-4 9.1-0.7 1.5-1.4 3-2.2 4.4l-1.3 2.2-1.3 2.1-1.5 2-1.7 2c-0.6 0.6-1.2 1.1-1.8 1.7-0.7 0.6-1.4 1-2 1.6-0.7 0.4-1.5 0.9-2.2 1.3-0.8 0.4-1.6 0.7-2.3 1-1.6 0.6-3.2 1.1-4.9 1.4-0.8 0.2-1.6 0.3-2.5 0.3-0.8 0.1-1.7 0.3-2.5 0.2q-2.5 0.1-5-0.4c-1.7-0.3-3.3-0.7-4.8-1.5l-1.2-0.5-1.1-0.7c-0.7-0.4-1.3-0.9-2-1.4-1.3-1.1-2.5-2.3-3.5-3.6-1.1-1.3-2.1-2.6-3-3.9l-2.9-4.1c-1-1.3-2-2.6-3.1-3.9zm0 0c1.1 1.3 2.2 2.5 3.2 3.8l3.1 3.9c1 1.3 2 2.6 3.1 3.8q1.7 1.8 3.6 3.4c0.6 0.4 1.3 1 2 1.3l1 0.7 1.1 0.4c1.5 0.7 3 1.1 4.6 1.4 1.6 0.2 3.2 0.3 4.9 0.2 0.8 0 1.6-0.1 2.4-0.2 0.8-0.1 1.6-0.2 2.4-0.4 1.6-0.2 3.1-0.7 4.6-1.3 0.8-0.3 1.5-0.7 2.2-1l2-1.3 1.9-1.5 1.8-1.6 1.6-1.9 1.4-1.9 1.3-2.1 1.2-2.1q1.1-2.2 2.1-4.4 1.5-3.3 3-6.6l-0.8 0.6c-1 0.9-2.1 1.3-3.2 2-0.5 0.3-1 0.6-1.6 0.9l-1.7 0.7c-1.2 0.5-2.3 1.1-3.5 1.4l-3.5 1.1-3.6 0.8c-1.2 0.3-2.4 0.4-3.6 0.6-1.3 0.2-2.5 0.4-3.7 0.5-2.4 0.2-4.9 0.4-7.3 0.4l-3.7 0.1c-1.2 0-2.5-0.1-3.7-0.1-2.4-0.1-4.9-0.3-7.3-0.6-2.4-0.2-4.9-0.5-7.3-1zm54.5-7.4l2.1-1.7-1-0.7q-0.6 1.2-1.1 2.4z"/><path fill-rule="evenodd" class="m" d="m253.8 116.1q-0.5 3.6-1.4 7.3-0.9 4.3-1.7 8.3-0.3 1.3-0.6 2.8c-0.7 3-1.2 6-1.6 9-1.2 8.4-1.6 16.6-0.8 26.7q0.4 5.6 0.8 9.1 0.1 0 0.1-0.1c1.5 18.9-4.7 32.3-24.9 50.4-36.6 29-74.6 25.5-91.8 20.7-53.5-15.9-80.6-34.4-77.4-54.8 1.3-8.9 2.4-14.8 2.7-20q0.2 0.1 0.3 0.2c0.4-5.4 0.1-10.2-1.5-17-0.3-1.7-0.8-3.6-1.2-5.6-0.9-2.4-1.6-4.7-2.3-6.9q-3.3-12.1-4.4-21.4 4.1 0.5 14.4 0.3c-0.4-8.3 1.4-21.8 10.7-30.8q-6.6 11.1-5.2 28.4 25.3 2.4 36.4-2.1c1.8-23.6 4.7-30 11.8-37.6-1.9 3.8-8.1 21.5-4.5 38.1q10.1 2.1 40.4-2.2-0.8-19.6 6.4-30.2-4.8 11.3-1 29 21.5 2.6 46.3-0.2 2.4-6.8-1.2-25.3 4.7 9.2 5.4 23.2h38.5q0.3-14-1.6-25.5 6.3 8.9 5.9 26zm-12.9 59c-2.8-14.1-6.2-29.3-3.8-40.1 2.4-10.9-17.5-8.1-29.3-9.9q0.5-3.4-1.4-7.6l-1.9 8q-19.4 0.5-45.8 0.5-2.4-3.3-3.8-11.4-1.9 4.8-0.9 11.9-13.7 0.4-42.1 3.7-4.8-0.9-4.7-16.5-0.9 6.2-2 14.8-11 1.1-34.9 3.2-2.8-1-5.6-13.3-1 10.4 1.9 18.9l-5.7 1q10.9 18.4 3.8 39.7c-7.1 21.2-5.2 42 48.2 62.8 12 4.3 21.2 7.7 30.4 9.3 3.2 0 5.7-0.9 1.8-4.6 8.2 5.3 12.4 2.5 20.5-0.7-2.8 3.7-2.3 5-0.6 5.5 8.3-1.2 17.7-3.9 29.6-8.6 43.9-19.3 49.1-52.4 46.3-66.6z"/><path class="N" d="m86.9 317.8c-2.9 4.2-4.8 8.5-10.4 7.1-11.4-2.4-17.9-26.2-18.2-32.6-0.2-6.5 2.3-10.2 6.8-12.2q4.4-2 4.9 1.5c-2.8 4.8-1.8 15.4 8.4 31.5q5.4 7.5 8.5 4.7z"/><path fill-rule="evenodd" class="O" d="m78.6 325.8q-1.1 0.1-2.3-0.2c-12.1-2.6-18.5-27.3-18.7-33.3-0.2-6.4 2.1-10.6 7.1-12.9q1.5-0.6 2.8-0.6c2.2 0 3.1 1.7 3.2 2.7l0.1 0.2-0.2 0.2c-2.5 4.5-1.7 14.9 8.4 30.8 3 4.3 5.2 4.9 6.2 4.9q0.8 0 1.2-0.3l3.9-3.4-2.8 4.3q-0.5 0.7-1 1.4c-2 3.2-4 6.2-7.9 6.2zm-11.1-45.6c-0.6 0-1.3 0.2-2.2 0.5-4.5 2-6.5 5.7-6.3 11.6 0.1 2.9 1.7 10.3 4.9 17.5 2.6 5.9 6.9 13.1 12.7 14.4 4.5 1.1 6.3-1.6 8.6-5.2q-3.4 0-7.4-5.5c-8.7-13.8-11.9-25.7-8.6-32-0.1-0.4-0.5-1.3-1.7-1.3z"/><path class="P" d="m86.9 317.8c-2.9 4.2-4.8 8.5-10.4 7.1-11.4-2.4-17.9-26.2-18.2-32.6-0.1-4.1 0.8-7.1 2.6-9.2 0.7 7.5 2.3 15.8 5.7 13.3 1.4-1 1.5-3 1.5-4.5 0.1-1.8-0.6-3.5-0.5-5.2 0-1.5 0.3-3.1 0.5-4.5 0.2-0.8 0.3-1.7 0.4-2.5q1.3 0.5 1.5 1.9c-2.8 4.8-1.8 15.4 8.4 31.5q5.4 7.5 8.5 4.7z"/><path class="N" d="m230 279.3q-18-9.7-12.5-38.7c0.7-4.1 10.4-10.2 14.6-9.5 4.3 0.7 10 35.7 10.9 38 0.9 2.4 3.1 4.1-3.1 8.5q-6.1 4.5-9.9 1.7z"/><path fill-rule="evenodd" class="O" d="m233.3 280.9c-2.3 0-3.7-1-3.7-1-18.1-9.8-12.9-39.2-12.8-39.5 0.7-4.2 9.9-10.1 14.6-10.1q0.5 0 0.8 0.1c3.1 0.5 6 12 9.9 31.7 0.7 3.3 1.3 6.2 1.5 6.8q0.2 0.4 0.5 0.9c1.2 2.4 1.6 4.5-3.8 8.4-2.4 1.8-4.8 2.7-7 2.7zm-1.9-49.1c-4.4 0-12.6 5.5-13.2 8.9-0.1 0.3-5.2 28.6 12.1 38 0.1 0 1.1 0.8 3 0.8q2.9-0.1 6.2-2.4c4.8-3.6 4.1-4.9 3.3-6.7-0.2-0.4-0.3-0.7-0.5-1-0.2-0.6-0.7-2.9-1.5-7.1-1.7-8.2-6.1-30-8.8-30.5q-0.3 0-0.6 0z"/><path class="P" d="m239.9 277.6q-6.1 4.5-9.9 1.7-18-9.7-12.5-38.7c0.2-1.3 1.2-2.7 2.7-4-0.2 6.8 0.2 13.6 0.5 20.5 0.2 4.9 1.2 8.4 5.7 10.9 2.5 1.3 5 0.6 6.2-1.8 0.6-1.3 0.2-2.6-0.3-3.8-1-2.4-2.4-4.8-3.5-7.2-2-4.3-4.4-9.3-3.3-14.2 0.5-1.8 1.9-6.3 1.6-8.8 1.9-0.9 3.7-1.3 5-1.1 4.3 0.7 10 35.7 10.9 38 0.9 2.4 3.1 4.1-3.1 8.5z"/><path class="O" d="m230.7 233q-0.1 0.7-0.2 1.8c-0.2 1.2-0.3 2.8-0.4 4.7-0.2 1.9-0.1 4.2 0 6.6 0.1 1.2 0.3 2.4 0.4 3.6 0.3 1.3 0.4 2.6 0.8 3.8 0.3 1.2 0.6 2.5 1 3.6 0.2 0.6 0.4 1.2 0.6 1.8 0.3 0.6 0.5 1.1 0.8 1.7 0.4 1.1 1 2.1 1.5 3.1q0.4 0.7 0.8 1.3 0.4 0.7 0.9 1.2c0.5 0.8 1 1.6 1.5 2.2 0.5 0.6 1 1.1 1.3 1.5q0.8 0.9 1.2 1.4-0.5-0.4-1.4-1.2-0.6-0.6-1.5-1.3c-0.6-0.6-1.1-1.3-1.8-2.1-0.3-0.4-0.7-0.7-1-1.1q-0.4-0.7-0.9-1.4c-0.3-0.5-0.6-1-1-1.5-0.3-0.5-0.5-1.1-0.8-1.6q-0.4-0.8-0.8-1.7c-0.3-0.6-0.4-1.2-0.7-1.8-0.5-1.2-0.8-2.5-1.1-3.8-0.4-1.2-0.5-2.6-0.7-3.9q-0.2-1.9-0.3-3.8c0-2.4 0.1-4.7 0.4-6.7q0.5-3.9 1.4-6.4z"/><path class="h" d="m125.1 255q-15.8 39.4-25.5 69.4c-9.6 30-18.2 44.4-24.8 49.6-2.1 1.9-3.6-1.7-2-6.1 2.3-6.6 8.5-20.4 14.5-45.5 6.1-25.2 10.3-48.9 17.8-61.7 7.5-14.2 19.6-9.1 20-5.7z"/><path fill-rule="evenodd" class="i" d="m73.7 375.2c-0.6 0-1.2-0.3-1.6-0.9-0.9-1.4-0.9-4 0-6.6q0.6-1.8 1.7-4.4c3-7.7 7.9-20.6 12.8-41.1 1.3-5.1 2.4-10.1 3.6-15 4.4-19.6 8.3-36.5 14.2-46.8 4.6-8.6 10.5-9.8 13.6-9.8 4.2 0 7.5 2.2 7.8 4.3l0.1 0.1-0.1 0.2c-0.2 0.4-15.9 39.8-25.5 69.4-8.6 26.5-17.2 43.8-25 50-0.5 0.4-1.1 0.6-1.6 0.6zm44.3-123.2c-2.8 0-8.1 1.2-12.3 9.1-5.9 10.1-9.7 26.9-14.2 46.4-1.1 4.9-2.3 10-3.5 15.1-4.9 20.5-9.9 33.5-12.9 41.2q-1 2.6-1.7 4.4c-0.8 2.4-0.7 4.5-0.1 5.3 0.3 0.4 0.6 0.4 1.1 0 5.3-4.2 13.9-16.1 24.6-49.3 9.2-28.6 24.1-66.2 25.4-69.3-0.4-1.1-2.9-2.9-6.4-2.9z"/><path class="j" d="m125.1 255q-15.8 39.4-25.5 69.4c-9.6 30-18.2 44.4-24.8 49.6-2.1 1.9-3.6-1.7-2-6.1 0.6-1.7 1.4-3.9 2.5-6.7 0.3 0.3 0.6 0.6 1 0.8 1.9 1.1 4.3-1 5.5-2.2 1.9-2 3.2-4.6 4.5-7.1 2.3-4.4 4.7-8.8 6.1-13.6 1.2-4.1 3.5-15-4.3-12.9-0.7 0.2-1.4 0.5-1.9 0.9q0.6-2.3 1.1-4.7c4.9-20.3 8.6-39.7 13.8-53.2 5.5 0.3 10.8-0.2 14.8-3.5 3.2-2.6 3.9-6.8 3.5-10.7-0.1-1.4-0.6-2.7-1.2-3.7 3.8 0.1 6.7 2.1 6.9 3.7z"/><path class="M" d="m161.4 307.4c0.4-2.2 1.6-4.2 2.1-6.4 5.4-2 11-2.7 16.7-2.9 5.7-0.3 11.8-1.7 17.5-0.5 2.8 0.6 3 2.2 3.4 4.7 0.6 3.5 0.9 7 1.2 10.4q0.6 5.8 0.9 11.7c-1.3 6.3-8.1 10.4-12.9 14-0.9 0.6-1.8 1.4-2.8 2-2.3 1.6-4.6 0-6.7-1.1-3.7-2.1-7.6-3.8-11.3-5.7-2.7-1.3-5.4-2.8-8-4.3-4.8-2.7-3.2-6.9-2.3-11.3 0.7-3.5 1.4-7.1 2.2-10.6z"/><path class="G" d="m199.8 297.9c1.2 9.2 2 18.5 3.2 27.7-4.7 4.2-10.5 7.5-15.7 10.7q-0.9 0.6-1.7 1.1c-2.9-1.2-5.8-2.3-8.7-3.4-5.6-2-10.6-4.7-15.8-7.5q0.7-5.8 1.2-11.7c0.4-4.6 1-9.3 1-14 11.5-4.4 24.5-6.1 36.5-2.9z"/><path class="aa" d="m203 325.6c-4.7 4.2-10.5 7.5-15.7 10.7q-0.8 0.6-1.7 1.1c-2.9-1.2-5.8-2.3-8.7-3.4-5.6-2-10.6-4.7-15.8-7.5q0.7-5.8 1.2-11.7c0.5-4.6 1.1-9.4 1-14.1q0.2 0 0.4-0.1c-0.3 6.4 0.7 13 3.9 18.5 4.3 7.1 12.9 8.4 20.4 7 7.7-1.4 11.5-7.4 13.4-14.2 0.6 4.6 1.1 9.1 1.6 13.7z"/><path class="aa" d="m202.9 325.1q0.1 0.2 0.1 0.5c-4.7 4.2-10.5 7.5-15.7 10.7q-0.8 0.6-1.7 1.1c-2.9-1.2-5.8-2.3-8.7-3.4-5.6-2-10.6-4.7-15.8-7.5 0.2-1.7 0.4-3.4 0.6-5.1 3.3 4.8 9.1 8.1 14.5 9.4 7.7 1.9 16.6 0.4 23.5-3.5 1.2-0.7 2.2-1.4 3.2-2.2z"/><path class="ab" d="m197.6 297.9c1 7.9-1.3 20.6-10.4 22.8-10.1 2.4-16.8-5.9-19-14.9-0.6-2.3-1.2-5.2 0.8-6.3q0.5-0.3 1.2-0.5 0.1 0 0.3-0.1c1.7-0.6 3.5-1 5.2-1.5 3.1-0.4 6.1-0.7 9.2-0.9 4.3-0.2 8.6 0.3 12.7 1.3q0 0 0 0.1z"/><path fill-rule="evenodd" class="K" d="m203 325.6c-1.3 1.2-2.7 2.2-4.1 3.3-0.6 0.6-1.4 1.1-2.1 1.6-0.7 0.5-1.4 1-2.2 1.5q-4.4 2.9-8.8 5.8h-0.2-0.2l-6.3-2.4c-1-0.4-2.1-0.7-3.1-1.2l-3.1-1.3-3.1-1.3c-1-0.4-2-0.9-3-1.4l-6-3.1-0.4-0.2 0.1-0.4 0.3-3.3 0.1-0.7 0.8-8.3 0.1-0.7 0.5-5.2 0.3-7.5v-0.6l0.4-0.1 4.5-1.5 4.5-1.2 4.6-0.9 4.7-0.6 4.7-0.3 4.6 0.2 4.7 0.6 4.6 1.1h0.3v0.4c0.6 4.6 1.1 9.2 1.5 13.8zm-42.2-2.3h0.7l-0.6-0.8zm0.9-9.6v0.6l0.7-0.6zm0.4-5.3l0.7-0.6h-0.6zm40.7 17.3l-1.9-13.8-1.7-13.5-4.2-0.9-4.6-0.5-4.6-0.1-4.6 0.3-4.6 0.6-4.5 1-4.4 1.2-3.9 1.4-0.4 7.1v0.6l-0.5 5.3-0.1 0.6-0.7 7-0.1 0.7-0.4 3.6 5.5 2.9c1 0.5 2 1 3 1.4l3.1 1.4 3 1.4c1 0.4 2.1 0.8 3.1 1.2l6 2.5 8.9-5.4c0.8-0.4 1.5-0.9 2.2-1.4 0.8-0.5 1.5-0.9 2.2-1.4 1.4-1.1 2.9-2.1 4.2-3.2zm-3.6-27.3h0.3l-0.4-0.3zm-35.4 3v-0.6l-0.4 0.7zm-0.4 7.8l0.1-0.7-0.7 0.7zm-0.6 5.8l0.1-0.6-0.7 0.6zm-0.7 7.1h-0.7l0.6 0.7zm-0.5 4.2l-0.3-0.2 0.3 0.6zm23.7 10.8l-0.1 0.1h0.3z"/><path class="k" d="m58.5 294.5q1.3 7.3 3 12.1c12.4-10.1 20.1-19.7 26.9-26.2 6.8-6.4 12.9-7.9 21.8-6.4 7.8 1.1 9.5 5.5 8.5 10.6-0.9 5.5-2.3 6.8-2.6 6.1 0.2 6-1 8.9-2.3 9-0.2 7.8-1.5 11.2-2.8 12-2.7 7-7.8 7.3-9.3 4.9q-0.6-1.7 1.1-2.8-4.3 1.1-6.2 3.9c-1.9 2.9-9.3 5.3-13.3 1.8-8.1 11.9-26.3 28.5-37.9 21-11.5-7.6-7.7-26.2 13.1-46z"/><path fill-rule="evenodd" class="l" d="m52 343.1c-2.6 0-4.9-0.7-7-2-3.9-2.6-6.2-6.5-6.6-11.3-0.9-10 6.2-23.1 19.6-35.9l1-0.9 0.2 1.3c0 0.1 1.2 6.5 2.7 11.1 7.7-6.4 13.5-12.6 18.7-18 2.6-2.7 5-5.3 7.3-7.5 5.4-5 10.3-7.2 16.5-7.2 1.8 0 3.7 0.2 5.9 0.6 3.8 0.5 6.4 1.9 7.9 4 1.4 1.9 1.8 4.4 1.2 7.4-0.4 2.3-1.2 6.1-2.6 6.7 0.1 4.9-0.8 8-2.3 8.9-0.2 6.4-1.3 10.6-3 11.9-1.9 4.8-4.9 6.5-7.1 6.5-1.4 0-2.7-0.7-3.3-1.7-0.2-0.7-0.2-1.3-0.1-1.8-1.3 0.6-2.9 1.5-3.8 2.9-1.5 2.2-5.3 3.8-8.7 3.8-2 0-3.7-0.5-5-1.4-6.6 9.3-20 22.6-31.5 22.6zm6-47.2c-12.4 12.2-19.1 24.4-18.2 33.8 0.4 4.4 2.4 7.8 6 10.2q2.8 1.8 6.2 1.8c11.1 0 24.8-13.9 30.7-22.7l0.5-0.6 0.6 0.5c1.5 1.3 3.3 1.6 4.7 1.6 3.3 0 6.5-1.6 7.5-3.2 2-3 6.4-4.2 6.6-4.2l4.1-1.1-3.5 2.4c0 0-1.2 0.8-0.9 2 0.4 0.5 1.2 0.9 2.1 0.9 1.7 0 4.3-1.6 5.9-5.9l0.1-0.2 0.2-0.1c1-0.6 2.3-3.9 2.5-11.4v-0.6l0.6-0.1c0.5 0 1.9-1.7 1.7-8.3l-0.2-3.2 1.3 2.4c0.3-0.6 1-2.1 1.5-5.4 0.5-2.7 0.2-4.8-0.9-6.4-1.3-1.8-3.7-2.9-7-3.4-2.1-0.3-4-0.5-5.7-0.5-5.8 0-10.5 2-15.5 6.7-2.3 2.2-4.7 4.8-7.3 7.5-5.3 5.6-11.4 12-19.6 18.7l-0.8 0.6-0.3-0.9c-1.3-3.6-2.4-8.6-2.9-10.9z"/><path class="l" d="m61.5 306.6q-0.9 0.9-2.3 2.3c-0.7 0.7-1.5 1.5-2.4 2.4-0.9 0.9-1.8 1.9-2.7 2.8-0.5 0.5-0.9 1-1.3 1.5-0.4 0.5-0.9 0.9-1.2 1.4-0.8 1-1.5 1.9-2.1 2.7q-1 1.6-1.8 2.8 0.4-1.3 1.1-3.2c0.5-0.9 1.1-2 1.7-3.1 0.8-1 1.7-2 2.5-3 1-1 1.9-2 2.9-2.8 1-0.8 1.9-1.5 2.8-2.1q1.6-1.1 2.8-1.7z"/><path class="l" d="m116.1 290.7q-0.1-0.3-0.3-0.7-0.1-0.3-0.3-0.6c-0.2-0.3-0.3-0.5-0.6-0.8q-0.4-0.4-0.7-0.8c-0.4-0.2-0.7-0.5-1-0.7-0.2-0.1-0.3-0.3-0.6-0.4l-0.6-0.3q-0.6-0.3-1.2-0.6c-0.4-0.3-0.9-0.3-1.3-0.5-0.4-0.2-0.8-0.3-1.2-0.5-0.5-0.1-0.8-0.3-1.3-0.4q-0.6-0.1-1.1-0.3-1.4-0.4-2.3-0.8 1 0 2.4 0c0.8 0.1 1.7 0 2.6 0.3 0.4 0.1 0.9 0.2 1.4 0.4 0.5 0.2 1 0.2 1.4 0.5q0.7 0.4 1.4 0.7 0.6 0.4 1.1 0.9c0.4 0.4 0.7 0.7 1 1 0.3 0.4 0.5 0.8 0.7 1.1 0.2 0.3 0.3 0.7 0.3 1q0.2 0.4 0.2 0.8 0 0.4 0 0.7z"/><path class="l" d="m113.6 300.1q0-0.3-0.2-0.7c0-0.5-0.3-1.1-0.7-1.7-0.4-0.6-1-1.2-1.7-1.7-0.4-0.3-0.8-0.5-1.2-0.8-0.4-0.3-0.9-0.4-1.4-0.7-1.8-0.8-3.7-1.3-5.2-1.7q-1.2-0.3-1.9-0.5-0.4-0.1-0.7-0.2 0.3 0 0.7-0.1c0.5 0 1.1 0 1.9 0 0.9 0.1 1.8 0.1 2.8 0.3 0.5 0.1 1 0.2 1.5 0.4 0.5 0.2 1 0.3 1.5 0.5 0.5 0.3 1 0.5 1.5 0.8q0.7 0.5 1.3 1c0.4 0.3 0.7 0.8 1 1.2 0.2 0.4 0.5 0.8 0.6 1.2 0.3 0.8 0.3 1.5 0.3 2q0 0.4-0.1 0.7z"/><path class="l" d="m111 311.7q0-0.3 0-0.8c0-0.5-0.1-1.2-0.2-2-0.1-0.4-0.2-0.8-0.3-1.2-0.2-0.4-0.3-0.9-0.6-1.2-0.2-0.5-0.5-0.8-0.9-1.2-0.3-0.2-0.7-0.6-1.2-0.8l-0.6-0.4q-0.4-0.1-0.7-0.2l-0.8-0.3c-0.2 0-0.4-0.1-0.7-0.1-0.5-0.1-0.9-0.3-1.4-0.3-0.5 0-0.9-0.1-1.3-0.1-0.4-0.1-0.8-0.1-1.1-0.1-0.4 0-0.7-0.1-1-0.1q-0.4 0-0.7 0 0.3-0.1 0.7-0.2 0.4-0.1 0.9-0.2c0.4-0.1 0.7-0.2 1.1-0.2 0.9-0.1 1.9-0.2 3-0.1 0.5 0.1 1.2 0.2 1.7 0.4q0.8 0.2 1.7 0.7c0.5 0.2 1 0.7 1.4 1.1 0.4 0.5 0.8 0.9 1 1.5 0.3 0.5 0.4 1.1 0.5 1.5q0.1 0.8 0.1 1.5c0 0.9-0.2 1.6-0.3 2.1q-0.2 0.4-0.3 0.7z"/><g style="mix-blend-mode:multiply"><path class="K" d="m152.6 269.5q0.1 1.9 0.2 5.2c0.1 3.3 0.4 8 0.4 13.6 0.1 5.7 0.2 12.3 0.2 19.3-0.1 7.1-0.2 14.6-0.5 22.2-0.4 7.5-0.8 15-1.5 22.1-0.6 7-1.5 13.6-2.5 19.2-1 5.6-2.2 10.1-3.3 13.2-0.6 1.6-1.1 2.8-1.5 3.6q-0.3 0.8-0.5 1.2 0.1-0.4 0.5-1.2c0.4-0.8 0.8-2.1 1.2-3.6 0.5-1.6 1-3.6 1.5-5.8q0.7-3.4 1.3-7.6c0.9-5.5 1.5-12.1 2.1-19.1 0.6-7 1-14.6 1.3-22.1 0.3-7.5 0.5-15 0.6-22.1 0.1-7 0.3-13.6 0.4-19.3 0-5.6 0-10.3 0.1-13.6q0-3.3 0-5.2z"/><path class="K" d="m92.6 361.2q0.2 0.9 0.4 2.2c0.2 1.3 0.4 3 0.7 4.8 0.1 0.4 0.1 0.8 0.2 1.2 0.1 0.4 0.1 0.9 0.2 1.3 0.2 0.8 0.3 1.5 0.4 2.2q0.4 1.2 0.5 2.1-0.5-0.7-1.2-1.9c-0.3-0.6-0.6-1.3-0.9-2.1-0.2-0.8-0.4-1.7-0.6-2.6-0.1-0.9-0.2-1.8-0.2-2.7 0-0.8 0-1.6 0.1-2.3q0.1-1.3 0.4-2.2z"/><path class="K" d="m110 379.3q0.7 0.4 1.8 1.1 0.8 0.5 1.8 1.1c0.7 0.3 1.3 0.9 2 1.2 0.7 0.4 1.4 0.9 2.1 1.2 0.7 0.3 1.3 0.7 1.9 1q1.1 0.5 1.8 1-0.8-0.1-2.1-0.3c-0.7 0-1.4-0.3-2.1-0.6-0.4-0.1-0.8-0.2-1.2-0.5q-0.5-0.3-1.1-0.6c-1.5-0.8-2.8-2-3.6-2.9q-0.9-1-1.3-1.7z"/><path class="K" d="m187.3 381.7q-0.7 0.8-1.8 1.9c-0.6 0.4-1.4 0.9-2.2 1.4-0.5 0.3-0.9 0.4-1.4 0.6q-0.7 0.3-1.4 0.6c-1 0.3-2 0.6-2.9 0.7-0.9 0.2-1.8 0.3-2.6 0.3q-1.5 0.1-2.6 0 1-0.3 2.5-0.8c0.7-0.2 1.5-0.4 2.4-0.6 0.9-0.3 1.8-0.7 2.8-0.9 0.4-0.2 0.9-0.4 1.3-0.5 0.5-0.2 0.9-0.3 1.3-0.5q0.7-0.3 1.2-0.5c0.4-0.2 0.8-0.3 1.1-0.5q1.3-0.7 2.3-1.2z"/></g><path class="L" d="m211.3 368.4c0.2-1.8 0.4-3.7 0.5-5.5q-0.8 2.7-0.5 5.5z"/><path class="ac" d="m178.7 265.5q-2.3 10-7.4 15.6c-2.8 3.6 8.7-3.3 7.4-15.6z"/><path class="ac" d="m223 238.3q-2.5 13.2 2.5 22.5c4 6.8-5 1.5-5-9.3 0-10.7 2.1-15.7 2.5-13.2z"/><path class="ac" d="m66.1 281.6q0 5.2 0.5 9.3c0.4 4-1.5 2.8-1.7-2.6-0.2-5.5 1.4-7.4 1.2-6.7z"/><path class="ab" d="m94.9 262.2q-16.9 11.7-20.5 16.2c-3.6 4.6 16.2-9.5 20.5-16.2z"/><path class="ab" d="m192.9 256.4q8.8-4.8 14.9-8.5c6.1-3.8-6.9 0.5-14.9 8.5z"/><path class="ac" d="m142.6 314.2c4.3 17 7.8 48.9-12 52.5-19.9 3.5-19.9-19.9-13.5-32.6q6.4-12.8 8.5-23.4c0.7-16.3 12.8-13.5 17 3.5z"/><path class="m" d="m118.7 284.6c-0.9 5.5-2.3 6.8-2.6 6.1 0.2 6-1 8.9-2.3 9-0.2 7.8-1.5 11.2-2.8 12-2.7 7-7.8 7.3-9.3 4.9q-0.6-1.7 1.1-2.8-4.3 1.1-6.2 3.9c-1.9 2.9-9.3 5.3-13.3 1.8-8.1 11.9-26.3 28.5-37.9 21-11.5-7.6-7.7-26.2 13.1-46q1.2 6.7 2.8 11.4c-3.1 2.8-6.2 6-9.3 9.6-11.8 13.7-1.2 21.6 7.9 14.4 9.2-7.1 17.8-12.8 19-21.2 2.9 10 14.1 2.3 19 2.1 4.9-0.2 8.6-1 8.6-4.1 0-3.1-3.7-3.1-8.6-4.3 5.2-2.8 10.2-1 10.7-3.9 0.4-2.8-1.3-4.5-9.5-6.5 5-3.1 11.1 2.6 11.7-2.9q0.6-5.5-9-6.1 0.8-1.8 9.2-1.6c6.3-0.2 5.3-5.3-0.8-7.4 7.8 1.1 9.5 5.5 8.5 10.6z"/><path class="k" d="m231 237.5l69.3-45.8q-1.4-10.3 7.9-17.5 8.2-5.8 11.9-4.9 11.7-8.6 16.1-7.9 4.4 0.7 6.1 11.2 9.3-0.9 9.1 9.8c5.4 1.4 6.8 8.4 2.3 14.9 2.8 0.5-3.7 15.7-13.1 18.2q-5.1 1-6.2-3-4.2 10.3-16.1 11.2-9.8 0.7-12.6-6.5l-68.2 49.2q-11.4-11.2-6.5-28.9z"/><path fill-rule="evenodd" class="l" d="m237.5 267.3l-0.5-0.4c-0.1-0.1-11.7-11.7-6.7-29.6l0.1-0.3 0.2-0.1 68.9-45.5c-0.1-2.2-0.3-11.1 8.3-17.7 6.9-5 10.9-5.2 12.2-5.1 1.7-1.3 12.1-8.6 16.3-7.9 4.3 0.7 6.1 8.7 6.6 11.2 1.3 0 4.3 0.2 6.6 2.6 1.7 1.7 2.6 4.2 2.6 7.4 2.1 0.7 3.6 2.2 4.4 4.3 1.2 3.2 0.5 7.2-1.8 10.9 0.2 0.3 0.4 0.7 0.4 1.3 0.2 3.8-5.9 15.5-14.2 17.8-0.7 0.1-1.2 0.2-1.7 0.2-2.5 0-4-1.2-4.8-2.3-1.7 2.8-6.5 9.6-16.1 10.3-8.2 0.6-11.8-4.2-12.9-6.2zm-5.9-29.4c-4 15.1 4.1 25.4 6 27.6l68.4-49.4 0.4 0.8c0.1 0.3 2.8 6.7 11.9 6.1 11.3-0.9 15.4-10.7 15.5-10.8l0.7-1.8 0.6 1.9c0 0.1 0.8 2.7 4.1 2.7 0.4 0 0.9-0.1 1.4-0.2 6.2-1.7 11.3-9.5 12.7-14.3 0.6-1.7 0.4-2.4 0.3-2.5l-1-0.2 0.6-0.9c2.3-3.5 3.1-7.3 2-10.2-0.7-1.9-2-3.1-3.9-3.6l-0.6-0.2v-0.5c0.1-3.1-0.6-5.4-2.1-7-2.5-2.4-6.1-2.1-6.2-2.1l-0.7 0.1-0.1-0.7c-0.4-2.8-2.2-10.1-5.4-10.6-4.2-0.7-15.5 7.7-15.6 7.8l-0.3 0.2-0.3-0.1c0 0-3.6-0.7-11.3 4.8-8.9 6.9-7.7 16.7-7.7 16.8l0.1 0.5-0.4 0.2z"/><path class="l" d="m320.1 169.3q5 3.8 9.9 7.7l4.9 3.9c0.7 0.7 1.6 1.3 2.2 2.2 0.8 0.8 1.4 1.7 1.8 2.8 0.5 1 0.6 2.3 0.4 3.4-0.1 0.6-0.2 1.1-0.4 1.6-0.1 0.2-0.1 0.2-0.2 0.5l-0.2 0.3c-0.1 0.3-0.4 0.6-0.7 0.8-0.9 0.8-2.1 1.1-3.2 1.3-1.1 0.2-2.2 0.2-3.3 0q-1.6-0.2-3.1-0.7c-1-0.4-2-0.8-3-1.3-0.9-0.6-1.8-1.1-2.7-1.7-0.9-0.6-1.7-1.3-2.5-1.9l0.9-0.4c-0.1 1.2 0 2.5-0.2 3.8 0 0.6-0.1 1.3-0.2 1.9l-0.2 1-0.5 0.9c-0.1 0.3-0.2 0.6-0.5 0.8l-0.7 0.8c-0.5 0.4-1 0.8-1.5 1.1-0.6 0.3-1.2 0.6-1.8 0.8l-1.7 0.8 1.7-0.9c0.5-0.3 1-0.7 1.6-1 0.5-0.4 0.9-0.8 1.4-1.2l0.5-0.7c0.2-0.2 0.3-0.5 0.4-0.8l0.4-0.8 0.1-0.9c0.2-0.6 0.2-1.2 0.2-1.9 0.1-1.2 0-2.5-0.1-3.7v-1.1l0.9 0.7c0.8 0.6 1.6 1.2 2.5 1.7 0.8 0.6 1.7 1.1 2.6 1.6 0.9 0.4 1.8 0.8 2.8 1.1q1.4 0.5 2.9 0.7 1.5 0.1 2.9-0.1c0.9-0.1 1.8-0.5 2.5-1 0.6-0.3 0.9-1.5 1.1-2.3 0.1-0.9 0.1-1.9-0.3-2.7-0.3-0.9-0.9-1.8-1.5-2.5-0.5-0.8-1.4-1.4-2.1-2.1l-4.7-4.1q-4.7-4.1-9.3-8.4z"/><path class="l" d="m312.2 210.4q0.1-0.7 0.7-1.6 0.2-0.4 0.5-0.7c0.2-0.2 0.4-0.5 0.7-0.7 0.5-0.4 1-0.9 1.7-1.2q0.5-0.2 1-0.4c0.3-0.2 0.6-0.2 1-0.3 0.3 0 0.6 0 0.9-0.1 0.3-0.1 0.6 0 0.9 0q1 0.1 1.7 0.3-0.7 0.3-1.6 0.5c-0.3 0.1-0.5 0.1-0.8 0.2-0.3 0.2-0.5 0.3-0.8 0.4q-0.9 0.2-1.7 0.7c-0.6 0.2-1.1 0.6-1.6 0.9-0.2 0.1-0.4 0.3-0.7 0.5-0.2 0.1-0.4 0.3-0.6 0.4-0.4 0.3-0.7 0.6-1 0.8q-0.2 0.2-0.3 0.3z"/><path class="l" d="m342.3 172.6q0.1 0.9 0 2.1c0 1.3-0.3 3-0.7 4.6-0.3 0.8-0.5 1.7-0.8 2.4-0.4 0.7-0.7 1.4-1 2q-0.7 1.1-1.2 1.7 0.1-0.8 0.5-2c0.3-1.2 0.7-2.8 1.1-4.4 0.4-1.6 0.9-3.2 1.3-4.4q0.5-1.2 0.8-2z"/><path class="l" d="m335.1 193.1q-0.1 0.5-0.5 1.3c-0.3 0.8-0.7 2-1.5 3.2-0.8 1.3-1.9 2.7-3.5 3.8-0.4 0.3-0.8 0.6-1.3 0.8q-0.6 0.4-1.4 0.6c-1 0.4-2 0.4-3.1 0.4h-0.4-0.1l-0.2-0.1h-0.1l-0.7-0.2c-0.5 0-1.1-0.4-1.6-0.7-0.9-0.7-1.4-1.9-1.5-2.9q0-1.5 0.4-2.8 0.4-1.2 0.9-2.3c0.6-1.3 1.4-2.3 1.9-3q0.4-0.7 0.7-1.1-0.1 0.4-0.5 1.2c-0.4 0.8-0.9 1.9-1.4 3.2-0.4 1.4-0.9 3.1-0.7 4.7 0.1 0.8 0.4 1.4 1 1.9q0.3 0.1 0.5 0.2 0.2 0.2 0.6 0.3l0.7 0.1 0.2 0.1q0.1 0 0 0h0.1 0.3c0.9 0.1 1.8 0 2.6-0.3q0.7-0.1 1.3-0.5c0.4-0.1 0.7-0.3 1.1-0.6 1.5-0.9 2.6-2.1 3.5-3.2 0.9-1.2 1.6-2.1 2-2.9q0.4-0.7 0.7-1.2z"/><path class="l" d="m351.4 182.4q-0.6 2.1-1.8 5.1c-0.7 1.5-1.5 3.3-2.5 5.1-1 1.8-2.1 3.6-3.4 5.4-1.4 1.7-2.9 3.4-4.7 4.6-1.7 1.2-3.8 1.9-5.5 1.7q-0.7 0-1.2-0.2-0.6-0.2-1-0.5c-0.7-0.3-1.1-0.7-1.5-1q-0.7-0.7-1-1.1 0.4 0.4 1.2 0.9c0.4 0.2 0.8 0.5 1.5 0.7 0.3 0.2 0.6 0.3 1 0.3q0.5 0.1 1 0.1c1.6 0.1 3.2-0.7 4.8-1.9 0.8-0.6 1.5-1.3 2.2-2q1.1-1.2 2-2.4c1.3-1.7 2.5-3.5 3.6-5.2 1-1.8 2-3.4 2.7-4.8q1.6-2.9 2.6-4.8z"/><path class="l" d="m353.7 197.3q-0.6 1.6-2.1 3.8c-0.4 0.5-0.9 1-1.3 1.6-0.5 0.6-1 1.2-1.7 1.7-0.6 0.6-1.2 1.2-2 1.6-0.7 0.6-1.5 0.9-2.3 1.4-0.8 0.3-1.7 0.6-2.6 0.7-0.8 0.2-1.7 0.3-2.6 0.1q-0.6 0-1.2-0.1-0.6-0.2-1.2-0.4c-0.3-0.2-0.7-0.3-1-0.4q-0.4-0.3-0.9-0.6c-0.5-0.4-1.1-0.6-1.5-1-0.3-0.4-0.7-0.7-0.9-1q-0.6-0.5-0.8-0.8 0.3 0.2 1 0.6 0.4 0.3 1.1 0.7c0.4 0.4 0.9 0.5 1.5 0.8q0.4 0.2 0.9 0.4c0.3 0.1 0.6 0.2 1 0.3q0.5 0.1 1 0.2 0.5 0 1.1 0.1c0.7 0.1 1.5-0.1 2.3-0.2 0.7-0.2 1.5-0.4 2.3-0.7 0.7-0.4 1.4-0.7 2.1-1.2 0.7-0.4 1.3-0.9 1.9-1.4 1.2-1 2.3-2 3.1-2.9q1.8-1.9 2.8-3.3z"/><path class="l" d="m331.8 170.5q0 0.5 0 1.1c-0.1 0.6-0.3 1.4-0.6 2.2-0.4 0.8-0.8 1.5-1.2 2q-0.4 0.5-0.8 0.8 0-0.5 0-1.1c0.1-0.7 0.3-1.5 0.7-2.2 0.3-0.8 0.7-1.5 1.1-2q0.4-0.5 0.8-0.8z"/><path class="l" d="m300.3 191.7q0.1 0.1 0.2 0.3c0.1 0.1 0.3 0.4 0.5 0.6 0.3 0.6 0.7 1.3 1.1 2.1 0.2 0.8 0.5 1.5 0.6 2.2q0.1 0.7 0.2 1.1-0.4-0.2-0.9-0.7-0.3-0.4-0.7-0.9c-0.2-0.4-0.4-0.8-0.6-1.2-0.3-0.8-0.5-1.7-0.5-2.3q0-0.7 0.1-1.2z"/><path fill-rule="evenodd" class="m" d="m353.5 202c-1.5 2.6-3.4 4.9-6.1 6.1-1.6 0.6-3.7 0.7-4.9 2.1-1 1.1-2.4 3.8-0.9 5q-0.5 0.2-1 0.3-5.1 1-6.2-3-4.2 10.3-16.1 11.2-9.8 0.7-12.6-6.5l-68.2 49.2q-11.4-11.2-6.5-28.9l69.3-45.8q-0.8-5.6 2.6-11.5c-3.9 8.6-1.8 17.9 8.8 16.5 10.7-1.3 2-17.1 6.4-13.8 4.3 3.4 10.2 6.8 14.2 5.7 4-1.3 6.2-3.9-5.2-13.5-3.6-3-7-4.7-9.9-5.5q2-0.5 2.9-0.3 11.7-8.6 16.1-7.9c0.7 0.1 1.3 0.5 1.9 1-1.4 0-2.7 0.9-3 3.9-0.8 7.2-3.6 9.8-0.6 12.6 2.5 2.4 5.5-0.4 7.6-7.4q0.1 0.7 0.2 1.1 2.2-0.2 4.5 0.8c-0.7 0.5-1.2 1.2-1.1 2.1 0.2 3.2-3.2 11.8-7.4 18-4.2 6.3-2.6 9.5 1.8 6.3 3.6-2.6 9.2-11.1 11.8-17.3q1.2 0.5 2.1 1.2c-1.7 4.3-5.4 12.8-10.5 17.5-5.3 4.1 3.7 6.3 10.3-3.8 0.9 0.2 0.7 2.1-0.3 4.6zm-59.9-1.2q-33.8 21.6-48.2 31c-13 7.8-9.2 17.4-4.8 20.6 4.4 3.2 30.6-17.2 47.6-29 17-11.8 15.2-26.5 5.4-22.6zm34.2 5.6q-7.9-1.4-12.7 4.8c-4.8 6.2 1.1 11.8 10 6 8.8-5.8 6.2-11 2.7-10.8zm6.3-13.1q-3.8 0.4-7.4-1.6-1.2 1.8-3.5 4.6c-2.1 2.9 3.5 9.1 10.9-3z"/><path class="ad" d="m121.4 217.2q21.8 8 51-2.4c-6.6 5-34.8 11-51 2.4z"/><path class="ae" d="m109.4 275.9q-11.3-1.5-18.7 5.8c-7.2 7.3-14.8 16.2-16.2 15.7-1.4-0.5 8.9-10.1 15.3-17 6.4-6.8 16.2-6.1 19.6-4.5z"/><path class="af" d="m62.5 308.3q-10.7 9-13.2 18.3c-2.4 6.3-1.8-10.1 13.2-18.3z"/><path class="ag" d="m245 232.9q42.4-28.7 48.3-31.1c5.9-2.4-51.1 36.1-48.3 31.1z"/><path class="L" d="m152.8 282.7q0 0.3 0 0.5 0-0.2 0-0.5z"/><path class="ah" d="m52.2 352.3q-11.6 15.6-12.3 22.9c-1.4 5.3-3.8 2.1 1.6-8.6 5.3-10.8 12.1-18.9 10.7-14.3z"/></svg>