<svg version="1.2" xmlns="http://www.w3.org/2000/svg" viewBox="0 0 1613 1131" width="1613" height="1131"><style>.a{fill:#ffe4dd}.b{fill:#ffb8a4}.c{fill:#18a795}.d{fill:#fc981f}.e{fill:#fc5b23}.f{fill:#011d44}.g{opacity:.4;fill:#ffe4dd}.h{opacity:.5;fill:#ffe4dd}.i{opacity:.2;fill:#fc981f}.j{fill:#fff}</style><path class="a" d="m1537 81v646c-116-76-4.4-217.6-18-344-14-130-48-274-260-218-165.7 43.8-322 2-360-84z"/><path class="b" d="m182.2 993.5c-72.2 3.9-103.5-87.9-47.8-125.3 55.7-37.4 192.9 0.4 206.1 43.9 13.2 43.5-103.8 78.5-158.3 81.4z"/><path class="a" d="m222.4 958.5c-25.9-20.8-47.1-48.9-56.4-81-7.4-25.1-8.9-60.4 11.6-79.9 34.3-32.6 86.3-28.7 126.6-11.5 52.5 22.5 89.3 69.8 115.8 118.8 13.5 25.1 19.2 53.6-0.6 77.1-14.4 17.2-35.4 25.5-57.4 23.9-23.5-1.7-46.9-7.1-69.4-14-24.5-7.6-49.4-17.4-69.9-33.2-1.5-1.2 0-3.8 1.5-2.6 21 16.2 46.6 26.1 71.8 33.7 22.4 6.7 45.9 12.2 69.3 13.3 23.8 1.2 48.3-12.1 59-33.8 15.2-30.4-5.2-61.9-21.2-87.4-27.3-43.4-65-82.7-115-98.6-19.9-6.3-42.8-10.7-63.5-5.7-19.1 4.7-42.3 13.9-52.7 31.7-13.7 23.7-8.1 57.3 1.9 81.2 10.7 25.9 28.9 48.3 50.7 65.8 1.5 1.2-0.6 3.4-2.1 2.2z"/><path class="c" d="m640 1081c42-24 158-58 294 0z"/><path class="d" d="m9 837c40.5 22.9 34 230 226 192 182.2-36.1 302.1 27.1 292 64q-18 66-522 16z"/><path class="a" d="m37 441.7q60.9 25.4 83 83c20.7 54.1-25.4 142.2-81.3 233.6z"/><path class="d" d="m106.6 752.3c1-3.9 3.8-6.8 7.5-8.2 1.8-0.6 2.6 2.3 0.8 2.9-2.7 1-4.7 3.3-5.4 6.1-0.5 1.8-3.4 1-2.9-0.8z"/><path class="d" d="m147.4 760.4q4.5-4.5 9.1-9c1.4-1.3 3.5 0.8 2.1 2.1q-4.5 4.6-9.1 9.1c-1.4 1.3-3.5-0.8-2.1-2.2z"/><path class="d" d="m154.3 674.4q4.5-3.6 8.9-7.1c1.5-1.2 3.6 0.9 2.1 2.1q-4.4 3.5-8.8 7.1c-1.5 1.2-3.7-0.9-2.2-2.1z"/><path class="d" d="m154.3 716.4q4.5-3.6 8.9-7.1c1.5-1.2 3.6 0.9 2.1 2.1q-4.4 3.5-8.8 7.1c-1.5 1.2-3.7-0.9-2.2-2.1z"/><path class="c" d="m37 81q361.8-24.2 363.9 0.6c8.1 95.4-115.9 33.4-159.9 33.4-176.6 0-59.6 254-202 254q-76 0-2-288z"/><path class="a" d="m1105 1081c126-56 202.6-130.7 336-104 34.7 6.9 96 40 96 104z"/><path class="d" d="m1463 301c-12 32-76.4-11.2-110-28-52-26-54-82 2-78 62.1 4.4 120 74 108 106z"/><path class="d" d="m1551.5 723.3c-18.4 13-42.5 12.8-62.1 2.6-21.2-11-34.2-33.2-39.4-55.8-5.8-24.8-2.5-50.7 3.4-75.2 6.5-27.1 15.5-53.8 25.5-79.8 9.5-24.8 20.3-49 32.4-72.6q9.9-19.2 20.8-37.9c2.9-4.8 7-16 14.4-15.6 6.6 0.3 9.2 8.4 10.4 13.6 3 12.6 4.3 25.8 6.1 38.6 4 30.1 6.6 60.3 7.7 90.6 2.1 58.8-1.6 117.7-10.6 175.8-0.3 1.9-3.2 1.1-2.9-0.8 8.7-56 12.3-112.6 10.6-169.2-0.7-24.5-2.4-49-5-73.3q-2.3-21-5.6-41.8c-1-6.3-1.6-12.9-3.2-19.1-0.5-2.2-0.8-5-2.3-6.8-9-10.7-10.5 0.3-13.3 3.4-7.4 8.2-12.6 21.5-17.8 31.2q-8.1 15.1-15.5 30.5c-10.3 21.5-19.6 43.6-27.8 66-15.7 43-34.9 93.8-24.8 140.1 4.7 21.5 16.3 42.7 35.8 54.1 19 11.1 43.4 11.7 61.7-1.2 1.5-1.1 3 1.5 1.5 2.6z"/><path class="e" d="m1611.5 152.2c-30.8 15.2-64.1 23.9-97.8 29.8-28.1 5-61.9 11.5-87.1-6-21.6-15-27.2-39-13.9-61.4 19.4-32.7 41.5-64.1 62.2-96 1.1-1.6 3.7-0.1 2.6 1.5q-25.9 40-51.9 80c-8.8 13.5-20.7 28-17.2 45.1 2.7 13.5 12.9 24.9 24.7 31.3 27 14.7 62.2 6.2 90.6 0.6 29.8-5.8 59-14.1 86.3-27.5 1.8-0.9 3.3 1.7 1.5 2.6z"/><path class="f" d="m1295 183c-10.7 7.1 0 26 16 14 10.2-7.7-4-22-16-14z"/><path class="f" d="m67.7 829.5c-7.2 4.8 0 17.6 10.9 9.5 6.9-5.2-2.7-14.9-10.9-9.5z"/><path class="e" d="m575 971c-35.3-10.2-66 84-1.1 69 50-11.6 63.1-51 1.1-69z"/><path class="e" d="m1125 47c-35.9 7.8 32 86 80 68 48-18-34-78-80-68z"/><path class="d" d="m509 63c-6.6 52.7 226 82 296 2q42.5-48.6-296-2z"/><path class="d" d="m677.6 158.1q3.4 1.2 6.8 2.4c1.8 0.7 1 3.6-0.8 2.9q-3.4-1.2-6.8-2.4c-1.8-0.6-1-3.5 0.8-2.9z"/><path class="d" d="m849.7 125.1q4.5 1.1 9 2.3c1.9 0.4 1.1 3.3-0.8 2.9q-4.5-1.2-9-2.3c-1.9-0.5-1.1-3.4 0.8-2.9z"/><path class="d" d="m979.5 199.4q5.7 1.2 11.3 2.4c1.9 0.4 1.1 3.3-0.8 2.9q-5.6-1.2-11.3-2.4c-1.9-0.4-1.1-3.3 0.8-2.9z"/><path class="c" d="m1499 909c-20.6-9-74.3-41-45.4-74 28.9-33.1 156.4 14 129.4 72-9 19.4-37 22.6-84 2z"/><path class="f" d="m493.6 154.1c-3.5-3.3-7-6.6-10.6-9.9-1.4-1.3 0.7-3.4 2.2-2.1 3.5 3.3 7 6.6 10.5 9.9 1.4 1.4-0.7 3.5-2.1 2.1z"/><path class="f" d="m464.8 81.6q-3.9-3.7-7.9-7.5c-1.4-1.3 0.8-3.4 2.2-2.1q3.9 3.8 7.8 7.5c1.4 1.4-0.7 3.5-2.1 2.1z"/><path class="f" d="m469.1 114.8q-3.9-3.8-7.8-7.6c-1.4-1.3 0.7-3.4 2.1-2.1q3.9 3.8 7.8 7.6c1.4 1.3-0.8 3.4-2.1 2.1z"/><path class="f" d="m520.9 162.2q-3.9-3.7-7.9-7.5c-1.4-1.3 0.8-3.4 2.2-2.1q3.9 3.8 7.8 7.5c1.4 1.3-0.7 3.5-2.1 2.1z"/><path class="f" d="m525.1 195.4q-3.9-3.8-7.7-7.6c-1.4-1.3 0.7-3.4 2.1-2.1q3.9 3.8 7.8 7.6c1.4 1.3-0.8 3.4-2.2 2.1z"/><path class="f" d="m1015.2 1089.6q7.8-7.6 15.6-15.1c1.4-1.4 3.5 0.7 2.1 2.1q-7.8 7.5-15.6 15.1c-1.3 1.4-3.5-0.8-2.1-2.1z"/><path class="f" d="m1033.2 1051.3q5-5.2 10.1-10.4c1.4-1.3 3.5 0.8 2.1 2.2q-5 5.1-10.1 10.3c-1.4 1.4-3.5-0.8-2.1-2.1z"/><path class="f" d="m1063.2 1075.3q5-5.2 10.1-10.4c1.4-1.3 3.5 0.8 2.1 2.2q-5 5.1-10.1 10.3c-1.4 1.4-3.5-0.8-2.1-2.1z"/><path class="f" d="m1076.9 1031.1q3.9-3.9 7.7-7.7c1.4-1.4 3.5 0.8 2.1 2.1q-3.8 3.9-7.6 7.7c-1.4 1.4-3.5-0.8-2.2-2.1z"/><path class="g" d="m1045 283c-76.8 8.8-102 154 80 126 182-28 42-140-80-126z"/><path class="h" d="m665.6 968.7c-20.8 2.4-24.1 54.2 21.7 34.2 8.7-3.8 11.4-38-21.7-34.2z"/><path class="i" d="m150.4 386.5c-36.2 4.2-41.8 94.1 37.7 59.4 15-6.6 19.7-66-37.7-59.4z"/><path class="e" d="m1420.6 404.2q-3.6 5.9-7.1 11.8c-1 1.6-3.6 0.1-2.6-1.6q3.5-5.8 7.1-11.7c1-1.6 3.6-0.1 2.6 1.5z"/><path class="e" d="m1420 436.7q-4 4.9-8 9.8c-1.2 1.5-3.3-0.7-2.1-2.2q4-4.9 8-9.8c1.2-1.5 3.3 0.7 2.1 2.2z"/><path class="e" d="m1412.3 467.5q-4.1 4.8-8.3 9.6c-1.2 1.4-3.3-0.7-2.1-2.2q4.2-4.8 8.3-9.5c1.3-1.5 3.4 0.6 2.1 2.1z"/><path class="a" d="m1251.8 902.1c28.3 30.4 85 13.2 107.5-16 24.8-32.2 9.6-80.5-28.3-94.3-1.8-0.6-1.1-3.5 0.8-2.9 39.1 14.2 55.9 63.8 30.8 97.8-23.2 31.5-83 49.7-112.9 17.6-1.4-1.5 0.8-3.6 2.1-2.2z"/><path class="a" d="m336.3 201.2c-28.3-30.4-85-13.1-107.4 16-24.9 32.2-9.7 80.6 28.3 94.3 1.8 0.7 1 3.6-0.8 2.9-39.2-14.2-55.9-63.8-30.9-97.8 23.2-31.4 83-49.6 113-17.5 1.3 1.4-0.8 3.5-2.2 2.1z"/><path class="a" d="m75.5 418.4c-3.8-4.7-0.5-12.8 3-16.7 4.2-4.7 9-3.8 11.9 1.5 2.1 3.9 3.8 10.5 1 14.5-2.7 3.8-12.6 3.7-15.9 0.7-1.4-1.3-3.6 0.8-2.1 2.1 4.4 4.1 15.8 4.4 19.9-0.4 4.6-5.3 2.3-14.8-1.2-20-10.2-14.7-27.6 9.4-18.7 20.4 1.2 1.5 3.3-0.6 2.1-2.1z"/><path class="j" d="m1190.4 227.4c-5.5-6 1.1-21.3 9.2-22.5 8.4-1.3 14.2 16.8 8.2 22.7-3.1 3.1-14.5 3-17.4-0.2z"/><path class="a" d="m28.4 56.3c-15 11-20.5 30.9-15.8 48.7 4.9 18.5 21 31.1 39.2 35.3 34.8 8 66.9-15.6 80.8-46.4 7.6-16.9 9-41.9-14.1-46.3-17.6-3.3-37.3 6.4-46.4 21.6-10 16.5-4.5 36.8 12.1 46.5 18.6 10.8 33.6-1.5 44.8-16.2 21.2-27.8 32.7-74.9-3.5-96.6-1.6-1-0.1-3.6 1.5-2.6 19.2 11.5 27.6 34.2 24.8 55.8-1.8 13.3-7.3 25.8-14.5 37-6.5 10-14.7 21.8-25.7 27.2-14.2 6.9-30.8 0-40-11.7-11.7-14.8-9.2-34.3 3-47.8 11.9-13.2 33.3-21.3 50.5-14.4 18.9 7.5 17.8 30 11.4 45.9-14.9 37-55.8 63.9-95.3 47.8-34.5-14.1-46.5-62.8-14.3-86.4 1.6-1.2 3.1 1.4 1.5 2.6z"/></svg>