<svg version="1.2" xmlns="http://www.w3.org/2000/svg" viewBox="0 0 812 895" width="812" height="895"><defs><clipPath clipPathUnits="userSpaceOnUse" id="cp1"><path d="m411.97 442.15l-13.17 250.96-166.98-8.78 1.39-26.6 11.79-224.35 105.14 5.52z"/></clipPath><clipPath clipPathUnits="userSpaceOnUse" id="cp2"><path d="m301.02 622.08l-161.09 44.77-67.28-242.13 66.7-18.53 94.4-26.23 61.04 219.69z"/></clipPath><clipPath clipPathUnits="userSpaceOnUse" id="cp3"><path d="m730.32 500.1l-24.48 90.36c-2.02 7.46-9.92 13.5-17.64 13.5h-139.68c-7.72 0-12.34-6.04-10.32-13.5l24.5-90.36c2.02-7.44 9.92-13.5 17.64-13.5h139.66c7.72 0 12.34 6.06 10.32 13.5z"/></clipPath><clipPath clipPathUnits="userSpaceOnUse" id="cp4"><path d="m660.3 676.08v16.48h-179.84v-16.48c0-6.7 5.42-12.12 12.12-12.12h155.58c5.6 0 10.32 3.78 11.72 8.94q0.42 1.51 0.42 3.18z"/></clipPath><clipPath clipPathUnits="userSpaceOnUse" id="cp5"><path d="m474.62 688.08q-8.62 8.78 33.16 146.74c-4.56 3.96-11.28 5.84-17.64 6.68q-9.2 1.22-17.62 0.26-59.88-145.24-43.4-181.28 16.48-36.04 118.74-52.54l4.36-10.8 52.9-7.44 8.74 64.78q-8.68 0.84-21.74 2.52c-35.02 4.5-101.66 14.96-117.5 31.08z"/></clipPath><clipPath clipPathUnits="userSpaceOnUse" id="cp6"><path d="m445.03 557.43q-8.79-1.52 53.72-56.31l30.13 20.29q-51.29 36.11-59.34 37.1-8.06 0.99-24.51-1.08z"/></clipPath><clipPath clipPathUnits="userSpaceOnUse" id="cp7"><path d="m499.34 820.18l16.62 43.72q2.77 11.26-47.48 7.7l-27.69-2.37z"/></clipPath><clipPath clipPathUnits="userSpaceOnUse" id="cp8"><path d="m554.72 504.78q-2.48-5.9-2.04-14.86 0.1-2.43 0.54-5.1l-3.38-5.36-4.34-6.9 5.02-20.1q31.96 6.16 34.4 15.08 2.42 8.96-30.2 37.24z"/></clipPath><clipPath clipPathUnits="userSpaceOnUse" id="cp9"><path d="m657.56 785.3c-31.41 17.82-46.1 71.29-42.84 73.66 3.27 2.38 10.99 0.89 16.93 0.89q5.94 0 40.69-18.41l4.16 8.05-39.68 13.63-20.61 0.78c-21.68-5.16-7.72-46.52 9.88-75.92q17.61-29.41 42.39-44.04 20.5 23.54-10.92 41.36z"/></clipPath><clipPath clipPathUnits="userSpaceOnUse" id="cp10"><path d="m671.75 863.9c-27.62 0-22.38-123.87-19.21-130.04 3.17-6.18 83.31-9.21 91.21-6.61 7.9 2.6 39.58 126.07 22.11 135.87z"/></clipPath><clipPath clipPathUnits="userSpaceOnUse" id="cp11"><path d="m725.37 757.16l11.76 9.61c0.7 0.57 0.77 1.61 0.16 2.27l-9.14 9.88c-0.59 0.64-1.59 0.67-2.22 0.07l-11.68-11.07c-0.65-0.62-0.65-1.66 0.01-2.28l9.06-8.41c0.57-0.53 1.45-0.56 2.05-0.07z"/></clipPath><clipPath clipPathUnits="userSpaceOnUse" id="cp12"><path d="m686.6 807.58q53.15 4.37 79.26-2.38 5.09 3.57 7.47 10.7c2.37 7.12 7.33 31.48-7.47 37.72-14.81 6.23-67.97 5.05-75.1-2.08q-7.13-7.13-4.16-43.96z"/></clipPath><clipPath clipPathUnits="userSpaceOnUse" id="cp13"><path d="m664.32 804.02q1.79 35.34 5.35 43.36-8.12 4.75-17.13 0c-9.01-4.75-7.52-35.2-5.74-35.12q1.78 0.07 17.52-8.24z"/></clipPath></defs><style>.a{opacity:.7;fill:#fff}.b{fill:#ededed}.c{fill:none;stroke:#263238;stroke-linecap:round;stroke-linejoin:round;stroke-width:2}.d{opacity:.7}.e{fill:#fff;stroke:#263238;stroke-linecap:round;stroke-linejoin:round;stroke-width:2}.f{fill:none;stroke:#263238;stroke-linecap:round;stroke-linejoin:round;stroke-width:4}.g{fill:#263238}.h{fill:#0f0}.i{fill:#f00}.j{fill:#00f}.k{fill:#757575;stroke:#263238;stroke-linecap:round;stroke-linejoin:round;stroke-width:2}.l{fill:#999;stroke:#263238;stroke-linecap:round;stroke-linejoin:round;stroke-width:2}.m{fill:#92e3a9;stroke:#263238;stroke-linecap:round;stroke-linejoin:round;stroke-width:2}.n{opacity:.3}.o{fill:#263238;stroke:#263238;stroke-linecap:round;stroke-linejoin:round;stroke-width:2}.p{fill:#ff1e1e}.q{fill:#73a7f4;stroke:#263238;stroke-linecap:round;stroke-linejoin:round;stroke-width:2}.r{opacity:.4;fill:#73a7f4;stroke:#263238;stroke-linecap:round;stroke-linejoin:round;stroke-width:2}.s{fill:#fe3737;stroke:#263238;stroke-linecap:round;stroke-linejoin:round;stroke-width:2}.t{fill:none;stroke:#fff;stroke-linecap:round;stroke-linejoin:round;stroke-width:2}.u{opacity:.6;fill:#73a7f4;stroke:#263238;stroke-linecap:round;stroke-linejoin:round;stroke-width:2}.v{opacity:.4;fill:#fff;stroke:#263238;stroke-linecap:round;stroke-linejoin:round;stroke-width:2}.w{opacity:.7;fill:#73a7f4}</style><path class="a" d="m236.9 65c153.7-95.8 357-67.2 439.8 62 82.9 129.3 59.9 169.8 60 322.8 0.1 152.9 87.5 229.5 23.8 336.8-63.8 107.3-197.9 139.2-327.1 73.7-129.2-65.5-290.6-142.1-368.9-287.1q-78.4-145.1-22.6-289 41.4-123.3 195-219.2z"/><path class="b" d="m760.5 806.6c-13.2 22.2-29.4 41.1-47.9 56.6h-313c-122.4-62-263.5-137.4-335.1-270q-78.4-145.1-22.6-289 41.4-123.3 195-219.2c153.7-95.8 357-67.2 439.8 62 82.9 129.3 59.9 169.8 60 322.8 0.1 152.9 87.5 229.5 23.8 336.8z"/><path class="a" d="m760.5 806.6c-13.2 22.2-29.4 41.1-47.9 56.6h-313c-122.4-62-263.5-137.4-335.1-270q-78.4-145.1-22.6-289 41.4-123.3 195-219.2c153.7-95.8 357-67.2 439.8 62 82.9 129.3 59.9 169.8 60 322.8 0.1 152.9 87.5 229.5 23.8 336.8z"/><path class="c" d="m365.6 51.4c2.7 10.7 1.4-9 6.7-33.1q5.3-24.1 14.3-14.3"/><path class="c" d="m363.9 26.8l16.6-6.8"/><path class="c" d="m394.3 11.8q-10 20.6 5 29.3"/><path class="c" d="m408.4 6.1q16.3 9.1 6.1 28.8"/><path class="c" d="m397.1 18.8l11.8 8.6"/><path class="c" d="m406.3 15l-9.2 14.6"/><path class="c" d="m48.6 534.8q-27.8-0.4-27.9 23.7"/><path class="c" d="m46.3 550c-0.6-3.6-12.7-7.9-14.8 1.2-2.1 9.2 13 3.7 17.6-0.6q-8.6 8.4-5.9 10.8"/><path class="c" d="m48 564q-3.6 4.6-7.6 2.4"/><path class="c" d="m57.7 569.4c8.1 8.1 18-3.3 10.4-7.4q-6.2-3.4-16.6 7.2l20.9-21.3"/><path class="c" d="m82.9 553.7q5.6 25.4-23 26.3"/><path class="c" d="m456.1 122.3l10 1.6 0.2 22.9 22.1-40.2 34.8 5.7"/><path class="c" d="m492.2 124.2l15.3 27"/><path class="c" d="m511.4 127.4l-27.4 20"/><path class="c" d="m318.3 163c-2.6-3.3-17.4-0.9-14.4 9.6 3 10.5 15.3-3.5 17.6-10.5q-4.1 13.4 0 14.3"/><path class="c" d="m328.7 162.9c4.5 1.3 5.8-4.8 2.3-4.8q-3 0-4.6 6l3.3-11.9"/><path class="c" d="m618.2 339.7l-15.4-16.8 7.1-25.3"/><path class="c" d="m618.6 307.9l17.5 14.7"/><path class="c" d="m630.7 304.3l-7.6 18.6"/><path class="c" d="m643 320.5q0.2 5.3-2.1 6"/><path class="c" d="m645.2 302.1l10.6 7.9"/><path class="c" d="m659.7 295.6l-10.4 37.6"/><path class="c" d="m660.2 282.6l17 19.2-7.2 21"/><path class="c" d="m193.2 778l24.5-73 29.8 33.2z"/><path class="c" d="m240.2 743.5l-6.3-7.1 6.7-5.8"/><circle class="c" cx="38.5" cy="344.6" r="25"/><circle class="c" cx="66.3" cy="322.7" r="27.7"/><path class="c" d="m43.5 320.1l-3.4 11.7"/><path class="c" d="m48.2 321.5l-4.7 17"/><path class="c" d="m53.3 324.4l-5.1 19.1"/><path class="c" d="m58.8 330l-3.5 18.2"/><path class="c" d="m62 335.9l-3.2 13.5"/><path class="c" d="m14.7 312.6c-2.2-0.7-8.2 5-3.6 8.8 4.7 3.8 5.9-6.4 4.7-10.3q2.4 7.4 4.5 6.5"/><path class="c" d="m55.9 291.8c5.7-3 1.2-10.1-2.2-6.8q-2.8 2.8 1.2 10.1l-8-14.6"/><path class="c" d="m193.1 278.8l11.3 10.7"/><path class="c" d="m204.4 276l-9.5 14.1"/><path class="c" d="m215.5 280l11.3-4.2"/><path class="c" d="m232.2 264l6.9 6.1"/><path class="c" d="m244.4 256.7l-8.7 29.9"/><path class="c" d="m738.3 250.7l-0.5-22.8h17.3q-9.6 5.3-5.2 17.5 4.4 12.3 11.5 5.3"/><path class="c" d="m709 640.3l19.7-13.5 26 1.8 1.6 33-19.1 13.7-23.5-1.8z"/><path class="c" d="m713.7 673.5l19-13.6 23.6 1.7"/><path class="c" d="m732.7 659.9l-4-33.1"/><path class="c" d="m754.7 628.6l-19.7 14.7-26-3"/><path class="c" d="m735 643.3l2.2 32"/><path class="c" d="m750.3 419.2l-38.5 17.5 0.8-43.9z"/><path class="c" d="m712.6 392.8l18.4 35"/><path class="c" d="m728 422.1l4.5-2.1 3 6"/><path class="c" d="m376.9 388.6l16 17.1"/><path class="c" d="m393 386.3l-13.4 18.3"/><path class="c" d="m407.4 388.6h-8.9q6.3-5 5.5-8.8-0.8-3.9-4.5-2.4"/><path class="c" d="m129.1 133c1.6-20.4 13.6-37.5 30.5-46.5"/><path class="c" d="m173.3 194c-14.9-3.6-27.4-12.8-35.3-25.2"/><path class="c" d="m244.6 142.2c-2.5 31.9-30.5 55.7-62.4 53.2"/><path class="c" d="m191.4 79.9c27.7 2.2 49.3 23.4 52.9 49.8"/><path class="c" d="m211.8 182.2c-8.5 4.8-18.5 7.2-29 6.4-28.2-2.3-49.2-26.9-46.9-55.1"/><path class="c" d="m139.1 119.2c7.9-20.6 28.7-34.4 51.8-32.5 28.1 2.2 49.1 26.8 46.9 55-0.9 11.6-5.6 21.9-12.8 30"/><path class="c" d="m215.1 128.8l-28.3 8.8-5-36.8"/><path class="c" d="m627.8 209.1c-16.7 0.2-32.4-10.1-38.2-26.8-5.5-15.6-0.7-32.4 10.8-43"/><path class="c" d="m665.4 182c-3.8 11.2-12.6 20.6-24.7 24.9"/><path class="c" d="m614.1 131.2c20.9-7.4 43.8 3.6 51.2 24.5"/><path class="c" d="m647.2 139.7c6.1 4.1 11 10.1 13.6 17.6 6.5 18.4-3.2 38.6-21.6 45.1-13.9 4.9-28.7 0.6-38-9.6"/><path class="c" d="m594 180.8c-6.5-18.5 3.2-38.7 21.7-45.2 6.9-2.4 14-2.6 20.6-0.8"/><path class="c" d="m613.9 147.2l13.5 21.8-12.3 16"/><path class="c" d="m343.9 766.9c0-11.1 5.6-20.9 14.2-26.7"/><path class="c" d="m399.4 789c-5.8 6.2-14.1 10-23.3 10-14.1 0-26.1-9.1-30.5-21.8"/><path class="c" d="m376.1 734.7c17.8 0 32.2 14.4 32.2 32.2"/><path class="c" d="m376.1 795.2c-15.7 0-28.4-12.7-28.4-28.3"/><path class="c" d="m354 749c5.2-6.4 13.2-10.5 22.1-10.5 15.7 0 28.4 12.7 28.4 28.4 0 10.6-5.9 19.9-14.6 24.8"/><path class="c" d="m370 751.1l6.1 15.8-4.4 19.2"/><path class="c" d="m1.4 863.9h809.2"/><g clip-path="url(#cp1)"><g style="opacity:.2"><path class="d" d="m359.9 589.2l-37.7 3.1 11 47.4-100 18 11.8-224.3 105.1 5.5z"/></g><path class="e" d="m412 442.2l-13.2 250.9-167-8.8 1.4-26.6 11.8-224.3 105.1 5.5z"/></g><path class="f" d="m256.8 450.5l43.4 2.3"/><path class="f" d="m256.3 458.9l29.6 1.5"/><path class="f" d="m265.9 479.1l125 6.6"/><path class="f" d="m265.5 487.5l125 6.5"/><path class="f" d="m265 497.2l106.6 5.6"/><path class="c" d="m274.7 516.8l-10.2-0.5 0.5-10.2 10.2 0.5z"/><path class="c" d="m293.1 517.8l-10.2-0.6 0.5-10.1 10.2 0.5z"/><path class="c" d="m311.5 518.7l-10.2-0.5 0.6-10.2 10.1 0.6z"/><path class="c" d="m329.9 519.7l-10.1-0.5 0.5-10.2 10.2 0.5z"/><circle class="g" cx="256.7" cy="478.7" r="2.5"/><path class="f" d="m263.3 527.8l125 6.6"/><path class="f" d="m262.9 536.1l125 6.6"/><path class="f" d="m262.4 545.9l106.6 5.6"/><path class="c" d="m272.1 565.5l-10.2-0.6 0.6-10.1 10.1 0.5z"/><path class="c" d="m290.5 566.4l-10.1-0.5 0.5-10.2 10.2 0.6z"/><path class="c" d="m309 567.4l-10.2-0.5 0.5-10.2 10.2 0.5z"/><path class="c" d="m327.4 568.4l-10.2-0.6 0.5-10.1 10.2 0.5z"/><circle class="g" cx="254.1" cy="527.3" r="2.5"/><path class="f" d="m260.8 576.5l125 6.5"/><path class="f" d="m260.4 584.8l124.9 6.6"/><path class="f" d="m259.8 594.5l106.6 5.6"/><path class="c" d="m269.6 614.1l-10.2-0.5 0.5-10.2 10.2 0.6z"/><path class="c" d="m288 615.1l-10.2-0.5 0.5-10.2 10.2 0.5z"/><path class="c" d="m306.4 616.1l-10.2-0.6 0.6-10.1 10.1 0.5z"/><path class="c" d="m324.8 617l-10.1-0.5 0.5-10.2 10.2 0.6z"/><circle class="g" cx="251.6" cy="576" r="2.5"/><path class="f" d="m258.2 626.5l124.9 6.6"/><path class="f" d="m257.7 634.8l125 6.6"/><path class="f" d="m257.2 644.6l106.6 5.6"/><path class="c" d="m266.9 664.2l-10.2-0.6 0.6-10.1 10.2 0.5z"/><path class="c" d="m285.3 665.1l-10.1-0.5 0.5-10.2 10.2 0.6z"/><path class="c" d="m303.8 666.1l-10.2-0.5 0.5-10.2 10.2 0.5z"/><path class="c" d="m322.2 667.1l-10.2-0.6 0.6-10.1 10.1 0.5z"/><circle class="g" cx="249" cy="626" r="2.5"/><path class="f" d="m275.2 506.6l-5.4 6-1.3-2.3"/><path class="f" d="m309.5 556.6l-5.4 6-1.3-2.3"/><path class="f" d="m326.7 608l-5.4 6-1.3-2.3"/><path class="f" d="m285.9 653.8l-5.4 6-1.3-2.3"/><g clip-path="url(#cp2)"><g style="opacity:.2"><path class="d" d="m294.8 599.6l-124.6 8.1-30.9-201.5 94.4-26.2z"/></g><path class="e" d="m301 622.1l-161.1 44.8-67.3-242.2 66.7-18.5 94.4-26.2 61.1 219.6z"/></g><path class="f" d="m89.3 437.2l41.9-11.6"/><path class="f" d="m91.5 445.3l28.5-7.9"/><path class="f" d="m107 461.5l120.6-33.5"/><path class="f" d="m109.2 469.5l120.6-33.5"/><path class="f" d="m111.8 478.9l102.9-28.6"/><path class="c" d="m127.3 494.4l-9.8 2.7-2.8-9.8 9.9-2.7z"/><path class="c" d="m145.1 489.5l-9.9 2.7-2.7-9.8 9.8-2.8z"/><path class="c" d="m162.8 484.5l-9.8 2.7-2.7-9.8 9.8-2.7z"/><path class="c" d="m180.6 479.6l-9.8 2.7-2.7-9.8 9.8-2.7z"/><path class="g" d="m100.6 463.2c0.4 1.4-0.4 2.8-1.8 3.2-1.3 0.4-2.7-0.4-3.1-1.8-0.4-1.3 0.4-2.8 1.7-3.1 1.4-0.4 2.8 0.4 3.2 1.7z"/><path class="f" d="m120 508.4l120.6-33.5"/><path class="f" d="m122.3 516.5l120.6-33.6"/><path class="f" d="m124.9 525.8l102.8-28.5"/><path class="c" d="m140.3 541.3l-9.8 2.8-2.7-9.9 9.8-2.7z"/><path class="c" d="m158.1 536.4l-9.8 2.7-2.7-9.8 9.8-2.7z"/><path class="c" d="m175.9 531.5l-9.8 2.7-2.8-9.8 9.9-2.8z"/><path class="c" d="m193.7 526.5l-9.9 2.7-2.7-9.8 9.8-2.7z"/><path class="g" d="m113.6 510.2c0.4 1.3-0.4 2.8-1.7 3.1-1.4 0.4-2.8-0.4-3.2-1.7-0.4-1.4 0.4-2.8 1.8-3.2 1.3-0.4 2.8 0.4 3.1 1.8z"/><path class="f" d="m133.1 555.4l120.6-33.6"/><path class="f" d="m135.3 563.4l120.6-33.5"/><path class="f" d="m137.9 572.8l102.9-28.6"/><path class="c" d="m153.4 588.3l-9.8 2.7-2.8-9.8 9.8-2.7z"/><path class="c" d="m171.2 583.3l-9.9 2.8-2.7-9.8 9.8-2.8z"/><path class="c" d="m188.9 578.4l-9.8 2.7-2.7-9.8 9.8-2.7z"/><path class="c" d="m206.7 573.5l-9.8 2.7-2.7-9.8 9.8-2.7z"/><path class="g" d="m126.7 557.1c0.4 1.4-0.4 2.8-1.8 3.2-1.4 0.4-2.8-0.4-3.1-1.8-0.4-1.4 0.4-2.8 1.7-3.1 1.4-0.4 2.8 0.4 3.2 1.7z"/><path class="f" d="m146.5 603.6l120.6-33.5"/><path class="f" d="m148.7 611.7l120.6-33.5"/><path class="f" d="m151.4 621.1l102.8-28.6"/><path class="c" d="m166.8 636.6l-9.8 2.7-2.8-9.8 9.9-2.7z"/><path class="c" d="m184.6 631.6l-9.8 2.8-2.8-9.9 9.8-2.7z"/><path class="c" d="m202.3 626.7l-9.8 2.7-2.7-9.8 9.8-2.7z"/><path class="c" d="m220.1 621.8l-9.8 2.7-2.7-9.8 9.8-2.8z"/><path class="g" d="m140.1 605.4c0.4 1.4-0.4 2.8-1.8 3.2-1.3 0.3-2.7-0.5-3.1-1.8-0.4-1.4 0.4-2.8 1.8-3.1 1.3-0.4 2.7 0.4 3.1 1.7z"/><path class="f" d="m141.3 479.9l-3.2 7.4-2-1.7"/><path class="f" d="m136.5 532.3l-3.3 7.4-1.9-1.8"/><path class="f" d="m149.5 578.7l-3.2 7.4-2-1.7"/><path class="f" d="m198.5 616.8l-3.3 7.4-2-1.7"/><path class="e" d="m340.8 574.2l-166.5 16-24-250.2 166.5-15.9z"/><path class="f" d="m164.5 355.3l43.3-4.2"/><path class="f" d="m165.3 363.6l29.5-2.8"/><path class="f" d="m177.7 382.2l124.6-12"/><path class="f" d="m178.5 390.5l124.6-11.9"/><path class="f" d="m179.5 400.2l106.2-10.2"/><path class="c" d="m192 418.2l-10.2 1-0.9-10.2 10.1-1z"/><path class="c" d="m210.3 416.4l-10.1 1-1-10.2 10.2-0.9z"/><path class="c" d="m228.7 414.6l-10.1 1-1-10.1 10.1-1z"/><path class="c" d="m247.1 412.9l-10.2 1-0.9-10.2 10.1-1z"/><circle class="g" cx="168.6" cy="383.1" r="2.5"/><path class="f" d="m182.4 430.7l124.6-11.9"/><path class="f" d="m183.2 439l124.6-11.9"/><path class="f" d="m184.1 448.7l106.3-10.2"/><path class="c" d="m196.6 466.7l-10.1 1-1-10.2 10.2-1z"/><path class="c" d="m215 464.9l-10.1 1-1-10.2 10.1-0.9z"/><path class="c" d="m233.4 463.2l-10.2 0.9-1-10.1 10.2-1z"/><path class="c" d="m251.7 461.4l-10.1 1-1-10.2 10.2-1z"/><circle class="g" cx="173.2" cy="431.6" r="2.5"/><path class="f" d="m187.1 479.2l124.5-11.9"/><path class="f" d="m187.9 487.5l124.5-11.9"/><path class="f" d="m188.8 497.2l106.3-10.2"/><path class="c" d="m201.3 515.2l-10.2 1-0.9-10.2 10.1-1z"/><path class="c" d="m219.7 513.4l-10.2 1-1-10.1 10.2-1z"/><path class="c" d="m238 511.7l-10.1 0.9-1-10.1 10.1-1z"/><path class="c" d="m256.4 509.9l-10.2 1-0.9-10.2 10.1-1z"/><circle class="g" cx="177.9" cy="480.1" r="2.5"/><path class="f" d="m191.9 529.1l124.5-12"/><path class="f" d="m192.7 537.4l124.5-11.9"/><path class="f" d="m193.6 547.1l106.2-10.2"/><path class="c" d="m206.1 565.1l-10.2 0.9-0.9-10.1 10.1-1z"/><path class="c" d="m224.4 563.3l-10.1 1-1-10.2 10.2-0.9z"/><path class="c" d="m242.8 561.5l-10.1 1-1-10.1 10.1-1z"/><path class="c" d="m261.2 559.8l-10.2 1-0.9-10.2 10.1-1z"/><circle class="g" cx="182.7" cy="530" r="2.5"/><path class="f" d="m191 408l-4.5 6.8-1.6-2.1"/><path class="f" d="m232.3 452.4l-4.4 6.7-1.7-2"/><path class="f" d="m218.7 503.7l-4.5 6.7-1.6-2.1"/><path class="f" d="m260 549.7l-4.5 6.7-1.6-2.1"/><path class="e" d="m534.1 239.2v88.7c0 7.6-6.2 13.8-13.8 13.8h-37.9l6.6 31.6-26.2-31.6h-45.8c-7.6 0-13.8-6.2-13.8-13.8v-88.7c0-7.6 6.2-13.8 13.8-13.8h103.3c7.6 0 13.8 6.2 13.8 13.8z"/><path fill-rule="evenodd" class="h" d="m469.9 274.8q-0.7 2.2-1.8 4.2l4.6 5.4-6.7 6.6-5.4-4.5q-2 1.1-4.2 1.7l-0.6 7.1h-9.4l-0.6-7.1q-2.3-0.6-4.2-1.7l-5.4 4.5-6.7-6.6 4.6-5.4q-1.2-2-1.8-4.2l-7-0.7v-9.4l7-0.6q0.6-2.2 1.8-4.2l-4.6-5.4 6.7-6.6 5.4 4.5q1.9-1.1 4.2-1.7l0.6-7.1h9.4l0.6 7.1q2.2 0.6 4.2 1.7l5.4-4.5 6.7 6.6-4.6 5.4q1.1 2 1.8 4.2l7 0.6v9.4zm-7.9-5.3c0-6-4.8-10.9-10.9-10.9-6 0-10.9 4.9-10.9 10.9 0 6.1 4.9 11 10.9 11 6.1 0 10.9-4.9 10.9-11z"/><path fill-rule="evenodd" class="i" d="m503 295.6q-0.5 1.6-1.3 3l3.3 3.8-4.7 4.7-3.9-3.2q-1.4 0.8-3 1.2l-0.4 5.1h-6.7l-0.4-5.1q-1.6-0.4-3.1-1.2l-3.8 3.2-4.7-4.7 3.2-3.8q-0.8-1.4-1.2-3l-5-0.5v-6.7l5-0.4q0.4-1.6 1.2-3l-3.2-3.8 4.7-4.8 3.8 3.3q1.5-0.8 3.1-1.3l0.4-5h6.7l0.4 5q1.6 0.5 3 1.3l3.9-3.3 4.7 4.8-3.3 3.8q0.8 1.4 1.3 3l5 0.4v6.7zm-5.6-3.7c0-4.3-3.5-7.8-7.8-7.8-4.3 0-7.7 3.5-7.7 7.8 0 4.2 3.4 7.7 7.7 7.7 4.3 0 7.8-3.5 7.8-7.7z"/><path fill-rule="evenodd" class="j" d="m471.7 311q-0.3 1.1-0.9 2.2l2.3 2.7-3.3 3.4-2.8-2.3q-1 0.5-2.1 0.8l-0.3 3.6h-4.8l-0.3-3.6q-1.1-0.3-2.1-0.8l-2.8 2.3-3.3-3.4 2.3-2.7q-0.6-1.1-0.9-2.2l-3.6-0.3v-4.7l3.6-0.4q0.3-1.1 0.9-2.1l-2.3-2.7 3.3-3.4 2.8 2.3q1-0.6 2.1-0.9l0.3-3.5h4.8l0.3 3.5q1.1 0.3 2.1 0.9l2.8-2.3 3.3 3.4-2.3 2.7q0.6 1 0.9 2.1l3.6 0.4v4.7zm-4-2.7c0-3-2.5-5.5-5.5-5.5-3.1 0-5.6 2.5-5.6 5.5 0 3.1 2.5 5.6 5.6 5.6 3 0 5.5-2.5 5.5-5.6z"/><path class="k" d="m477.9 566.7l80.6 297.2h-12.1l-80.5-297.2z"/><path class="l" d="m647.3 792.1h-152.7v-12.4h152.7z"/><path class="k" d="m728.8 500l-98.7 363.9h-12l98.6-363.9c3.6-13.4-4.7-24.4-18.6-24.4h-85c-13.9 0-28.2 11-31.8 24.4l-98.6 363.9h-12.1l98.6-363.9c5.4-19.9 26.5-36 47-36h85.1c20.5 0 32.8 16.1 27.5 36z"/><g clip-path="url(#cp3)"><g style="opacity:.2"><path class="d" d="m730.3 500.1l-24.5 90.4c-2 7.4-9.9 13.5-17.6 13.5h-139.7c-7.7 0-12.3-6.1-10.3-13.5l24.5-90.4c2-7.4 9.9-13.5 17.6-13.5h72.3c31.2 32.1 27.2 91 25.2 108.8 6.4-1.5 12.2-6.8 13.9-13.1l24.5-90.3c0.5-1.9 0.6-3.8 0.3-5.4h3.5c7.7 0 12.3 6.1 10.3 13.5z"/></g><path class="m" d="m730.3 500.1l-24.5 90.4c-2 7.4-9.9 13.5-17.6 13.5h-139.7c-7.7 0-12.3-6.1-10.3-13.5l24.5-90.4c2-7.4 9.9-13.5 17.6-13.5h139.7c7.7 0 12.3 6.1 10.3 13.5z"/></g><path class="k" d="m660.3 695.4l45.6 168.5h-12l-45.7-168.5z"/><g clip-path="url(#cp4)"><g style="opacity:.2"><path class="d" d="m659.9 672.9c-5.8 6.8-16.3 13.8-34.2 19.7h-145.2v-16.5c0-6.7 5.4-12.1 12.1-12.1h155.6c5.6 0 10.3 3.7 11.7 8.9z"/></g><path class="m" d="m660.3 676.1v16.5h-179.8v-16.5c0-6.7 5.4-12.1 12.1-12.1h155.6c5.6 0 10.3 3.7 11.7 8.9q0.4 1.5 0.4 3.2z"/></g><rect class="l" x="472.5" y="687.5" width="197.3" height="15.5" rx="3.4"></rect><g clip-path="url(#cp5)"><path class="n" d="m507.8 834.8c-4.6 4-11.3 5.9-17.7 6.7-11.6-43.2-41.2-158.5-29.9-172.6q13.8-17.4 82.2-33.2 0.3-8.9 24.2-16.9l25.5 38.2c-35 4.5-101.6 15-117.5 31.1q-8.6 8.8 33.2 146.7z"/><path class="o" d="m474.6 688.1q-8.6 8.8 33.2 146.7c-4.6 4-11.3 5.9-17.7 6.7q-9.2 1.2-17.6 0.3-59.9-145.3-43.4-181.3 16.5-36.1 118.8-52.6l4.3-10.8 52.9-7.4 8.8 64.8q-8.7 0.8-21.8 2.5c-35 4.5-101.6 15-117.5 31.1z"/></g><g clip-path="url(#cp6)"><g style="opacity:.2"><path class="d" d="m445 557.4q-8.8-1.5 53.7-56.3l30.2 20.3q-51.3 36.1-59.4 37.1-8 1-24.5-1.1z"/></g><path class="e" d="m445 557.4q-8.8-1.5 53.7-56.3l30.2 20.3q-51.3 36.1-59.4 37.1-8 1-24.5-1.1z"/></g><path class="e" d="m456 534.4q13.1 3.2 17.2 6 4 2.8 2.8 12.7-17.5-5-20-18.7z"/><path class="p" d="m451.7 507l23.2 49h-2.9l-24.4-46.7z"/><path class="e" d="m477.5 555.3q-3.8 1.5-5.9 0.4-2-1.1-9.1-8.5 4.7 6.8 2.3 9.6c-4.8 5.7-29.3 2-29.3-4.7 0-6.7 11.2-20 15-20q3.7 0 19.1 11 2.7 4.1 7.9 12.2z"/><path class="c" d="m462.5 558.4q-5.9-7.6-12.9-11.2"/><path class="c" d="m462.5 547.2q-5.4-4.7-8.9-5.7"/><path class="c" d="m445.7 553.1q8.6 4.5 10.8 6.4"/><path class="q" d="m545.5 521.4l-39.3 19.1q-14.5-2.7-31-21.6 35.3-36.3 43.1-41.7z"/><path class="r" d="m545.5 521.4l-39.3 19.1q-14.5-2.7-31-21.6 35.3-36.3 43.1-41.7z"/><g clip-path="url(#cp7)"><path class="n" d="m499.3 820.2l16.7 43.7q2.7 11.3-47.5 7.7l-27.7-2.4z"/><path class="s" d="m499.3 820.2l16.7 43.7q2.7 11.3-47.5 7.7l-27.7-2.4z"/></g><path class="s" d="m493 841.1q3.6 17.1 0 29.7-53 8.3-64.9 5.2c-11.8-3.2-19-9.1-19.4-12.1q0.4-8.1 12.3-10.5c11.9-2.4 35.5-3.9 44.9-17.4q9.3-13.5 27.1 5.1z"/><path class="o" d="m563 595.4q16.9-24.1 94.8 5 7.4 58.1-23.6 73.6c-31 15.5-75.7 14.7-87.8 27.3l-49.2 145.2q-17.6 7.3-43.3-4.3 31.2-109.6 40.4-148.5 9-38.5 67.7-64.7-4.9-5.6-6.8-12.1"/><path class="t" d="m641.8 651q-3.7 3.4-7.8 6.2"/><path class="t" d="m648.2 601.8c6.4 13.8 6.9 31.3-2 44.1"/><path class="t" d="m652.9 625.2q-14.6-2.2-19.3-6.4-4.8-4.2-3.1-14.8"/><path class="t" d="m566.6 604.5q0.7 10.6-3.6 10.1-4.3-0.5-4.5 4.2"/><path class="q" d="m519.4 485.3c-0.7-2.8-1.1-5.6-1.1-8.1q24.1-20.3 54.9-20.2c36.8 0.2 59.3 11.7 68.3 27.8q14.3 25.5 16.3 115.6-92.3 14.2-105.6-3.3-2.3-3-0.5-24.5-10.4-27.1-12.5-48.1-4-5.4-8.5-13c-3-5.1-6.1-11.1-8.5-17.2"/><path class="u" d="m519.4 485.3c-0.7-2.8-1.1-5.6-1.1-8.1q24.1-20.3 54.9-20.2c36.8 0.2 59.3 11.7 68.3 27.8q14.3 25.5 16.3 115.6-92.3 14.2-105.6-3.3-2.3-3-0.5-24.5-10.4-27.1-12.5-48.1-4-5.4-8.5-13c-3-5.1-6.1-11.1-8.5-17.2"/><path class="c" d="m554.7 507q14.1 54.7 11.9 66.7-1 6 2.1 12.2-6.4 6.3-2.1 14.7"/><path class="c" d="m592.1 552.2c-2.7-0.2-5.2-0.9-7.1-2.2l-4.1-18.3q12.9 1.4 24.7-1.8l4.5 20.1q-3.3 1-7.7 1.7"/><path class="q" d="m544.7 514.1q-11.9-51.1 18.3-57.1c30.2-5.9 36.5 8.2 34.7 17.8q-2.4 12.8-27.5 44.1l-15.5-11.9z"/><path class="v" d="m544.7 514.1q-11.9-51.1 18.3-57.1c30.2-5.9 36.5 8.2 34.7 17.8q-2.4 12.8-27.5 44.1l-15.5-11.9z"/><path class="t" d="m554.7 624q2.6 4.8 14 8.3-44.2 17-63.7 39.6"/><path class="t" d="m482 741.1l-17.9 64.9"/><path class="q" d="m638.6 552.3q13.4 3.7 22.5 14-32.9 1.2-41-12.3 5-5.3 18.5-1.7z"/><path class="e" d="m492.3 559.4q7.7-11.8 14.7-14.2c7-2.4 27.5-2.6 30.7-2.7 3.2 0 59.7 14.3 86.2 23.2l-2.3-44.3 35.6 2.8q-1.4 54-6.9 68.3c-5.6 14.3-13.5 10.8-27.1 5-53.2-22.9-84.4-38.9-87.3-38.1q-2.9 0.9-43.6 0z"/><path class="q" d="m615 488.9c3.8-8.8 10.4-15.6 17.7-13.8q11.6 2.5 22.7 24.8 11.2 22.3 5.7 66.4-7.7-7.6-41-12.3-6.7-33.2-8.3-47.1c-0.4-3.4 0-7.3 0.9-11.2"/><g style="opacity:.4"><path class="e" d="m615 488.9c3.8-8.8 10.4-15.6 17.7-13.8q11.6 2.5 22.7 24.8 11.2 22.3 5.7 66.4-7.7-7.6-41-12.3-6.7-33.2-8.3-47.1c-0.4-3.4 0-7.3 0.9-11.2"/></g><path class="c" d="m515.1 512.8q6.5 5.9 17 8.6"/><path class="c" d="m620.1 512.8q12.1 22.7 27.2 27.7"/><path class="t" d="m542.4 687.5q2.2 1.7 3.1 7.7"/><path class="t" d="m534.2 695.2q6.1 0.4 9.7 5.7"/><path class="t" d="m468 671.9q6.4 3.2 5 12.4"/><path class="t" d="m461.3 679.8q8.7 5.2 9.3 9.8"/><path class="t" d="m562.6 623.8q19.4 2.8 23.8 0"/><g clip-path="url(#cp8)"><g style="opacity:.2"><path class="d" d="m552.7 489.9q0.1-2.4 0.5-5.1l-3.4-5.3c5.6-1.1 11.6-3.6 15.7-8.8q1 13.9-12.8 19.2z"/></g><path class="e" d="m554.7 504.8q-2.5-5.9-2-14.9 0.1-2.4 0.5-5.1l-3.4-5.3-4.3-6.9 5-20.1q32 6.1 34.4 15 2.4 9-30.2 37.3z"/></g><path class="e" d="m565.1 470.7c-7.7 8.3-18.2 16-26.3 15.5-6.8-0.5-11.5-8.2-17.2-12.8-14.1-11.2-4.1-11.7-13.6-26.8-9.4-15.1-6.1-49.1 22.2-54.1 48-8.5 54.5 35.7 44.6 61.7"/><path class="c" d="m527.5 446.6q7.1-6.4 15.5-3.8"/><path class="c" d="m514.2 446.6q-2.4-5.1-9.1-6.2"/><path class="e" d="m524.5 467.9c0.5 0.8-9.2 3.5-7.9-1.6q1.3-5.2 2.3-10.4"/><path class="c" d="m529.6 474.5q6.2-1.4 10.5-6.9"/><path class="g" d="m537.4 453.2c0.3 1.5-0.3 2.9-1.4 3.2-1.1 0.3-2.4-0.6-2.8-2.1-0.4-1.4 0.2-2.9 1.4-3.2 1.1-0.3 2.4 0.6 2.8 2.1z"/><path class="g" d="m515.9 452.8c0.4 1.4 0.2 2.8-0.6 3-0.8 0.2-1.7-0.8-2.1-2.3-0.4-1.5-0.1-2.8 0.7-3 0.7-0.2 1.7 0.8 2 2.3z"/><path class="o" d="m545.2 419.8q-7.4 19.5-25.8 19.1 6.3-4.9 8.1-9.5-14.2 14-28.3 6.8c-14.2-7.1-7.3-40.2 14.5-53.3 21.8-13.1 43.9-9.6 51.4 2.9q15.2-1.4 21.9 21c6 19.9-3.6 50.3-13 50.6q-14.5 0.6-17.4-15.2-8.7-7.8-11.4-22.4z"/><path class="e" d="m561.1 454.3q-0.4-18.3 10-16.1c10.4 2.2 2.9 23.4-5 23.2"/><rect class="m" x="364.3" y="557.4" width="167.8" height="12.1" rx="3.3"></rect><path class="o" d="m122.5 863.9h-53.8l-7.1-62.2h68z"/><path class="m" d="m137.6 758.4q-29.7 2.4-30.9 24.3 30.1 13.8 30.9-24.3z"/><path class="m" d="m78.9 763.9q-16.6-22.5-43.4-11 16.3 27.2 43.4 11z"/><path class="m" d="m37.7 693q-4.7 43.2 34.6 31.3-12.5-31.7-34.6-31.3z"/><path class="m" d="m86 669q-31.1 16.8-8.2 42.2 21.7-18.2 8.2-42.2z"/><path class="m" d="m124.2 707.6q-33.8-3.4-33.8 27.8 33.8 1.4 33.8-27.8z"/><path class="c" d="m80.9 681.9c-7.7 19.5-2.7 47.3 12.1 80.2q14.8 32.9-0.6 65.2"/><path class="c" d="m113.1 716q-20.2 8-27.1 28.9"/><path class="c" d="m48.4 710.3q11.7 15.9 31.5 14.2"/><path class="c" d="m48.4 757.5q32.4 9.4 45.3 6.3"/><path class="c" d="m128 768.3q-14.5 15.9-29.1 15.7"/><path class="o" d="m58.6 800.4h73.9v8.7h-73.9z"/><g clip-path="url(#cp9)"><g style="opacity:.5"><path class="w" d="m657.6 785.3c-31.5 17.8-46.1 71.3-42.9 73.7 3.3 2.3 11 0.9 17 0.9q5.9 0 40.6-18.5l4.2 8.1-39.7 13.6-20.6 0.8c-21.7-5.2-7.7-46.5 9.9-75.9q17.6-29.4 42.4-44.1 20.5 23.6-10.9 41.4z"/></g><path class="q" d="m657.6 785.3c-31.5 17.8-46.1 71.3-42.9 73.7 3.3 2.3 11 0.9 17 0.9q5.9 0 40.6-18.5l4.2 8.1-39.7 13.6-20.6 0.8c-21.7-5.2-7.7-46.5 9.9-75.9q17.6-29.4 42.4-44.1 20.5 23.6-10.9 41.4z"/></g><path class="q" d="m691.1 724.7q0-8.6 13-9.8 13.1-1.2 14.9 11.4h-4.5q0.1-7.5-9.5-8.1-9.6-0.6-9.2 8.1z"/><g clip-path="url(#cp10)"><g style="opacity:.2"><path class="w" d="m671.7 863.9c-27.6 0-22.3-123.9-19.2-130 3.2-6.2 83.4-9.2 91.3-6.6 7.8 2.6 39.5 126 22.1 135.8z"/></g><path class="q" d="m671.7 863.9c-27.6 0-22.3-123.9-19.2-130 3.2-6.2 83.4-9.2 91.3-6.6 7.8 2.6 39.5 126 22.1 135.8z"/></g><path class="q" d="m702.6 722.9c28.7 3.2 36-3.5 46.2 3.4 10.2 7 24.2 52.5 17.1 60.6-7.2 8.1-70.7 10.3-84.1 0-13.5-10.4-19.3-50.9-29.3-53q7.6-15.7 50.1-11z"/><g clip-path="url(#cp11)"><g style="opacity:.2"><path class="w" d="m725.4 757.2l11.7 9.6c0.7 0.5 0.8 1.6 0.2 2.2l-9.2 9.9c-0.5 0.7-1.5 0.7-2.2 0.1l-11.6-11.1c-0.7-0.6-0.7-1.6 0-2.3l9-8.4c0.6-0.5 1.5-0.5 2.1 0z"/></g><path class="q" d="m725.4 757.2l11.7 9.6c0.7 0.5 0.8 1.6 0.2 2.2l-9.2 9.9c-0.5 0.7-1.5 0.7-2.2 0.1l-11.6-11.1c-0.7-0.6-0.7-1.6 0-2.3l9-8.4c0.6-0.5 1.5-0.5 2.1 0z"/></g><g clip-path="url(#cp12)"><g style="opacity:.4"><path class="w" d="m686.6 807.6q53.2 4.4 79.3-2.4 5.1 3.6 7.4 10.7c2.4 7.1 7.4 31.5-7.4 37.7-14.8 6.3-68 5.1-75.1-2.1q-7.2-7.1-4.2-43.9z"/></g><path class="q" d="m686.6 807.6q53.2 4.4 79.3-2.4 5.1 3.6 7.4 10.7c2.4 7.1 7.4 31.5-7.4 37.7-14.8 6.3-68 5.1-75.1-2.1q-7.2-7.1-4.2-43.9z"/></g><path class="q" d="m765.9 805.2c7.3 0.6 17.8 11.9 10.2 18.1-7.7 6.3-76.7 6.3-80 3.7q-3.3-2.6-9.5-19.4 30.9 3.2 79.3-2.4z"/><g clip-path="url(#cp13)"><g style="opacity:.4"><path class="d" d="m664.3 804q1.8 35.4 5.4 43.4-8.2 4.7-17.2 0c-9-4.8-7.5-35.2-5.7-35.1q1.8 0 17.5-8.3z"/></g><path class="q" d="m664.3 804q1.8 35.4 5.4 43.4-8.2 4.7-17.2 0c-9-4.8-7.5-35.2-5.7-35.1q1.8 0 17.5-8.3z"/></g><path class="q" d="m643.8 819.8q-5.6-3.3 7.1-13.1l13.4-2.7c-0.3 11-14.8 19-20.5 15.8z"/></svg>