<svg version="1.2" xmlns="http://www.w3.org/2000/svg" viewBox="0 0 2966 1863" width="2966" height="1863"><defs><clipPath clipPathUnits="userSpaceOnUse" id="cp1"><path d="m2947.75 1594.05c0 101.73-655.79 184.19-1464.75 184.19-808.96 0-1464.75-82.46-1464.75-184.19 0-101.72-207.34-1658.25 1464.75-1658.25 1672.09 0 1464.75 1556.53 1464.75 1658.25z"/></clipPath></defs><style>.a{fill:#6b184e}.b{fill:#000072}.c{fill:#8e8fb3}.d{fill:#fff}.e{fill:#f27e80}.f{fill:#ff5c64}.g{fill:#ff0068}</style><path class="a" d="m2947.7 1594.1c0 101.7-655.7 184.1-1464.7 184.1-809 0-1464.7-82.4-1464.7-184.1 0-101.8 655.7-184.2 1464.7-184.2 809 0 1464.7 82.4 1464.7 184.2z"/><path class="b" d="m2947.7 1594.1c0 101.7-655.7 184.1-1464.7 184.1-809 0-1464.7-82.4-1464.7-184.1 0-101.8 655.7-184.2 1464.7-184.2 809 0 1464.7 82.4 1464.7 184.2z"/><path fill-rule="evenodd" class="b" d="m1483 1796.2c-392 0-760.6-19.3-1038-54.1-135.5-17.1-242-37-316.7-59.2-87.3-25.9-128-54.2-128-88.8 0-34.7 40.7-63 128-88.9 74.7-22.2 181.2-42.1 316.7-59.2 277.4-34.8 646-54 1038-54 392 0 760.6 19.2 1038 54 135.5 17.1 242 37 316.7 59.2 87.3 25.9 128 54.2 128 88.9 0 34.6-40.7 62.9-128 88.8-74.7 22.2-181.2 42.1-316.7 59.2-277.4 34.8-646 54.1-1038 54.1zm0-368.4c-390.5 0-757.6 19.1-1033.5 53.8-326.9 41.1-413.3 91.5-413.3 112.5 0 20.9 86.4 71.3 413.3 112.4 275.9 34.7 643 53.8 1033.5 53.8 390.5 0 757.6-19.1 1033.5-53.8 326.9-41.1 413.3-91.5 413.3-112.4 0-21-86.4-71.4-413.3-112.5-275.9-34.7-643-53.8-1033.5-53.8z"/><g clip-path="url(#cp1)"><path class="c" d="m2341.4 1334.1c-39 389.4-502.3 439.1-720.6 482.5h-275.6c-141.1-28.1-384.5-58.7-549.6-182.1-39.9-29.8-75.1-64.9-103.3-106.8-20.1-29.8-36.6-63-48.5-100.1-8.1-25.2-14.1-52-17.7-80.9q-2.1-16.4-3.2-33.7c-2-33.7-0.9-69.9 3.6-108.6 4-33.6 29.7-148.6 64.8-261.3 11.9-38.3 24.9-76.4 38.5-110.9-49.8-221.2-70.1-499.7 4.8-595.7 48.7-62.4 180.5 0.2 380.2 171.4 142.7-62.9 338.2-66.5 368.2-66.4 30-0.1 225.6 3.5 368.2 66.4 199.7-171.2 331.5-233.8 380.2-171.4 74.9 96 54.6 374.5 4.8 595.7 53.5 135.8 98 327.1 103.2 372.2 5.6 46.9 6 90.1 2 129.7z"/><g style="opacity:.5"><path class="d" d="m2280.3 495.2c-2.4-88.4-17.1-162.3-48.9-203.1-48.7-62.4-180.5 0.2-380.2 171.3-142.6-62.8-338.2-66.5-368.2-66.3-30-0.2-225.5 3.5-368.2 66.3-199.7-171.1-331.5-233.7-380.2-171.3-31.8 40.8-46.5 114.7-48.9 203.1-2.8-112.6 10.6-209.6 48.9-258.7 48.7-62.4 180.5 0.2 380.2 171.4 142.7-62.9 338.2-66.5 368.2-66.4 30-0.1 225.6 3.5 368.2 66.4 199.7-171.2 331.5-233.8 380.2-171.4 38.3 49.1 51.7 146.1 48.9 258.7z"/></g><path class="d" d="m2341.4 1334.1c-39 389.4-502.3 439.1-720.6 482.5h-275.6c-141.1-28.1-384.5-58.7-549.6-182.1-39.9-29.8-75.1-64.9-103.3-106.8-20.1-29.8-36.6-63-48.5-100.1-8.1-25.2-14.1-52-17.7-80.9 337.3 289.7 580.8 159.8 689.6-61.5 42.1-85.5 124.9-93.7 160.8-93.7 35.9 0 118.7 8.2 160.7 93.7 110.4 224.4 359.4 354.9 704.2 48.9z"/><g style="opacity:.1"><path class="b" d="m2303.2 1475.7c-123.1 261.3-493.9 303.4-682.4 340.9h-275.6c-141.1-28.1-384.5-58.7-549.6-182.1-39.9-29.8-75.1-64.9-103.3-106.8-11-16.2-20.8-33.4-29.5-51.8 17.8 17.7 37 34.1 57.1 49.1 125.7 94 562.7 141.1 763.1 141.1 200.3 0 691.6-62.2 820.2-190.4z"/></g><path class="b" d="m979.5 797.1c-10.1-15.8 57-156.9 183.5-115.2 45.6 15 49.8 59.4 14.5 68.9-33.6 9-48.8 1.7-100.9 20.1-29.5 10.4-86.9 42-97.1 26.2z"/><path class="b" d="m1889.4 770.9c-52.1-18.4-67.3-11.1-100.9-20.1-35.3-9.5-31.1-53.9 14.5-68.9 126.5-41.7 193.6 99.4 183.5 115.2-10.2 15.8-67.6-15.8-97.1-26.2z"/><path class="e" d="m909 574.7c-61.5 65.5-100.2 157.2-105.6 146.5q-0.8-1.6-1.6-3.7c-11.6-30-30.9-149-30.6-255 0.1-17.1 0.5-32.2 1.4-45.5 2.4-36 7.6-59 13.9-73.7 7.8-18 25.2-23.5 40.7-17.5 41.1 16.3 157.9 93.3 195.9 142.6 6.7 8.7-52.7 40.8-114.1 106.3z"/><path class="f" d="m909 574.7c-61.5 65.5-100.2 157.2-105.6 146.5q-0.8-1.6-1.6-3.7c13.7-55.6 51.5-132.4 80.4-188 39.6-75.8-14.7-136.2-61.7-154.3-16.2-6.2-35.4 20.3-47.9 41.8 2.4-36 7.6-59 13.9-73.7 7.8-18 25.2-23.5 40.7-17.5 41.1 16.3 157.9 93.3 195.9 142.6 6.7 8.7-52.7 40.8-114.1 106.3z"/><path fill-rule="evenodd" class="b" d="m804.9 742.4q-0.6 0-1.1-0.1c-7.8-0.2-14.9-4.8-18.6-11.9-13.7-27-34.6-157.9-34.3-268 0.1-59.4 5.7-101 16.9-127.1 11.7-27.1 39.8-39 66.8-28.4 43.5 17.1 163.1 95.2 204.6 149 5 6.5 10.6 20-7.7 37.6-5.8 5.6-14.2 12.3-24.7 20.7-22 17.5-52.1 41.5-83 74.4-33.9 36.3-61.1 81.5-79 111.4-18.8 31.3-25.4 42.4-39.9 42.4zm-13.4-279.9c-0.2 79.3 10.9 165.1 20.4 213.3 18.8-31.4 46.6-77 82.2-115 33-35.1 65.7-61.1 87.3-78.4 5.4-4.3 11.3-9 15.9-12.9-43.3-46.3-143.5-111.3-177.5-124.7-3.8-1.5-10.7-2.6-14.6 6.6-6.1 14.2-13.5 45-13.7 111.1zm30 249.4z"/><path class="e" d="m1945.1 468.4c38-49.3 154.7-126.3 195.8-142.6 15.5-6 33-0.5 40.8 17.5 6.3 14.7 11.4 37.7 13.8 73.7 0.9 13.3 1.4 28.4 1.4 45.5 0.3 106-18.9 225-30.6 255q-0.7 2.1-1.5 3.7c-5.5 10.7-44.2-81-105.6-146.5-61.5-65.5-120.9-97.6-114.1-106.3z"/><path class="f" d="m1945.1 468.4c38-49.3 154.7-126.3 195.8-142.6 15.5-6 33-0.5 40.8 17.5 6.3 14.7 11.4 37.7 13.8 73.7-12.5-21.5-31.7-48-47.8-41.8-47.1 18.1-101.3 78.5-61.8 154.3 28.9 55.6 66.7 132.4 80.4 188q-0.7 2.1-1.5 3.7c-5.5 10.7-44.2-81-105.6-146.5-61.5-65.5-120.9-97.6-114.1-106.3z"/><path fill-rule="evenodd" class="b" d="m2163.3 742.4c-14.6 0-21.2-11.1-40-42.4-17.9-29.9-45-75.1-79-111.4-30.9-32.9-61-56.9-82.9-74.4-10.6-8.4-18.9-15.1-24.8-20.7-18.3-17.6-12.6-31.1-7.7-37.5 41.6-53.9 161.1-132 204.6-149.1 27-10.6 55.1 1.3 66.8 28.3 11.3 26.2 16.8 67.8 17 127.2 0.3 110.1-20.6 240.9-34.4 268-3.6 7.1-10.7 11.7-18.6 11.9q-0.5 0.1-1 0.1zm-192.5-272.9c4.6 3.9 10.5 8.6 15.9 12.9 21.7 17.3 54.4 43.3 87.3 78.4 35.6 38 63.4 83.6 82.2 115 9.6-48.2 20.6-134 20.4-213.3-0.2-66.1-7.5-96.9-13.6-111.2-4-9.1-10.9-8-14.6-6.5-34.1 13.4-134.2 78.4-177.6 124.7z"/><path class="b" d="m1619.1 1808c59-15.9 118.5-27.7 177.1-41.8 58.7-13.9 116.9-28.9 173.3-48.7 14-5.1 28.1-10.1 41.8-15.9 13.9-5.3 27.3-11.7 40.9-17.7 6.7-3.1 13.3-6.6 19.9-9.9 6.6-3.3 13.3-6.6 19.6-10.3l19.3-10.9c6.4-3.8 12.5-7.9 18.7-11.8l9.3-6c3.1-2 6-4.2 9-6.4l17.8-12.9 17-14c2.7-2.3 5.7-4.5 8.3-7l8-7.6c21.7-19.5 40.2-42.1 57-65.7l11.9-18.3c0.9-1.5 2-3 2.9-4.5l2.5-4.8 5.1-9.6 5.2-9.6c0.8-1.6 1.7-3.2 2.5-4.8l2.1-5 8.5-20.1 2.1-5 1.7-5.1 3.4-10.4c2.1-6.9 4.7-13.7 6.4-20.8l4.9-21.3 2.5-10.6 1.5-10.9 3.2-21.6c0.2-1.9 0.5-3.7 0.7-5.5l0.4-5.5 0.6-10.9 1.4-22c0.1-7.3-0.1-14.7-0.2-22.1l-0.3-22-1.9-22.1-1.9-22.1-1.5-10.5-1.9-10.8c-5.5-29.2-12.3-58.6-19.5-87.9-7.2-29.2-14.9-58.4-23.1-87.4-16.5-58-34.8-115.5-56.5-171.2l-2.1-5.3 1.2-5.6c18.9-84.9 32.5-171.2 39.5-257.8 3.3-43.2 5.1-86.6 3.8-129.6-1.2-42.9-5.2-85.9-15.5-126.2-5.2-20.1-12.5-39.3-22.4-55.7-1.2-2.1-2.6-3.9-3.9-5.8l-2-2.9c-0.7-1-1.4-2-2-2.6-1.3-1.3-2.4-3-3.9-4.1l-2-1.8c-0.7-0.6-1.5-1-2.3-1.6-5.9-4.1-13.1-6.6-21.6-7.4-8.4-0.8-17.8 0-27.2 1.8-9.5 2-19.1 4.7-28.7 8.2-19.3 7-38.2 16.4-56.8 26.7-37.1 20.7-72.7 45.5-107.4 71.5-34.6 26.1-68.3 53.7-101.4 82.1l-9.4 8-11.5-4.9c-27.7-11.9-56.6-21.5-86.1-29.5-29.5-8-59.7-14-90-19.1-30.4-5-61.1-8.7-91.9-11.3-30.7-2.7-61.8-4.3-92.2-4.4-30.4 0.2-61.5 1.8-92.2 4.4-30.8 2.6-61.5 6.4-91.9 11.4-30.3 5.1-60.5 11-90 19.1-29.5 8-58.4 17.6-86.1 29.5l-11.5 4.9-9.5-8c-33.1-28.4-66.8-56-101.4-82.1-34.7-25.9-70.3-50.7-107.4-71.5-18.6-10.3-37.5-19.7-56.7-26.6-9.6-3.6-19.2-6.3-28.7-8.2-9.5-1.9-18.8-2.6-27.2-1.8-8.4 0.8-15.6 3.3-21.5 7.4-0.8 0.5-1.5 1-2.2 1.5l-2.1 1.9c-1.4 1.1-2.5 2.7-3.8 4.1-0.7 0.6-1.3 1.5-2 2.5l-2 2.9c-1.4 1.9-2.8 3.7-3.9 5.8-9.9 16.4-17.2 35.6-22.4 55.6-10.3 40.3-14.3 83.3-15.5 126.2-1.2 43 0.5 86.4 3.9 129.6 6.9 86.5 20.5 172.8 39.4 257.7l1.3 5.7-2.1 5.4c-21.9 55.6-40 113.2-56.5 171.2-8.2 29-15.9 58.2-23.1 87.4-7.1 29.3-14 58.7-19.4 87.9-1.4 7.3-2.6 14.5-3.5 21.3q-1.3 11-2.2 22c-1.2 14.7-2 29.5-2.2 44.2-0.4 29.4 1.5 58.7 6.1 87.5 9.2 57.6 30.3 113 63.4 160.6 32.8 47.8 76.9 87.6 126.3 119.5 49.5 31.9 104.1 56.3 160.3 76.2 56.3 20 114.5 34.8 173.3 48.3l22 5.2 22.1 4.9 44.2 10.2c29.6 6.9 59.2 14 88.6 22.5 4.7 1.4 7.3 6.2 6 10.9-1.2 4.1-5.2 6.7-9.3 6.2h-0.1c-60.3-6.3-120.7-14.3-180.8-26.2-60-11.9-119.6-27.6-177.9-48-58.2-20.5-115.4-45.9-168.1-79.7-52.7-33.7-100.7-76.8-136.8-129.2-36.4-52.1-59.7-113.1-69.7-175.4-5.1-31.2-7.1-62.7-6.8-94 0.2-15.6 1-31.2 2.3-46.8q1-11.6 2.3-23.3c1.1-8.2 2.3-16 3.8-23.6 5.6-30.6 12.5-60.3 19.7-90.1q10.9-44.6 23.3-88.7c16.6-58.9 34.9-117.4 57.4-174.9l-0.9 11.1c-19.4-86.6-33.4-174.3-40.7-262.9-3.5-44.4-5.4-88.9-4.2-133.8 1.2-44.8 5.1-89.9 16.5-134.9 5.8-22.4 13.9-44.9 26.8-66.2 1.4-2.7 3.3-5.3 5.1-7.8l2.8-3.9c0.9-1.3 1.8-2.6 3-4 2.4-2.7 4.6-5.5 7.5-7.9l4.1-3.6c1.4-1.2 2.9-2.2 4.4-3.2 12.2-8.5 26.6-13 40-14.3 13.5-1.3 26.3 0 38.3 2.3 12.1 2.4 23.7 5.7 34.7 9.8 22.1 8 42.7 18.2 62.5 29.1 39.7 22.1 76.4 47.7 112.1 74.2 35.6 26.8 69.9 54.8 103.6 83.5l-21-3.1c29.9-12.9 60.7-23.2 91.7-31.7 31-8.4 62.4-14.7 93.9-20 31.5-5.3 63.2-9.2 94.9-11.9 31.8-2.8 63.4-4.6 95.7-4.7 32.3 0.2 63.9 1.9 95.7 4.7 31.7 2.8 63.4 6.7 94.9 11.9 31.4 5.4 62.8 11.6 93.9 20.1 31 8.5 61.7 18.8 91.7 31.7l-20.9 3.1c33.7-28.7 68-56.7 103.6-83.4 35.7-26.6 72.4-52.2 112-74.2 19.9-11 40.4-21.2 62.6-29.2 11-4 22.5-7.3 34.6-9.7 12-2.3 24.8-3.6 38.3-2.3 13.4 1.3 27.7 5.7 39.8 14.2 1.5 1.1 3.1 2.1 4.5 3.2l4.1 3.7c2.8 2.4 5 5.2 7.4 7.9 1.3 1.3 2.2 2.6 3.1 3.9l2.7 3.9c1.8 2.5 3.7 5.1 5.2 7.8 12.8 21.3 20.9 43.7 26.7 66.2 11.4 44.9 15.3 90.1 16.5 134.8 1.2 44.9-0.7 89.4-4.2 133.8-7.3 88.6-21.4 176.3-40.8 262.9l-0.9-11c22.4 57.5 40.8 116 57.3 174.9 8.4 29.4 16.1 59 23.3 88.7 7.2 29.7 14.1 59.5 19.8 90l2 11.6 1.7 12.1 1.9 23.3 1.9 23.3 0.4 23.4c0 7.9 0.2 15.7 0.1 23.5l-1.5 23.5-0.7 11.8-0.4 5.8c-0.2 2-0.6 3.9-0.8 5.9l-3.4 23.4-1.8 11.7-2.6 11.5-5.4 23.1c-1.9 7.7-4.8 15.1-7.1 22.7l-3.7 11.3-1.9 5.6-2.3 5.5-9.4 21.9-2.3 5.4c-0.9 1.8-1.8 3.6-2.8 5.3l-5.6 10.5-5.6 10.5-2.8 5.3c-1 1.7-2.1 3.3-3.2 5l-13 19.9c-18.4 25.8-38.8 50.4-62.2 71.4l-8.6 8.2c-2.9 2.6-6.1 5-9.1 7.5l-18.2 15-19.1 13.8c-3.2 2.3-6.3 4.6-9.5 6.8l-9.9 6.3c-6.7 4.2-13.2 8.5-19.9 12.5l-20.4 11.4c-6.7 4-13.7 7.4-20.7 10.9-6.9 3.4-13.8 7.1-20.9 10.3-14.1 6.2-28.2 12.9-42.7 18.4-14.3 5.9-28.8 11.1-43.3 16.3-29.2 10-58.6 19.4-88.4 27-14.8 4-29.8 7.4-44.7 11.1-14.9 3.2-29.9 6.5-44.9 9.3-60.1 11.7-120.5 19.9-180.6 27.2h-0.1c-4.8 0.6-9.1-2.8-9.7-7.6-0.6-4.4 2.2-8.4 6.4-9.5z"/><g style="opacity:.1"><path class="b" d="m1632.3 1347q0.1 91-81.4 86.2c-57.6-3.4-69.6-50.9-70.5-54.7-0.9 3.8-12.8 51.3-70.5 54.7q-81.5 4.8-81.4-86.2l151.2-118h1.4z"/></g><path class="d" d="m1631.5 1347.6q-26.6 69.2-88.4 53.1-70.3-18.3-61.7-102.3h-2.6q8.3 84-62.2 102.1-61.8 15.8-88.1-53.5-17.4-155.5 151.2-155.5 168.6 0 151.8 156.1z"/><g style="opacity:.1"><path class="b" d="m1623.6 1363c-12 19.4-37.9 48.8-80.4 37.7q-70.5-18.3-61.8-102.3h-2.6q8.3 84-62.2 102.1c-42.6 10.9-68.3-18.6-80.2-38 11.9 1.1 24.8 0.2 38.9-3.4q116.3-29.9 102.6-143.9h4.3q-14.2 113.9 102 144.3c14.2 3.7 27.4 4.7 39.4 3.5z"/></g><path class="b" d="m1338 1343.4c2.1 3.4 4.8 7.6 7.5 11.2 2.6 3.7 5.6 7.2 8.6 10.5 6 6.6 12.7 12.1 19.8 15.8 7 3.9 14.4 5.8 21.9 6.4 3.9-0.3 7.7 0.1 11.7-1 2-0.5 4-0.6 6-1.2l5.9-1.9c15.9-5.2 27.9-16.4 36.1-31.5 4.1-7.5 7.1-16.1 9.2-25 1.2-4.5 1.9-9.1 2.6-13.7 0.7-4.5 1.2-9.5 1.4-13.6v-0.8c0.2-5.6 5-9.9 10.6-9.7 4.9 0.2 8.8 3.9 9.6 8.5 1 6.1 1.4 11.2 1.5 16.8 0.1 5.5-0.1 11.1-0.7 16.6-1.3 11.1-3.7 22.3-8.5 33-8.8 21.6-28.3 41-51.2 48.5l-8.4 2.9c-2.9 0.9-6 1.3-9 1.8-5.9 1.4-12.4 1-18.6 1.1-12.7-0.9-25.1-5.4-35.4-12.1-10.3-6.7-18.6-15.4-25-24.8-3.2-4.7-6.1-9.6-8.5-14.6-2.5-5.2-4.4-10-6.1-16-1.6-5.4 1.5-11 6.9-12.6 4.4-1.3 9.1 0.6 11.5 4.4z"/><path class="b" d="m1641 1351.2c-1.8 6-3.7 10.9-6.2 16-2.4 5-5.3 9.9-8.5 14.6-6.5 9.4-14.8 18-25.2 24.7-10.3 6.6-22.7 11.1-35.4 12-6.2-0.1-12.7 0.2-18.6-1.2-3-0.6-6.1-1-9-1.8l-8.4-3c-22.9-7.6-42.3-27.1-51-48.7-4.8-10.7-7.1-22-8.3-33-0.6-5.6-0.9-11.1-0.7-16.6 0.1-5.6 0.5-10.8 1.6-16.8 0.9-5.6 6.2-9.3 11.7-8.3 4.8 0.8 8.3 4.9 8.5 9.6v0.8c0.2 4 0.7 9.1 1.3 13.6 0.7 4.6 1.4 9.2 2.5 13.6 2.1 9 5 17.5 9.1 25.1 8.1 15.2 20.1 26.3 36 31.6l5.9 2c2 0.6 4 0.7 6 1.2 4 1.1 7.8 0.7 11.7 1 7.6-0.5 14.9-2.4 22-6.2 7.1-3.7 13.8-9.2 19.8-15.8 3-3.3 6-6.7 8.7-10.5 2.7-3.5 5.4-7.8 7.5-11.2l0.6-0.9c3-4.8 9.3-6.3 14-3.3 4 2.5 5.7 7.2 4.4 11.5z"/><path class="b" d="m1565 1254.6c-0.1 19.8-26 37.3-49.8 49.2-24.9 12.4-52.8 12.4-77.6-0.1-23.8-12-49.7-29.6-49.6-49.5 0.1-59.9 177.1-59.5 177 0.4z"/><g style="opacity:.5"><path class="d" d="m1511.6 1242.7c0 5.8-10.3 10.8-19.7 14.2-9.9 3.6-21 3.6-30.8 0-9.4-3.5-19.7-8.6-19.7-14.3 0-17.3 70.2-17.1 70.2 0.1z"/></g><path class="b" d="m729.3 1304.3c-3.4-2-7.3-4.1-11-6-3.8-2-7.6-3.9-11.5-5.7q-5.8-2.9-11.7-5.4c-4-1.7-7.8-3.6-11.8-5.2-16-6.5-32-12.8-48.4-17.9-32.8-10.5-66.2-19.1-100.3-24.3-4.2-0.9-8.5-1.3-12.8-1.8l-12.8-1.6-12.9-1.6c-4.3-0.5-8.6-0.6-12.9-0.9-8.6-0.5-17.2-1.1-25.8-1.8l-25.9-0.3c-17.4-0.7-34.6 1.3-51.9 1.8l-6.5 0.2-6.5 0.8-12.9 1.4-26 2.7h-0.6c-4.9 0.5-9.3-3-9.8-7.9-0.5-4.7 2.7-8.9 7.3-9.8l26.3-4.8 13.2-2.3 6.7-1.1 6.6-0.8c8.9-1 17.9-1.8 26.8-2.7 4.5-0.3 8.9-1 13.4-1l13.4-0.5c9-0.2 18-0.5 27-0.7l26.9 1.1c4.5 0.2 9 0.2 13.5 0.7l13.4 1.4c9 1 18 1.6 26.8 3.2l26.7 4.5c8.8 1.7 17.5 3.9 26.3 6 8.8 1.8 17.4 4.7 26.1 7.2 8.7 2.4 17.1 5.5 25.6 8.6 34 12.4 66.4 27.9 96.3 49.8 4 2.9 4.9 8.5 1.9 12.5-2.7 3.7-7.7 4.7-11.6 2.5z"/><path class="b" d="m752.1 1438.7c-14.7-1.7-30.2-2.9-45.3-3.6-15.2-0.6-30.5-0.9-45.7-0.5-30.3 0.7-60.6 3.2-90.2 9-14.8 2.8-29.5 6.3-43.9 10.8-7.2 2.1-14.2 4.8-21.3 7.2-7 2.8-14 5.4-20.8 8.6-27.5 12.1-53 28.3-76.4 47.5l-0.1 0.2c-3.8 3.1-9.5 2.6-12.6-1.3-3-3.5-2.6-8.8 0.6-12 22.7-22.7 49.2-41.9 78.1-56.2 14.4-7.2 29.3-13.5 44.6-18.5 15.3-5.1 30.9-9.4 46.6-12.4 31.5-6.4 63.5-9.3 95.4-8.7 32 0.7 63.4 4.2 94.8 12.4 4.8 1.3 7.7 6.2 6.4 11-1.1 4.3-5.3 7.1-9.7 6.6z"/><path class="b" d="m2226.4 1289.6c29.9-21.9 62.3-37.4 96.3-49.8 8.5-3.1 16.9-6.2 25.6-8.6 8.7-2.5 17.3-5.4 26.1-7.2 8.8-2.1 17.5-4.3 26.3-6l26.7-4.5c8.8-1.6 17.8-2.2 26.8-3.2l13.4-1.4c4.5-0.5 9-0.5 13.5-0.7l26.9-1.1c9 0.2 18 0.5 27 0.7l13.4 0.5c4.5 0 8.9 0.7 13.4 1 8.9 0.9 17.9 1.7 26.8 2.7l6.6 0.8 6.7 1.1 13.2 2.3 26.3 4.8c4.9 0.9 8.1 5.6 7.2 10.4-0.8 4.7-5.1 7.8-9.7 7.3h-0.6l-26-2.7-12.9-1.4-6.5-0.8-6.5-0.2c-17.3-0.5-34.5-2.5-51.9-1.8l-25.9 0.3c-8.6 0.7-17.2 1.3-25.8 1.8-4.3 0.3-8.6 0.4-12.9 0.9l-12.9 1.6-12.8 1.6c-4.3 0.5-8.6 0.9-12.8 1.8-34.1 5.2-67.5 13.8-100.3 24.3-16.4 5.1-32.4 11.4-48.4 17.9-4 1.6-7.8 3.5-11.8 5.2q-5.9 2.5-11.7 5.4c-3.9 1.8-7.7 3.7-11.5 5.7-3.7 1.9-7.6 4-11 6l-0.6 0.3c-4.2 2.4-9.7 1-12.2-3.3-2.3-4-1.1-9 2.5-11.7z"/><path class="b" d="m2210.1 1421.2c31.4-8.2 62.8-11.7 94.8-12.4 31.9-0.6 63.9 2.3 95.4 8.7 15.7 3 31.3 7.3 46.6 12.4 15.3 5 30.2 11.3 44.6 18.5 28.9 14.3 55.4 33.5 78.1 56.2 3.5 3.5 3.5 9.2 0 12.7-3.3 3.3-8.5 3.5-12 0.6l-0.1-0.2c-23.4-19.2-48.9-35.4-76.4-47.5-6.8-3.2-13.8-5.8-20.8-8.6-7.1-2.4-14.1-5.1-21.3-7.2-14.4-4.5-29.1-8-43.9-10.8-29.6-5.8-59.9-8.3-90.2-9-15.2-0.4-30.5-0.1-45.7 0.5-15.1 0.7-30.6 1.9-45.3 3.6l-0.5 0.1c-4.9 0.6-9.4-2.9-9.9-7.9-0.6-4.4 2.3-8.6 6.6-9.7z"/></g><path class="b" d="m1483 1796.2c-392 0-760.6-19.3-1038-54.1-135.5-17.1-242-37-316.7-59.2-87.3-25.9-128-54.2-128-88.8 0-9.9 8.1-18 18-18 9.8 0 17.9 8.1 17.9 18 0 20.9 86.4 71.3 413.3 112.4 275.9 34.7 643 53.8 1033.5 53.8 390.5 0 757.6-19.1 1033.5-53.8 326.9-41.1 413.3-91.5 413.3-112.4 0-9.9 8.1-18 17.9-18 9.9 0 18 8.1 18 18 0 34.6-40.7 62.9-128 88.8-74.7 22.2-181.2 42.1-316.7 59.2-277.4 34.8-646 54.1-1038 54.1z"/><path class="d" d="m1040.1 1757.2c-4.7 39.5-37.2 79.6-153.1 72-79.6 27-147.2 18.9-211.6-17.5-50.3-1.5-81.5-29.7-80.2-62.5 0.4-10.7 2-20.7 4.8-30 34.8-119.6 247.1-124.3 339.7-90.7 37.3 13.6 60.7 35.5 75.5 57.5q23.8 35.6 24.9 71.2z"/><g style="opacity:.1"><path class="b" d="m1040.1 1757.2c-4.7 39.5-37.2 79.6-153.1 72-79.6 27-147.2 18.9-211.6-17.5-50.3-1.5-81.5-29.7-80.2-62.5 0.4-10.7 2-20.7 4.8-30 18 8.3 51.1 15.1 78.4-25.5 5.3 103.7 194.8 126.5 232.2 10.6q120.2 110.7 104.6-18.2v-0.1q23.8 35.6 24.9 71.2z"/></g><path fill-rule="evenodd" class="b" d="m796.9 1863c-43.7 0-85.6-11.2-126.5-33.6-30.8-1.8-57-12.8-74.1-31-13-14-19.7-31.7-19-49.9 1.8-45.9 24-84.4 64.1-111.4 85.8-57.6 232-51.8 304.4-25.4 107.7 39.2 112.1 140.6 112.3 144.9v1.4l-0.2 1.3c-5.3 44.4-38.9 95.6-168.5 88-31.9 10.5-62.6 15.7-92.5 15.7zm21.7-234.8c-55.8 0-115.6 10.7-157.2 38.7-30.7 20.6-47 48.5-48.3 83-0.4 8.7 2.9 17 9.4 24 11.2 12 30.7 19.2 53.5 19.9l4.4 0.1 3.9 2.2c62.4 35.4 125 40.5 197 16.2l3.3-1.1 3.6 0.2c82.9 5.4 128-13.1 134-54.9-0.8-10.9-9.1-82.2-88.6-111.1-28.3-10.3-70.4-17.2-115-17.2z"/><path class="b" d="m686.2 1698.1c-3.8 8.6-6.9 18.4-9.2 27.8-2.1 9.5-3.7 19.1-3.8 28.4 0 9.2 1.1 18.1 3.6 26 2.8 7.8 7.1 14.3 12.3 19.8l0.3 0.4c6.8 7.2 6.5 18.5-0.7 25.4-7.2 6.8-18.6 6.4-25.4-0.8-0.5-0.5-1.1-1.2-1.5-1.8-7.8-10.8-13.1-23.1-15.5-35.6-2-12.4-1.6-24.6 0.2-36 1.8-11.5 5.2-22.3 9.2-32.6 4.2-10.4 8.8-20 14.8-29.8 2.6-4.2 8.2-5.5 12.4-2.9 3.8 2.4 5.2 7.2 3.5 11.2z"/><path class="b" d="m919.2 1701.8c4 11.6 6.6 22.7 8.5 34.5 1.8 11.7 2.8 23.8 2.1 36.1-0.6 12.3-3 25.1-8 37.5-2.5 6.2-5.8 12.2-9.7 17.9-4 5.7-8.8 10.9-14.1 15.6-7.4 6.6-18.7 6-25.3-1.4-6.6-7.4-6-18.8 1.4-25.4q0.9-0.8 1.8-1.4l0.1-0.1c3.4-2.3 6.7-5 9.7-8.1q4.3-4.7 7.8-10.6c4.5-7.9 7.8-17.1 9.6-27.1 1.9-9.9 2.5-20.3 2.3-30.9-0.2-10.5-1.4-21.5-3.4-31.5l-0.1-0.5c-1-4.8 2.2-9.5 7-10.5 4.5-0.9 8.8 1.7 10.3 5.9z"/><path class="d" d="m1950.2 1686c14.8-22 38.2-43.9 75.5-57.5 92.7-33.6 305-28.9 339.8 90.7 2.7 9.3 4.3 19.3 4.8 30 1.3 32.8-30 61-80.3 62.5-64.4 36.4-132 44.5-211.6 17.5-115.9 7.6-148.4-32.5-153.1-72q1.1-35.6 24.9-71.2z"/><g style="opacity:.1"><path class="b" d="m1950.2 1686v0.1q-15.6 128.9 104.6 18.2c37.4 115.9 226.9 93.1 232.3-10.6 27.2 40.6 60.3 33.8 78.4 25.5 2.7 9.3 4.3 19.3 4.8 30 1.3 32.8-30 61-80.3 62.5-64.4 36.4-132 44.5-211.6 17.5-115.9 7.6-148.4-32.5-153.1-72q1.1-35.6 24.9-71.2z"/></g><path fill-rule="evenodd" class="b" d="m2168.5 1863c-29.9 0-60.6-5.2-92.4-15.7-129.6 7.6-163.3-43.6-168.6-88l-0.2-1.3 0.1-1.4c0.1-4.3 4.5-105.7 112.2-144.9 72.5-26.4 218.6-32.2 304.4 25.4 40.2 27 62.3 65.5 64.2 111.4 0.7 18.2-6.1 35.9-19.1 49.9-17 18.2-43.2 29.2-74.1 31-40.9 22.4-82.8 33.6-126.5 33.6zm-87.7-51.8l3.4 1.1c71.9 24.3 134.5 19.2 197-16.2l3.8-2.2 4.4-0.1c22.9-0.7 42.4-7.9 53.5-19.9 6.5-7 9.8-15.3 9.5-24-1.4-34.5-17.7-62.4-48.3-83-75-50.3-208.6-44.7-272.3-21.5-79.5 28.9-87.7 100.2-88.5 111.1 6 41.8 51 60.3 134 54.9z"/><path class="b" d="m2294.9 1689.3c6.1 9.8 10.7 19.4 14.8 29.8 4 10.3 7.5 21.1 9.2 32.6 1.8 11.4 2.3 23.6 0.2 36-2.4 12.5-7.6 24.8-15.5 35.6-5.8 8-17 9.9-25 4.1-8.1-5.8-9.9-17.1-4.1-25.1q0.7-0.9 1.4-1.8l0.4-0.4c5.2-5.5 9.5-12 12.3-19.8 2.5-7.9 3.7-16.8 3.6-26 0-9.3-1.6-18.9-3.8-28.4-2.2-9.4-5.4-19.2-9.1-27.8l-0.2-0.5c-2-4.5 0.1-9.8 4.6-11.8 4.2-1.8 8.9-0.2 11.2 3.5z"/><path class="b" d="m2063.4 1706.9c-2 10-3.1 21-3.4 31.5-0.2 10.6 0.4 21 2.3 30.9 1.9 10 5.1 19.2 9.6 27.1q3.5 5.9 7.8 10.6c3 3.1 6.3 5.8 9.7 8.1l0.1 0.1c8.2 5.5 10.3 16.7 4.7 24.9-5.6 8.2-16.7 10.3-24.9 4.7-0.7-0.4-1.3-0.9-1.9-1.4-5.2-4.7-10-9.9-14-15.6-4-5.7-7.2-11.7-9.8-17.9-5-12.4-7.3-25.2-8-37.5-0.7-12.3 0.3-24.4 2.1-36.1 1.9-11.8 4.6-22.9 8.6-34.5 1.6-4.7 6.7-7.2 11.4-5.6 4.2 1.5 6.7 5.9 5.8 10.2z"/><path class="b" d="m1252.9 1153.8c-6.7 90.8-66.4 160.5-133.4 155.6-67-4.9-115.9-82.6-109.2-173.4 6.7-90.9 66.4-160.6 133.4-155.7 66.9 5 115.8 82.6 109.2 173.5z"/><path class="d" d="m1216.1 1120c-2.6 36.1-23 64-45.5 62.4-22.6-1.7-38.7-32.3-36-68.4 2.6-36.1 23-64 45.6-62.3 22.5 1.7 38.6 32.2 35.9 68.3z"/><g style="opacity:.3"><path class="d" d="m1097.2 1201.9c8.1 21.7 6.1 42.4-4.4 46.4-10.6 3.9-25.7-10.4-33.8-32.1-8.2-21.6-6.2-42.3 4.4-46.3 10.5-4 25.6 10.4 33.8 32z"/></g><path class="b" d="m1812.2 980.3c67-4.9 126.7 64.8 133.4 155.7 6.6 90.8-42.3 168.5-109.2 173.4-67 4.9-126.7-64.8-133.4-155.6-6.7-90.9 42.2-168.5 109.2-173.5z"/><path class="d" d="m1775.7 1051.7c22.5-1.7 42.9 26.2 45.6 62.3 2.6 36.1-13.5 66.7-36 68.4-22.5 1.6-42.9-26.3-45.6-62.4-2.6-36.1 13.5-66.6 36-68.3z"/><g style="opacity:.3"><path class="d" d="m1892.5 1169.9c10.5 4 12.5 24.7 4.4 46.3-8.1 21.7-23.3 36-33.8 32.1-10.6-4-12.5-24.7-4.4-46.4 8.1-21.6 23.2-36 33.8-32z"/></g><path class="d" d="m2502.7 327c-21.8-38.1-31.8-83.4-25.6-130.3 15-113.9 119.5-194 233.3-178.9 113.8 15 193.9 119.4 178.9 233.3-15 113.8-119.4 193.9-233.3 178.9-31.6-4.2-60.7-15.3-85.8-31.6l-96.8 18.8z"/><g style="opacity:.5"><path class="d" d="m2705.2 57.4c-106.4-14-204.5 55-229.2 156.9 0.2-7.3 0.7-14.7 1.7-22.1 15-113.9 119.5-194 233.3-179 113.8 15 193.9 119.5 178.9 233.3-1 7.5-2.3 14.8-4.1 22 2.6-104.9-74.3-197.1-180.6-211.1z"/></g><path fill-rule="evenodd" class="b" d="m2683.4 447.5q-14.6 0-29.4-2c-31.1-4.1-60.3-14.4-86.9-30.5l-90.7 17.6c-5.5 1-11.1-0.9-14.7-5-3.7-4.2-4.9-10-3.2-15.2l27.2-83.8c-21.9-41.2-30.3-87.4-24.1-134 7.8-59.2 38.2-111.8 85.6-148.1 47.3-36.4 106-52.1 165.3-44.3 122.2 16.1 208.5 128.7 192.4 250.9-14.8 112.3-111.1 194.4-221.5 194.4zm-113.2-64.8c3 0 6 0.9 8.5 2.6 24.1 15.5 50.8 25.4 79.4 29.1 105 13.9 201.8-60.3 215.7-165.4 13.9-105.1-60.4-201.8-165.4-215.7-50.9-6.7-101.4 6.8-142.2 38-40.7 31.3-66.8 76.5-73.6 127.4-5.5 42.1 2.7 83.7 23.7 120.5 2.2 3.8 2.7 8.4 1.3 12.6l-21.1 64.9 70.7-13.7q1.5-0.3 3-0.3z"/><g style="opacity:.3"><path class="b" d="m2501.6 325c55.5 49.7 133.4 73.1 211.8 56 87-19 152.5-83 177.7-162.1 0.2 10.6-0.3 21.3-1.8 32.2-15 113.8-119.4 193.9-233.3 178.9-31.6-4.2-60.7-15.3-85.8-31.6l-96.8 18.8 29.3-90.2c-0.4-0.7-0.7-1.4-1.1-2z"/></g><path class="g" d="m2616.6 165.5c18-18 47.2-14.8 65.2 3.2l2.8 2.8 2.8-2.8c18-18 47.2-21.2 65.2-3.2 17.9 18 17.9 47.1 0 65.1l-2.8 2.8-56.6 56.6c-4.8 4.7-12.4 4.7-17.2 0l-56.6-56.6-2.8-2.8c-17.9-18-17.9-47.1 0-65.1z"/></svg>