<svg version="1.2" xmlns="http://www.w3.org/2000/svg" viewBox="0 0 816 693" width="816" height="693"><style>.a{fill:#fff}.b{fill:#003967}.c{mix-blend-mode:multiply;fill:#ff682a}.d{fill:#ff682a}</style><path class="a" d="m394.2 180.5q0.1-0.1 0.1-0.1 0.1 0 0.1 0.1 0 0.1-0.1 0.1 0 0-0.1-0.1z"/><path class="a" d="m426.5 180.5c0-0.2 0.1-0.3 0.2-0.3 0.2 0 0.3 0.1 0.3 0.3 0 0.1-0.1 0.2-0.3 0.2-0.1 0-0.2-0.1-0.2-0.2z"/><path class="a" d="m458.6 180.5c0-0.3 0.2-0.6 0.5-0.6 0.3 0 0.6 0.3 0.6 0.6 0 0.3-0.3 0.5-0.6 0.5-0.3 0-0.5-0.2-0.5-0.5z"/><path class="a" d="m490.8 180.5c0-0.4 0.3-0.7 0.7-0.7 0.4 0 0.7 0.3 0.7 0.7 0 0.4-0.3 0.7-0.7 0.7-0.4 0-0.7-0.3-0.7-0.7z"/><path class="a" d="m523.1 180.5c0-0.5 0.4-0.8 0.8-0.8 0.5 0 0.8 0.3 0.8 0.8 0 0.4-0.3 0.8-0.8 0.8-0.4 0-0.8-0.4-0.8-0.8z"/><path class="a" d="m555.5 180.5c0-0.5 0.4-0.8 0.8-0.8 0.5 0 0.8 0.3 0.8 0.8 0 0.4-0.3 0.8-0.8 0.8-0.4 0-0.8-0.4-0.8-0.8z"/><path class="a" d="m588 180.5c0-0.4 0.3-0.7 0.7-0.7 0.4 0 0.7 0.3 0.7 0.7 0 0.4-0.3 0.7-0.7 0.7-0.4 0-0.7-0.3-0.7-0.7z"/><path class="a" d="m620.6 180.5c0-0.3 0.2-0.6 0.5-0.6 0.3 0 0.6 0.3 0.6 0.6 0 0.3-0.3 0.5-0.6 0.5-0.3 0-0.5-0.2-0.5-0.5z"/><path class="a" d="m653.2 180.5c0-0.2 0.1-0.4 0.3-0.4 0.2 0 0.4 0.2 0.4 0.4 0 0.2-0.2 0.3-0.4 0.3-0.2 0-0.3-0.1-0.3-0.3z"/><path class="a" d="m685.7 180.5c0-0.1 0.1-0.2 0.2-0.2 0.1 0 0.2 0.1 0.2 0.2 0 0.1-0.1 0.2-0.2 0.2-0.1 0-0.2-0.1-0.2-0.2z"/><path class="a" d="m313 212.9c0-0.2 0.1-0.4 0.3-0.4 0.2 0 0.4 0.2 0.4 0.4 0 0.2-0.2 0.3-0.4 0.3-0.2 0-0.3-0.1-0.3-0.3z"/><path class="a" d="m344.9 212.9c0-0.5 0.4-0.8 0.8-0.8 0.5 0 0.9 0.3 0.9 0.8 0 0.4-0.4 0.8-0.9 0.8-0.4 0-0.8-0.4-0.8-0.8z"/><circle class="a" cx="378.1" cy="212.9" r="1.3"/><circle class="a" cx="410.5" cy="212.9" r="1.9"/><circle class="a" cx="442.9" cy="212.9" r="2.3"/><circle class="a" cx="475.3" cy="212.9" r="2.6"/><circle class="a" cx="507.7" cy="212.9" r="2.8"/><circle class="a" cx="540.1" cy="212.9" r="2.7"/><circle class="a" cx="572.5" cy="212.9" r="2.5"/><circle class="a" cx="604.9" cy="212.9" r="2.1"/><circle class="a" cx="637.3" cy="212.9" r="1.6"/><circle class="a" cx="669.7" cy="212.9" r="1.1"/><path class="a" d="m701.6 212.9c0-0.3 0.2-0.6 0.5-0.6 0.3 0 0.5 0.3 0.5 0.6 0 0.3-0.2 0.5-0.5 0.5-0.3 0-0.5-0.2-0.5-0.5z"/><path class="a" d="m734.3 212.9c0-0.1 0.1-0.2 0.2-0.2 0.1 0 0.2 0.1 0.2 0.2 0 0.1-0.1 0.2-0.2 0.2-0.1 0-0.2-0.1-0.2-0.2z"/><path class="a" d="m264.5 245.3c0-0.2 0.1-0.3 0.3-0.3 0.1 0 0.2 0.1 0.2 0.3 0 0.1-0.1 0.2-0.2 0.2-0.2 0-0.3-0.1-0.3-0.2z"/><path class="a" d="m296.2 245.3c0-0.5 0.4-0.9 0.9-0.9 0.5 0 0.9 0.4 0.9 0.9 0 0.5-0.4 0.9-0.9 0.9-0.5 0-0.9-0.4-0.9-0.9z"/><circle class="a" cx="329.5" cy="245.3" r="1.7"/><circle class="a" cx="361.9" cy="245.3" r="2.6"/><circle class="a" cx="394.3" cy="245.3" r="3.5"/><circle class="a" cx="426.7" cy="245.3" r="4.3"/><circle class="a" cx="459.1" cy="245.3" r="5"/><circle class="a" cx="491.5" cy="245.3" r="5.4"/><circle class="a" cx="523.9" cy="245.3" r="5.6"/><circle class="a" cx="556.3" cy="245.3" r="5.4"/><circle class="a" cx="588.7" cy="245.3" r="4.9"/><circle class="a" cx="621.1" cy="245.3" r="4.2"/><circle class="a" cx="653.5" cy="245.3" r="3.4"/><circle class="a" cx="685.9" cy="245.3" r="2.4"/><circle class="a" cx="718.3" cy="245.3" r="1.6"/><path class="a" d="m749.9 245.3c0-0.5 0.4-0.8 0.8-0.8 0.5 0 0.8 0.3 0.8 0.8 0 0.4-0.3 0.8-0.8 0.8-0.4 0-0.8-0.4-0.8-0.8z"/><path class="a" d="m782.9 245.3c0-0.1 0.1-0.2 0.2-0.2 0.1 0 0.2 0.1 0.2 0.2 0 0.1-0.1 0.2-0.2 0.2-0.1 0-0.2-0.1-0.2-0.2z"/><path class="a" d="m183.7 277.7q0-0.1 0.1-0.1 0 0 0 0.1 0 0 0 0.1-0.1-0.1-0.1-0.1z"/><path class="a" d="m215.5 277.7c0-0.4 0.3-0.7 0.7-0.7 0.3 0 0.6 0.3 0.6 0.7 0 0.3-0.3 0.6-0.6 0.6-0.4 0-0.7-0.3-0.7-0.6z"/><circle class="a" cx="248.6" cy="277.7" r="1.4"/><circle class="a" cx="281" cy="277.7" r="2.6"/><circle class="a" cx="313.3" cy="277.7" r="3.9"/><circle class="a" cx="345.7" cy="277.7" r="5.2"/><circle class="a" cx="378.1" cy="277.7" r="6.6"/><circle class="a" cx="410.5" cy="277.7" r="7.6"/><circle class="a" cx="442.9" cy="277.7" r="8.5"/><circle class="a" cx="475.3" cy="277.7" r="9"/><circle class="a" cx="507.7" cy="277.7" r="9"/><circle class="a" cx="540.1" cy="277.7" r="8.6"/><circle class="a" cx="572.5" cy="277.7" r="7.8"/><circle class="a" cx="604.9" cy="277.7" r="6.7"/><circle class="a" cx="637.3" cy="277.7" r="5.5"/><circle class="a" cx="669.7" cy="277.7" r="4.1"/><circle class="a" cx="702.1" cy="277.7" r="2.8"/><circle class="a" cx="734.5" cy="277.7" r="1.6"/><path class="a" d="m766.2 277.7c0-0.4 0.3-0.8 0.7-0.8 0.4 0 0.7 0.4 0.7 0.8 0 0.4-0.3 0.7-0.7 0.7-0.4 0-0.7-0.3-0.7-0.7z"/><path class="a" d="m799.2 277.7q0-0.1 0.1-0.1 0.1 0 0.1 0.1 0 0-0.1 0.1-0.1-0.1-0.1-0.1z"/><path class="a" d="m167.5 310.1q0-0.1 0.1-0.1 0 0 0.1 0.1-0.1 0-0.1 0.1-0.1-0.1-0.1-0.1z"/><path class="a" d="m199.2 310.1c0-0.4 0.4-0.8 0.8-0.8 0.4 0 0.7 0.4 0.7 0.8 0 0.4-0.3 0.7-0.7 0.7-0.4 0-0.8-0.3-0.8-0.7z"/><circle class="a" cx="232.4" cy="310.1" r="1.8"/><circle class="a" cx="264.8" cy="310.1" r="3.2"/><circle class="a" cx="297.1" cy="310.1" r="4.9"/><circle class="a" cx="329.5" cy="310.1" r="6.6"/><circle class="a" cx="361.9" cy="310.1" r="8.4"/><circle class="a" cx="394.3" cy="310.1" r="10.2"/><circle class="a" cx="426.7" cy="310.1" r="11.7"/><circle class="a" cx="459.1" cy="310.1" r="12.8"/><circle class="a" cx="491.5" cy="310.1" r="13.2"/><circle class="a" cx="523.9" cy="310.1" r="13"/><circle class="a" cx="556.3" cy="310.1" r="12.2"/><circle class="a" cx="588.7" cy="310.1" r="11"/><circle class="a" cx="621.1" cy="310.1" r="9.3"/><circle class="a" cx="653.5" cy="310.1" r="7.5"/><circle class="a" cx="685.9" cy="310.1" r="5.7"/><circle class="a" cx="718.3" cy="310.1" r="4"/><circle class="a" cx="750.7" cy="310.1" r="2.4"/><circle class="a" cx="783.1" cy="310.1" r="1.3"/><path class="a" d="m815.1 310.1c0-0.2 0.2-0.4 0.4-0.4 0.2 0 0.4 0.2 0.4 0.4 0 0.2-0.2 0.3-0.4 0.3-0.2 0-0.4-0.1-0.4-0.3z"/><path class="a" d="m118.9 342.5q0-0.1 0.1-0.1 0 0 0.1 0.1-0.1 0-0.1 0-0.1 0-0.1 0z"/><path class="a" d="m150.6 342.5c0-0.4 0.4-0.8 0.8-0.8 0.4 0 0.7 0.4 0.7 0.8 0 0.4-0.3 0.7-0.7 0.7-0.4 0-0.8-0.3-0.8-0.7z"/><circle class="a" cx="183.8" cy="342.5" r="1.8"/><circle class="a" cx="216.2" cy="342.5" r="3.3"/><circle class="a" cx="248.6" cy="342.5" r="5.2"/><circle class="a" cx="281" cy="342.5" r="7.4"/><circle class="a" cx="313.3" cy="342.5" r="9.6"/><circle class="a" cx="345.7" cy="342.5" r="12"/><circle class="a" cx="378.1" cy="342.5" r="14.3"/><circle class="a" cx="410.5" cy="342.5" r="16.3"/><circle class="a" cx="442.9" cy="342.5" r="17.6"/><circle class="a" cx="475.3" cy="342.5" r="18.1"/><circle class="a" cx="507.7" cy="342.5" r="17.4"/><circle class="a" cx="540.1" cy="342.5" r="15.9"/><circle class="a" cx="572.5" cy="342.5" r="13.8"/><circle class="a" cx="604.9" cy="342.5" r="11.6"/><circle class="a" cx="637.3" cy="342.5" r="9.2"/><circle class="a" cx="669.7" cy="342.5" r="6.9"/><circle class="a" cx="702.1" cy="342.5" r="4.9"/><circle class="a" cx="734.5" cy="342.5" r="3.1"/><circle class="a" cx="766.9" cy="342.5" r="1.5"/><path class="a" d="m798.8 342.5c0-0.3 0.2-0.6 0.5-0.6 0.3 0 0.5 0.3 0.5 0.6 0 0.3-0.2 0.5-0.5 0.5-0.3 0-0.5-0.2-0.5-0.5z"/><path class="a" d="m134.7 374.9c0-0.3 0.2-0.5 0.5-0.5 0.2 0 0.4 0.2 0.4 0.5 0 0.2-0.2 0.4-0.4 0.4-0.3 0-0.5-0.2-0.5-0.4z"/><circle class="a" cx="167.6" cy="374.9" r="1.4"/><circle class="a" cx="200" cy="374.9" r="3"/><circle class="a" cx="232.4" cy="374.9" r="4.9"/><circle class="a" cx="264.8" cy="374.9" r="7.2"/><circle class="a" cx="297.1" cy="374.9" r="9.8"/><circle class="a" cx="329.5" cy="374.9" r="12.7"/><circle class="a" cx="361.9" cy="374.9" r="15.6"/><circle class="a" cx="394.3" cy="374.9" r="18.7"/><circle class="a" cx="426.7" cy="374.9" r="21.4"/><circle class="a" cx="459.1" cy="374.9" r="22.9"/><circle class="a" cx="491.5" cy="374.9" r="22.9"/><circle class="a" cx="523.9" cy="374.9" r="21.7"/><circle class="a" cx="556.3" cy="374.9" r="19"/><circle class="a" cx="588.7" cy="374.9" r="16"/><circle class="a" cx="621.1" cy="374.9" r="13"/><circle class="a" cx="653.5" cy="374.9" r="10.2"/><circle class="a" cx="685.9" cy="374.9" r="7.5"/><circle class="a" cx="718.3" cy="374.9" r="5.2"/><circle class="a" cx="750.7" cy="374.9" r="3.2"/><circle class="a" cx="783.1" cy="374.9" r="1.6"/><path class="a" d="m815 374.9c0-0.3 0.2-0.6 0.5-0.6 0.3 0 0.5 0.3 0.5 0.6 0 0.3-0.2 0.5-0.5 0.5-0.3 0-0.5-0.2-0.5-0.5z"/><path class="a" d="m86.5 407.3q0-0.1 0.1-0.1 0 0 0.1 0.1-0.1 0-0.1 0-0.1 0-0.1 0z"/><path class="a" d="m118.1 407.3c0-0.5 0.4-0.9 0.9-0.9 0.5 0 0.9 0.4 0.9 0.9 0 0.4-0.4 0.9-0.9 0.9-0.5 0-0.9-0.5-0.9-0.9z"/><circle class="a" cx="151.4" cy="407.3" r="2.2"/><circle class="a" cx="183.8" cy="407.3" r="4"/><circle class="a" cx="216.2" cy="407.3" r="6.3"/><circle class="a" cx="248.6" cy="407.3" r="8.9"/><circle class="a" cx="280.9" cy="407.3" r="11.9"/><circle class="a" cx="313.3" cy="407.3" r="15.1"/><circle class="a" cx="345.7" cy="407.3" r="18.7"/><circle class="a" cx="378.1" cy="407.3" r="22.5"/><circle class="a" cx="410.5" cy="407.3" r="22.9"/><circle class="a" cx="442.9" cy="407.3" r="22.9"/><circle class="a" cx="475.3" cy="407.3" r="22.9"/><circle class="a" cx="507.7" cy="407.3" r="22.9"/><circle class="a" cx="540.1" cy="407.3" r="20.4"/><circle class="a" cx="572.5" cy="407.3" r="16.7"/><circle class="a" cx="604.9" cy="407.3" r="13.3"/><circle class="a" cx="637.3" cy="407.3" r="10.2"/><circle class="a" cx="669.7" cy="407.3" r="7.4"/><circle class="a" cx="702.1" cy="407.3" r="5"/><circle class="a" cx="734.5" cy="407.3" r="3.1"/><circle class="a" cx="766.9" cy="407.3" r="1.4"/><path class="a" d="m798.9 407.3c0-0.3 0.2-0.5 0.4-0.5 0.2 0 0.5 0.2 0.5 0.5 0 0.2-0.3 0.4-0.5 0.4-0.2 0-0.4-0.2-0.4-0.4z"/><path class="a" d="m102.4 439.7c0-0.2 0.2-0.4 0.4-0.4 0.2 0 0.3 0.2 0.3 0.4 0 0.1-0.1 0.3-0.3 0.3-0.2 0-0.4-0.2-0.4-0.3z"/><circle class="a" cx="135.2" cy="439.7" r="1.3"/><circle class="a" cx="167.6" cy="439.7" r="2.9"/><circle class="a" cx="200" cy="439.7" r="4.8"/><circle class="a" cx="232.4" cy="439.7" r="7.1"/><circle class="a" cx="264.8" cy="439.7" r="9.8"/><circle class="a" cx="297.1" cy="439.7" r="12.9"/><circle class="a" cx="329.5" cy="439.7" r="16.3"/><circle class="a" cx="361.9" cy="439.7" r="19.9"/><circle class="a" cx="394.3" cy="439.7" r="22.9"/><circle class="a" cx="426.7" cy="439.7" r="22.9"/><circle class="a" cx="459.1" cy="439.7" r="22.9"/><circle class="a" cx="491.5" cy="439.7" r="22.9"/><circle class="a" cx="523.9" cy="439.7" r="22.9"/><circle class="a" cx="556.3" cy="439.7" r="19.1"/><circle class="a" cx="588.7" cy="439.7" r="15.5"/><circle class="a" cx="621.1" cy="439.7" r="12.2"/><circle class="a" cx="653.5" cy="439.7" r="9.3"/><circle class="a" cx="685.9" cy="439.7" r="6.6"/><circle class="a" cx="718.3" cy="439.7" r="4.3"/><circle class="a" cx="750.7" cy="439.7" r="2.4"/><circle class="a" cx="783.1" cy="439.7" r="1.1"/><path class="a" d="m815.3 439.7c0-0.1 0.1-0.2 0.2-0.2 0.1 0 0.2 0.1 0.2 0.2 0 0.1-0.1 0.1-0.2 0.1-0.1 0-0.2 0-0.2-0.1z"/><path class="a" d="m86.1 472c0-0.2 0.2-0.4 0.5-0.4 0.2 0 0.4 0.2 0.4 0.4 0 0.3-0.2 0.5-0.4 0.5-0.3 0-0.5-0.2-0.5-0.5z"/><circle class="a" cx="119" cy="472" r="1.5"/><circle class="a" cx="151.4" cy="472" r="3.1"/><circle class="a" cx="183.8" cy="472" r="5"/><circle class="a" cx="216.2" cy="472" r="7.3"/><circle class="a" cx="248.6" cy="472" r="9.9"/><circle class="a" cx="280.9" cy="472" r="12.8"/><circle class="a" cx="313.3" cy="472" r="15.8"/><circle class="a" cx="345.7" cy="472" r="18.9"/><circle class="a" cx="378.1" cy="472" r="21.6"/><circle class="a" cx="410.5" cy="472" r="22.9"/><circle class="a" cx="442.9" cy="472" r="22.9"/><circle class="a" cx="475.3" cy="472" r="21.8"/><circle class="a" cx="507.7" cy="472" r="19.1"/><circle class="a" cx="540.1" cy="472" r="16.1"/><circle class="a" cx="572.5" cy="472" r="13"/><circle class="a" cx="604.9" cy="472" r="10.2"/><circle class="a" cx="637.3" cy="472" r="7.5"/><circle class="a" cx="669.7" cy="472" r="5.2"/><circle class="a" cx="702.1" cy="472" r="3.2"/><circle class="a" cx="734.5" cy="472" r="1.6"/><path class="a" d="m766.4 472c0-0.3 0.2-0.5 0.5-0.5 0.3 0 0.5 0.2 0.5 0.5 0 0.3-0.2 0.6-0.5 0.6-0.3 0-0.5-0.3-0.5-0.6z"/><path class="a" d="m102.3 504.4c0-0.2 0.2-0.4 0.5-0.4 0.2 0 0.4 0.2 0.4 0.4 0 0.3-0.2 0.5-0.4 0.5-0.3 0-0.5-0.2-0.5-0.5z"/><circle class="a" cx="135.2" cy="504.4" r="1.4"/><circle class="a" cx="167.6" cy="504.4" r="2.9"/><circle class="a" cx="200" cy="504.4" r="4.7"/><circle class="a" cx="232.4" cy="504.4" r="6.7"/><circle class="a" cx="264.8" cy="504.4" r="9"/><circle class="a" cx="297.1" cy="504.4" r="11.3"/><circle class="a" cx="329.5" cy="504.4" r="13.7"/><circle class="a" cx="361.9" cy="504.4" r="15.9"/><circle class="a" cx="394.3" cy="504.4" r="17.5"/><circle class="a" cx="426.7" cy="504.4" r="18.2"/><circle class="a" cx="459.1" cy="504.4" r="18"/><circle class="a" cx="491.5" cy="504.4" r="16.6"/><circle class="a" cx="523.9" cy="504.4" r="14.6"/><circle class="a" cx="556.3" cy="504.4" r="12.4"/><circle class="a" cx="588.7" cy="504.4" r="10"/><circle class="a" cx="621.1" cy="504.4" r="7.6"/><circle class="a" cx="653.5" cy="504.4" r="5.5"/><circle class="a" cx="685.9" cy="504.4" r="3.6"/><circle class="a" cx="718.3" cy="504.4" r="2"/><path class="a" d="m749.9 504.4c0-0.4 0.4-0.8 0.8-0.8 0.5 0 0.8 0.4 0.8 0.8 0 0.5-0.3 0.9-0.8 0.9-0.4 0-0.8-0.4-0.8-0.9z"/><path class="a" d="m783 504.4q0 0 0.1 0 0.1 0 0.1 0 0 0.1-0.1 0.1-0.1 0-0.1-0.1z"/><path class="a" d="m86.3 536.8c0-0.1 0.1-0.2 0.3-0.2 0.1 0 0.2 0.1 0.2 0.2 0 0.2-0.1 0.3-0.2 0.3-0.2 0-0.3-0.1-0.3-0.3z"/><circle class="a" cx="119" cy="536.8" r="1.1"/><circle class="a" cx="151.4" cy="536.8" r="2.3"/><circle class="a" cx="183.8" cy="536.8" r="3.9"/><circle class="a" cx="216.2" cy="536.8" r="5.6"/><circle class="a" cx="248.6" cy="536.8" r="7.4"/><circle class="a" cx="280.9" cy="536.8" r="9.2"/><circle class="a" cx="313.3" cy="536.8" r="10.9"/><circle class="a" cx="345.7" cy="536.8" r="12.2"/><circle class="a" cx="378.1" cy="536.8" r="13.1"/><circle class="a" cx="410.5" cy="536.8" r="13.4"/><circle class="a" cx="442.9" cy="536.8" r="12.9"/><circle class="a" cx="475.3" cy="536.8" r="11.9"/><circle class="a" cx="507.7" cy="536.8" r="10.4"/><circle class="a" cx="540.1" cy="536.8" r="8.7"/><circle class="a" cx="572.5" cy="536.8" r="6.9"/><circle class="a" cx="604.9" cy="536.8" r="5.1"/><circle class="a" cx="637.3" cy="536.8" r="3.4"/><circle class="a" cx="669.7" cy="536.8" r="2"/><path class="a" d="m701.2 536.8c0-0.5 0.4-0.9 0.9-0.9 0.5 0 0.9 0.4 0.9 0.9 0 0.5-0.4 0.9-0.9 0.9-0.5 0-0.9-0.4-0.9-0.9z"/><path class="a" d="m734.3 536.8c0-0.1 0.1-0.1 0.2-0.1 0.1 0 0.2 0 0.2 0.1 0 0.1-0.1 0.2-0.2 0.2-0.1 0-0.2-0.1-0.2-0.2z"/><path class="a" d="m102.7 569.2q0 0 0.1-0.1 0 0.1 0.1 0.1-0.1 0.1-0.1 0.1-0.1 0-0.1-0.1z"/><path class="a" d="m134.5 569.2c0-0.3 0.3-0.6 0.7-0.6 0.3 0 0.6 0.3 0.6 0.6 0 0.4-0.3 0.7-0.6 0.7-0.4 0-0.7-0.3-0.7-0.7z"/><circle class="a" cx="167.6" cy="569.2" r="1.5"/><circle class="a" cx="200" cy="569.2" r="2.7"/><circle class="a" cx="232.4" cy="569.2" r="4"/><circle class="a" cx="264.8" cy="569.2" r="5.4"/><circle class="a" cx="297.1" cy="569.2" r="6.6"/><circle class="a" cx="329.5" cy="569.2" r="7.8"/><circle class="a" cx="361.9" cy="569.2" r="8.6"/><circle class="a" cx="394.3" cy="569.2" r="9.1"/><circle class="a" cx="426.7" cy="569.2" r="9.2"/><circle class="a" cx="459.1" cy="569.2" r="8.7"/><circle class="a" cx="491.5" cy="569.2" r="7.9"/><circle class="a" cx="523.9" cy="569.2" r="6.7"/><circle class="a" cx="556.3" cy="569.2" r="5.5"/><circle class="a" cx="588.7" cy="569.2" r="4.1"/><circle class="a" cx="621.1" cy="569.2" r="2.8"/><circle class="a" cx="653.5" cy="569.2" r="1.6"/><path class="a" d="m685.2 569.2c0-0.4 0.3-0.7 0.7-0.7 0.4 0 0.7 0.3 0.7 0.7 0 0.4-0.3 0.8-0.7 0.8-0.4 0-0.7-0.4-0.7-0.8z"/><path class="a" d="m718.2 569.2q0 0 0.1-0.1 0.1 0.1 0.1 0.1 0 0.1-0.1 0.1-0.1 0-0.1-0.1z"/><path class="a" d="m118.8 601.6c0-0.1 0.1-0.1 0.2-0.1 0.1 0 0.1 0 0.1 0.1 0 0.1 0 0.2-0.1 0.2-0.1 0-0.2-0.1-0.2-0.2z"/><path class="a" d="m150.6 601.6c0-0.4 0.4-0.7 0.8-0.7 0.4 0 0.7 0.3 0.7 0.7 0 0.4-0.3 0.8-0.7 0.8-0.4 0-0.8-0.4-0.8-0.8z"/><circle class="a" cx="183.8" cy="601.6" r="1.5"/><circle class="a" cx="216.2" cy="601.6" r="2.4"/><circle class="a" cx="248.6" cy="601.6" r="3.3"/><circle class="a" cx="280.9" cy="601.6" r="4.2"/><circle class="a" cx="313.3" cy="601.6" r="4.9"/><circle class="a" cx="345.7" cy="601.6" r="5.4"/><circle class="a" cx="378.1" cy="601.6" r="5.7"/><circle class="a" cx="410.5" cy="601.6" r="5.6"/><circle class="a" cx="442.9" cy="601.6" r="5.1"/><circle class="a" cx="475.3" cy="601.6" r="4.5"/><circle class="a" cx="507.7" cy="601.6" r="3.7"/><circle class="a" cx="540.1" cy="601.6" r="2.8"/><circle class="a" cx="572.5" cy="601.6" r="1.9"/><circle class="a" cx="604.9" cy="601.6" r="1.1"/><path class="a" d="m637 601.6c0-0.2 0.1-0.3 0.3-0.3 0.2 0 0.4 0.1 0.4 0.3 0 0.2-0.2 0.4-0.4 0.4-0.2 0-0.3-0.2-0.3-0.4z"/><path class="a" d="m167.5 634q0 0 0.1-0.1 0 0.1 0.1 0.1-0.1 0.1-0.1 0.1-0.1 0-0.1-0.1z"/><path class="a" d="m199.4 634c0-0.3 0.3-0.5 0.6-0.5 0.3 0 0.5 0.2 0.5 0.5 0 0.3-0.2 0.6-0.5 0.6-0.3 0-0.6-0.3-0.6-0.6z"/><circle class="a" cx="232.4" cy="634" r="1.1"/><circle class="a" cx="264.8" cy="634" r="1.6"/><circle class="a" cx="297.1" cy="634" r="2.1"/><circle class="a" cx="329.5" cy="634" r="2.5"/><circle class="a" cx="361.9" cy="634" r="2.8"/><circle class="a" cx="394.3" cy="634" r="2.9"/><circle class="a" cx="426.7" cy="634" r="2.7"/><circle class="a" cx="459.1" cy="634" r="2.4"/><circle class="a" cx="491.5" cy="634" r="2"/><circle class="a" cx="523.9" cy="634" r="1.4"/><path class="a" d="m555.4 634c0-0.5 0.4-0.9 0.9-0.9 0.5 0 0.9 0.4 0.9 0.9 0 0.5-0.4 0.9-0.9 0.9-0.5 0-0.9-0.4-0.9-0.9z"/><path class="a" d="m588.4 634c0-0.2 0.1-0.3 0.3-0.3 0.2 0 0.4 0.1 0.4 0.3 0 0.2-0.2 0.4-0.4 0.4-0.2 0-0.3-0.2-0.3-0.4z"/><path class="a" d="m621 634q0 0 0.1-0.1 0.1 0.1 0.1 0.1 0 0.1-0.1 0.1-0.1 0-0.1-0.1z"/><path class="a" d="m216 666.4c0-0.1 0.1-0.2 0.2-0.2 0.1 0 0.1 0.1 0.1 0.2 0 0.1 0 0.2-0.1 0.2-0.1 0-0.2-0.1-0.2-0.2z"/><path class="a" d="m248.2 666.4c0-0.2 0.2-0.3 0.4-0.3 0.2 0 0.3 0.1 0.3 0.3 0 0.2-0.1 0.4-0.3 0.4-0.2 0-0.4-0.2-0.4-0.4z"/><path class="a" d="m280.3 666.4c0-0.3 0.3-0.6 0.6-0.6 0.4 0 0.7 0.3 0.7 0.6 0 0.4-0.3 0.7-0.7 0.7-0.3 0-0.6-0.3-0.6-0.7z"/><path class="a" d="m312.5 666.4c0-0.4 0.4-0.8 0.8-0.8 0.5 0 0.9 0.4 0.9 0.8 0 0.5-0.4 0.8-0.9 0.8-0.4 0-0.8-0.3-0.8-0.8z"/><path class="a" d="m344.8 666.4c0-0.5 0.4-0.9 0.9-0.9 0.5 0 0.9 0.4 0.9 0.9 0 0.5-0.4 0.9-0.9 0.9-0.5 0-0.9-0.4-0.9-0.9z"/><path class="a" d="m377.2 666.4c0-0.5 0.4-0.9 0.9-0.9 0.5 0 0.9 0.4 0.9 0.9 0 0.5-0.4 0.9-0.9 0.9-0.5 0-0.9-0.4-0.9-0.9z"/><path class="a" d="m409.7 666.4c0-0.4 0.4-0.8 0.8-0.8 0.5 0 0.8 0.4 0.8 0.8 0 0.5-0.3 0.8-0.8 0.8-0.4 0-0.8-0.3-0.8-0.8z"/><path class="a" d="m442.3 666.4c0-0.3 0.3-0.6 0.6-0.6 0.4 0 0.7 0.3 0.7 0.6 0 0.4-0.3 0.7-0.7 0.7-0.3 0-0.6-0.3-0.6-0.7z"/><path class="a" d="m475 666.4c0-0.2 0.1-0.3 0.3-0.3 0.2 0 0.4 0.1 0.4 0.3 0 0.2-0.2 0.4-0.4 0.4-0.2 0-0.3-0.2-0.3-0.4z"/><path class="a" d="m507.5 666.4c0-0.1 0.1-0.2 0.2-0.2 0.1 0 0.2 0.1 0.2 0.2 0 0.1-0.1 0.2-0.2 0.2-0.1 0-0.2-0.1-0.2-0.2z"/><path fill-rule="evenodd" class="b" d="m495.4 692.4l-97.1-98c-20.1 1.5-42.2 2.1-67.2 1.7-98.1-1.5-190.7-43.6-247.7-112.7-36.1-43.9-54.5-94.9-53.2-147.4 5.3-212.8 233.7-271.1 303.5-284 185.2-34 312.5 30.8 340.6 173.1 27.4 138.7-52.2 297.6-171.6 346.9zm-86.7-134.6l60.6 61.3 4.5-73.6 10-3.6c122.2-43.4 182.8-197.6 160.9-308.8-10.8-54.6-40.3-97.3-85.2-123.6-54.5-31.8-128.8-39.3-221-22.4-64 11.8-273.2 64.5-277.8 249.9-1.1 42.8 14.4 84.9 44.8 121.8 51.3 62.4 135.8 100.5 226 101.8 26.8 0.4 50-0.4 70.9-2.2z"/><path class="a" d="m55.6 326.3c4.6-184.6 192.1-248.9 290.7-267 438.3-80.4 382.8 407.4 152.1 489.3l-5.9 96.9-78.8-79.6c-23 2-47.2 2.5-72.3 2.2-155.5-2.3-289-111.1-285.8-241.8z"/><path class="b" d="m389.4 625.1q-5 2.7-14.1 6.2c-4.5 1.8-10.1 3.6-16.6 5.6-6.5 1.8-13.9 4-22 5.5-8.1 1.6-17 3.3-26.5 4-9.4 1.2-19.4 1.6-29.8 1.8-5.2 0.3-10.4-0.3-15.8-0.5-5.3-0.4-10.8-0.5-16.2-1.2q-8.1-1.3-16.4-2.5l-8.2-1.4-8.2-2c-10.9-2.9-21.8-5.6-32.2-10.1q-7.8-3.1-15.4-6.1-7.4-4-14.5-7.8c-4.7-2.6-9.5-5-13.9-7.8q-6.4-4.6-12.5-9.1-6.1-4.4-11.8-8.6c-3.7-2.9-6.9-6.5-10.2-9.5-6.4-6.1-12.3-11.8-17.1-17.1-4.6-5.8-8.5-11-11.6-15.2q-6.3-8.5-9.6-13.4 4.8 3.3 12.7 9.4c3.9 3 8.7 6.7 14 11 5.6 3.7 12 7.9 19 12.4 3.5 2.2 6.9 4.9 10.8 6.9q5.8 3.1 12 6.4 6.1 3.3 12.6 6.8 6.6 2.8 13.5 5.7 6.9 3 14 6.1 7.2 2.4 14.7 4.8c9.7 3.7 20 6.2 30.2 8.7l7.6 2 7.8 1.4q7.7 1.5 15.3 3c10.3 1.3 20.4 2.9 30.2 3.8 9.9 0.7 19.4 1.9 28.6 2 9.1 0.5 17.7 0.6 25.7 0.7 8 0 15.4-0.3 21.9-0.3 6.6-0.4 12.3-0.3 17.1-0.7q9.4-0.4 14.9-0.9z"/><path class="b" d="m0.1 242.2q1.6-7 5.5-18.7c3.9-11.7 10.1-28.2 19.6-46.9 4.6-9.4 10.1-19.3 16.4-29.4 6.3-10 13.2-20.5 21.1-30.5 7.9-10.1 16.3-20.3 25.8-29.6 9.2-9.6 19.4-18.3 29.7-26.6 5.3-4.1 10.8-7.7 16.2-11.5 5.5-3.3 10.9-7 16.6-10 11.1-6.4 22.6-11.3 33.9-15.4 11.1-4.3 22.3-7.1 32.9-9.2 5.4-0.9 10.5-2.2 15.5-2.6q7.6-0.7 14.6-1.3c9.3-0.2 17.8-0.4 25.4 0.2 7.5 0.7 14 1.1 19.4 2.2q10.7 1.9 16.7 3.2-6.2 0.6-16.8 1.4c-5.4 0.1-11.8 1.4-19.1 2.1-3.7 0.3-7.5 1.1-11.6 1.8-4.1 0.8-8.3 1.3-12.8 2.3-8.8 2.1-18.3 4.4-28.1 7.5-5 1.3-9.9 3.4-15 5.3-5.2 1.8-10.3 4-15.4 6.3-10.5 4.3-20.7 10.2-31.2 16.1-5.2 3-10.2 6.5-15.3 9.8-5 3.6-10.1 7.2-14.9 11-9.9 7.6-19.5 15.5-28.4 24.4-4.5 4.2-8.8 8.8-13.2 13.1-4.2 4.5-8.4 8.9-12.3 13.5-7.9 9.2-15.4 18.2-22.2 27.2-6.7 9.1-13 17.8-18.5 26.1-11.1 16.6-19.7 31.2-25.6 41.6q-5.8 10.4-8.9 16.6z"/><path class="b" d="m24.4 121.2q1-3.5 3.5-9.2c1.2-2.9 2.7-6.3 4.7-10.2 2-3.7 4.2-8.2 7-12.5 2.7-4.5 5.7-9.3 9.2-14.1 3.4-4.9 7.5-9.5 11.5-14.5 4.3-4.7 8.7-9.7 13.6-14.2 4.9-4.5 9.8-9.1 15.2-13.1l7.9-6c2.7-1.9 5.5-3.5 8.3-5.3 5.4-3.6 11.1-6.4 16.6-9 5.4-2.8 11-4.7 16.2-6.4q3.9-1.3 7.6-2.5c2.5-0.6 5-1 7.4-1.4 4.6-1 8.9-1.7 12.7-2.1 3.9-0.2 7.2-0.1 10-0.1q5.5 0 8.6 0.3-2.9 1.7-7.9 4.2c-2.4 1.2-5.4 2.7-8.9 4.2-3.3 1.8-7.1 4.1-11.2 6.1-4.1 2-8.4 4.7-12.9 7.5-4.6 2.6-9.3 5.4-14.1 8.7q-3.6 2.3-7.3 4.7c-2.4 1.7-4.8 3.6-7.3 5.3q-3.7 2.6-7.5 5.2l-7.3 5.8c-5 3.5-9.6 7.8-14.4 11.6-4.7 4-9.3 8-13.7 11.8-4.3 4.1-8.8 7.7-12.7 11.6-4 3.7-7.8 7.2-11.3 10.6-7 6.9-12.9 12.6-17 16.6q-4.1 4.1-6.5 6.4z"/><path class="c" d="m217.4 186.5c126.7-167.3 374.9-52 228.7 121.6-63.8 75.9 46.7 67.1-84.5 99.4-19-46-27.9-58.8-21-78.2 12.3-35.3 46.7-50.8 58.1-88.9 12.9-42.9-28.8-77.1-83-45.2-57.6 33.8-30.2 52-98.3-8.7z"/><path class="c" d="m364.1 491.4c-15.2-59.3 80.6-82.3 95.7-23.5 15.1 59-80.5 83-95.7 23.5z"/><g style="mix-blend-mode:multiply"><path fill-rule="evenodd" class="d" d="m360 410.3l-0.8-1.9c-3.4-8.4-6.5-15.6-9.3-22-12.5-29.1-17.6-41.1-11.7-57.9 6.1-17.3 17.5-30.2 28.5-42.6 11.7-13.2 23.8-26.8 29.6-46.1 5.6-18.7 0.5-36.6-13.3-46.7-16.5-12-41.2-10.5-66 4.1-14.8 8.7-23.8 16.3-30.4 21.8-19 15.9-20.5 14.6-58.1-19.2q-5.8-5.2-12.8-11.5l-1.7-1.4 1.4-1.8c44.1-58.2 108.5-88.7 172.3-81.5 46.7 5.2 83.5 29.8 98.5 65.8 17.1 41 3.5 90.8-38.1 140.2-27.5 32.6-21.7 48.9-17.9 59.7 1.8 5.3 3.4 9.8 0.8 14.5-4.6 8-21.3 14.3-68.8 26zm-15.8-228.9c15.8-3 30.5-0.4 41.8 7.8 15.5 11.4 21.3 31.2 15.1 51.8-6.1 20.4-18.6 34.4-30.7 48-11.1 12.6-21.7 24.5-27.5 41-5.3 15.1-0.7 25.8 11.7 54.5 2.5 5.9 5.3 12.5 8.5 20 42.6-10.5 59.9-16.8 63.4-23.1 1.5-2.6 0.6-5.4-1.2-10.5-4.1-11.8-10.4-29.6 18.8-64.3 40.4-48.1 53.7-96.1 37.3-135.4-14.3-34.3-49.6-57.8-94.4-62.8-61.3-6.9-123.3 22.2-166.3 77.8q6.1 5.4 11.2 10c35.8 32.1 35.8 32.1 51.3 19.1 6.8-5.6 16-13.4 31.1-22.2 10.1-6 20.2-9.9 29.9-11.7z"/></g><g style="mix-blend-mode:multiply"><path fill-rule="evenodd" class="d" d="m420.4 527.2c-8.5 1.6-17.4 1.4-25.6-0.8-16.9-4.5-28.7-16.8-33.2-34.4-4.5-17.5 0-33.7 12.7-45.5 14-13 36-18.4 54.7-13.4 17 4.6 28.7 16.7 33.2 34.2 4.5 17.5 0 33.7-12.8 45.6-7.8 7.3-18.2 12.2-29 14.3zm-16.4-90.1c-9.8 1.8-19.1 6.3-26.2 12.9-11.3 10.5-15.3 25-11.3 40.8 4.1 15.9 14.6 26.9 29.7 30.9 16.9 4.6 36.9-0.3 49.7-12.3 11.4-10.6 15.4-25.1 11.4-40.9-4-15.7-14.6-26.6-29.7-30.7-7.6-2-15.7-2.2-23.6-0.7z"/></g><g style="mix-blend-mode:multiply"><path class="d" d="m351.1 427l-5.5-13.3c-3.4-8.3-6.5-15.5-9.2-21.8-13.1-30.6-19.7-46-12.1-67.7 7-20 19.3-33.9 31.3-47.3q3.5-3.9 6.8-7.8l3.9 3c-2.2 2.7-4.5 5.3-6.9 7.9-11.6 13.1-23.6 26.6-30.3 45.7-7 20-0.7 34.8 12 64.3 2.7 6.4 5.8 13.6 9.2 21.8l3.9 9.4 10.3-2.5c52.5-12.9 68.6-19.5 74.9-30.6 4.7-8.2 2-15.8-0.2-21.8-3.4-9.8-7.7-21.9 15.2-49.5l3.9 2.9c-21.1 25.6-17.3 36.3-14.3 44.9 2.2 6.3 5.6 15.7-0.2 25.8-7.1 12.6-23.9 19.7-78.1 33z"/><path class="d" d="m388.7 220.6l-5 0.6q-0.1-0.9-0.3-1.8c-1-5-3.2-9.3-6.7-12.7-2.1-2.1-4.6-3.8-7.4-5l2.1-4.4c3.4 1.4 6.4 3.5 9 6 4.1 4 6.8 9.3 8 15.2q0.2 1 0.3 2.1z"/><path class="d" d="m273.7 242.5c-15.9 3-26.4-6.4-55.2-32.4-3.9-3.4-8.1-7.2-12.8-11.4l-11.1-9.9 9-11.9c32.2-42.6 74.3-71.3 121.5-82.9 4.7-1.1 9.6-2.2 14.4-3l0.8 4.8c-4.6 0.8-9.4 1.8-14 2.9-46.1 11.4-87.1 39.4-118.6 81.1l-6.4 8.3 7.8 7q7.1 6.3 12.8 11.5c28.6 25.6 38.3 34.3 52.6 30.7 6.6-1.6 11.8-5.9 18.3-11.4 6.4-5.3 15.1-12.6 29.1-20.8 6.6-3.9 13.3-6.8 19.6-8.6l1.4 4.6c-5.9 1.7-12.1 4.4-18.4 8.1-13.7 8-22.2 15.2-28.4 20.4-7 5.9-12.6 10.5-20.4 12.4q-1 0.3-2 0.5z"/><path class="d" d="m502.4 243l-4.9-1.3c5.9-19.5 7.1-38.4 3.6-56-1.8-9.3-4.9-18.3-9.2-26.8l4.5-2.2c4.6 8.9 7.8 18.3 9.7 28 3.6 18.4 2.4 38.1-3.7 58.3z"/></g><g style="mix-blend-mode:multiply"><path class="d" d="m423.2 541c-29.5 5.6-65.8-6.3-75.8-45.5q-0.5-2.1-0.9-4.1c-7.3-37.4 19.5-64.5 49.8-72 30.5-7.5 69.7 3.5 80.1 44.4q0.6 2.1 1 4.1c3.4 17.7-0.4 34.2-11.2 47.8l-4-2.9c9.8-12.5 13.4-27.7 10.2-43.9q-0.4-1.9-0.9-3.9c-9.6-37.7-45.8-47.9-74-40.9-27.1 6.7-53.1 30.3-46.1 66.3q0.4 2 0.9 3.9c9.3 36.1 42.8 47.1 70 41.9q1.9-0.3 3.7-0.8l1.2 4.7q-2 0.5-4 0.9z"/></g></svg>