<svg xmlns="http://www.w3.org/2000/svg" xmlns:xlink="http://www.w3.org/1999/xlink" width="823.721" height="800.132" viewBox="0 0 823.721 800.132">
  <defs>
    <linearGradient id="linear-gradient" x1="0.5" x2="0.578" y2="1.15" gradientUnits="objectBoundingBox">
      <stop offset="0" stop-color="#6ea8ff"/>
      <stop offset="1" stop-color="#ff7dd4"/>
    </linearGradient>
  </defs>
  <g id="Group_1" data-name="Group 1" transform="translate(-339.934 -101.605)">
    <path id="Path_107" data-name="Path 107" d="M304.532,458.248C258.852,361.813,342.635,113.4,484.351,31.9s366.163-87.734,536.556,14.5,76.858,154.441-14.5,310.332c-39.65,67.657-70.517,182.015-72.508,255.227-2.6,95.666-32.537,143.894-98.61,156.616C718.55,791.058,726.526,593.837,617.765,504.653S350.212,554.683,304.532,458.248Z" transform="translate(47.915 131.385)" fill="url(#linear-gradient)"/>
    <path id="Path_1" data-name="Path 1" d="M523.875,37.305a12.2,12.2,0,1,0,13.487-10.843A12.23,12.23,0,0,0,523.875,37.305Z" transform="translate(180.131 145.238)" fill="none" stroke="#fff" stroke-linecap="round" stroke-linejoin="round" stroke-width="3"/>
    <path id="Path_2" data-name="Path 2" d="M595.976,69.939a12.11,12.11,0,0,0,10.776,13.487,12.207,12.207,0,1,0-10.776-13.487Z" transform="translate(60.363 134.157)" fill="none" stroke="#fff" stroke-linecap="round" stroke-linejoin="round" stroke-width="3"/>
    <path id="Path_3" data-name="Path 3" d="M527.776,120.005a12.2,12.2,0,1,0,13.487-10.842A12.183,12.183,0,0,0,527.776,120.005Z" transform="translate(173.652 117.214)" fill="none" stroke="#fff" stroke-linecap="round" stroke-linejoin="round" stroke-width="3"/>
    <path id="Path_4" data-name="Path 4" d="M540.3,93.646,542.812,63.3" transform="translate(174.615 132.731)" fill="none" stroke="#fff" stroke-linecap="round" stroke-linejoin="round" stroke-width="3"/>
    <path id="Path_5" data-name="Path 5" d="M585.8,50.2,561.4,62.3" transform="translate(117.681 137.17)" fill="none" stroke="#fff" stroke-linecap="round" stroke-linejoin="round" stroke-width="3"/>
    <path id="Path_6" data-name="Path 6" d="M588.23,109.536q-.661-.926-24.33-19.636" transform="translate(113.595 123.717)" fill="none" stroke="#fff" stroke-linecap="round" stroke-linejoin="round" stroke-width="3"/>
    <path id="Path_7" data-name="Path 7" d="M58.86,375.936c-15.669,27.04-22.677,52.3-15.735,56.262,7.008,4.033,25.321-14.611,40.99-41.717,15.6-27.04,22.611-52.3,15.669-56.262-7.008-4.033-25.321,14.611-40.924,41.717Z" transform="translate(945.43 41.11)" fill="rgba(0,0,0,0.01)" stroke="#fcfcfc" stroke-linecap="round" stroke-linejoin="round" stroke-width="3"/>
    <path id="Path_8" data-name="Path 8" d="M43.125,334.219c-6.942,3.967.066,29.222,15.735,56.262,15.6,27.106,33.916,45.75,40.924,41.717,6.942-3.967-.066-29.222-15.669-56.262C68.446,348.83,50.133,330.186,43.125,334.219Z" transform="translate(945.43 41.11)" fill="rgba(0,0,0,0.01)" stroke="#fcfcfc" stroke-linecap="round" stroke-linejoin="round" stroke-width="3"/>
    <ellipse id="Ellipse_1" data-name="Ellipse 1" cx="56.593" cy="14.611" rx="56.593" ry="14.611" transform="translate(960.325 406.137)" fill="rgba(0,0,0,0.01)" stroke="#fcfcfc" stroke-linecap="round" stroke-linejoin="round" stroke-width="3"/>
    <path id="Path_9" data-name="Path 9" d="M850.41,507.4q-17.851,16.528-39.271,9.917-21.354-6.677-32.594,13.553-9.652,13.95-1.454,33.916,6.148,11.9-5.091,28.693" transform="translate(-286.167 -17.762)" fill="none" stroke="#fff" stroke-linecap="round" stroke-linejoin="round" stroke-width="3"/>
    <path id="Path_10" data-name="Path 10" d="M817.1,552.864q15.4-13.09,27.966-8.33,20.759,5.752,33.519-5.421,18.71-13.487,9.652-33.982T893.526,465" transform="translate(-359.1 -3.394)" fill="none" stroke="#fff" stroke-linecap="round" stroke-linejoin="round" stroke-width="3"/>
    <path id="Path_11" data-name="Path 11" d="M818.595,513.157,798.1,496.1" transform="translate(-271.607 -13.933)" fill="none" stroke="#aaaae0" stroke-linecap="round" stroke-linejoin="round" stroke-width="3"/>
    <path id="Path_12" data-name="Path 12" d="M810.028,501.911,781.6,479.3" transform="translate(-252.132 -8.24)" fill="none" stroke="#aaaae0" stroke-linecap="round" stroke-linejoin="round" stroke-width="3"/>
    <path id="Path_13" data-name="Path 13" d="M881.2,587l20.429,17.123" transform="translate(-409.581 -44.736)" fill="none" stroke="#fff" stroke-linecap="round" stroke-linejoin="round" stroke-width="3"/>
    <path id="Path_14" data-name="Path 14" d="M887.5,595.5l27.239,21.685" transform="translate(-426.855 -47.617)" fill="none" stroke="#fff" stroke-linecap="round" stroke-linejoin="round" stroke-width="3"/>
    <path id="Path_15" data-name="Path 15" d="M850.05,546.227,824.2,525.6" transform="translate(-320.318 -23.929)" fill="none" stroke="#aaaae0" stroke-linecap="round" stroke-linejoin="round" stroke-width="3"/>
    <path id="Path_16" data-name="Path 16" d="M861.2,558.851,833.9,537.1" transform="translate(-337.885 -27.826)" fill="none" stroke="#fff" stroke-linecap="round" stroke-linejoin="round" stroke-width="3"/>
    <path id="Path_17" data-name="Path 17" d="M870.363,571.371,846.1,552" transform="translate(-355.11 -32.876)" fill="none" stroke="#fff" stroke-linecap="round" stroke-linejoin="round" stroke-width="3"/>
    <circle id="Ellipse_2" data-name="Ellipse 2" cx="11.9" cy="11.9" r="11.9" transform="translate(1002.836 692.274)" fill="none" stroke="#000" stroke-width="2"/>
    <circle id="Ellipse_3" data-name="Ellipse 3" cx="6.942" cy="6.942" r="6.942" transform="translate(467.322 397.278)" fill="none" stroke="#bfbfd8" stroke-width="2"/>
    <circle id="Ellipse_4" data-name="Ellipse 4" cx="6.942" cy="6.942" r="6.942" transform="translate(1030.868 568.907)" fill="none" stroke="#000" stroke-width="2"/>
    <circle id="Ellipse_5" data-name="Ellipse 5" cx="6.942" cy="6.942" r="6.942" transform="translate(502.692 710.984)" fill="none" stroke="#bfbfd8" stroke-width="2"/>
    <circle id="Ellipse_6" data-name="Ellipse 6" cx="6.942" cy="6.942" r="6.942" transform="translate(837.422 168.462)" fill="none" stroke="#bfbfd8" stroke-width="2"/>
    <path id="Path_18" data-name="Path 18" d="M709.542,815.078,682.7,784.6" transform="translate(-86.26 -111.697)" fill="none" stroke="#fff" stroke-linecap="round" stroke-linejoin="round" stroke-width="16.1"/>
    <path id="Path_19" data-name="Path 19" d="M664.228,811.964a18.333,18.333,0,1,0,21.883,13.818,18.315,18.315,0,0,0-21.883-13.818Z" transform="translate(-41.607 -120.814)" fill="#009bc7"/>
    <path id="Path_20" data-name="Path 20" d="M695.413,831.9a13.122,13.122,0,0,0-.6,7.669" transform="translate(-79.932 -127.726)" fill="none" stroke="#fff" stroke-linecap="round" stroke-linejoin="round" stroke-width="2.1"/>
    <path id="Path_21" data-name="Path 21" d="M714.007,691,694.9,714.933" transform="translate(-98.79 -79.979)" fill="none" stroke="#fff" stroke-linecap="round" stroke-linejoin="round" stroke-width="16.1"/>
    <path id="Path_22" data-name="Path 22" d="M697.983,677.621a18.336,18.336,0,1,0-22.214,13.355A18.3,18.3,0,0,0,697.983,677.621Z" transform="translate(-61.478 -67.724)" fill="#009bc7"/>
    <path id="Path_23" data-name="Path 23" d="M689.815,663.009a13.168,13.168,0,0,0-6.215,0" transform="translate(-67.127 -70.367)" fill="none" stroke="#fff" stroke-linecap="round" stroke-linejoin="round" stroke-width="2.1"/>
    <path id="Path_24" data-name="Path 24" d="M726.9,703.446a36.023,36.023,0,1,0,43.039,27.238A36.035,36.035,0,0,0,726.9,703.446Z" transform="translate(-158.23 -83.896)" fill="#aaaae0"/>
    <path id="Path_25" data-name="Path 25" d="M712.574,764.1a26.77,26.77,0,0,0,1.256-16" transform="translate(-110.977 -99.328)" fill="none" stroke="#fff" stroke-linecap="round" stroke-linejoin="round" stroke-width="2.1"/>
    <path id="Path_26" data-name="Path 26" d="M819.667,750.155,772,744.8" transform="translate(-255.424 -98.21)" fill="none" stroke="#fff" stroke-linecap="round" stroke-linejoin="round" stroke-width="16.1"/>
    <path id="Path_27" data-name="Path 27" d="M838.771,718.3a18.344,18.344,0,1,0,20.826,15.47A18.387,18.387,0,0,0,838.771,718.3Z" transform="translate(-329.335 -89.165)" fill="#009bc7"/>
    <path id="Path_28" data-name="Path 28" d="M855.852,728.7a12.8,12.8,0,0,0-5.752,2.446" transform="translate(-343.243 -92.754)" fill="none" stroke="#fff" stroke-linecap="round" stroke-linejoin="round" stroke-width="2.1"/>
    <path id="Path_29" data-name="Path 29" d="M118.435,181.521,90.8,168.1" transform="translate(896.169 97.217)" fill="none" stroke="#fff" stroke-linecap="round" stroke-linejoin="round" stroke-width="13.5"/>
    <path id="Path_30" data-name="Path 30" d="M65.5,173.227a15.39,15.39,0,1,0,21.751,1.388A15.394,15.394,0,0,0,65.5,173.227Z" transform="translate(943.752 96.784)" fill="#009bc7"/>
    <path id="Path_31" data-name="Path 31" d="M97.749,182.2a11.149,11.149,0,0,0-2.049,4.826" transform="translate(913.615 92.439)" fill="none" stroke="#fff" stroke-linecap="round" stroke-linejoin="round" stroke-width="1.8"/>
    <path id="Path_32" data-name="Path 32" d="M152.217,55.4,142.3,99.563" transform="translate(828.339 135.408)" fill="none" stroke="#fff" stroke-linecap="round" stroke-linejoin="round" stroke-width="13.5"/>
    <path id="Path_33" data-name="Path 33" d="M148.767,35.291a15.4,15.4,0,1,0-11.041,18.776A15.422,15.422,0,0,0,148.767,35.291Z" transform="translate(847.061 146.129)" fill="#009bc7"/>
    <path id="Path_34" data-name="Path 34" d="M149.662,30.3a10.793,10.793,0,0,0-4.562,2.578" transform="translate(829.043 143.914)" fill="none" stroke="#fff" stroke-linecap="round" stroke-linejoin="round" stroke-width="1.8"/>
    <path id="Path_35" data-name="Path 35" d="M131.678,117.842a30.288,30.288,0,1,0,42.709,2.777,30.193,30.193,0,0,0-42.709-2.777Z" transform="translate(812.515 116.799)" fill="#aaaae0"/>
    <path id="Path_36" data-name="Path 36" d="M133,178.6a23.273,23.273,0,0,0,7.8-4.5,22.69,22.69,0,0,0,7.6-15.206" transform="translate(838.3 100.335)" fill="none" stroke="#fff" stroke-linecap="round" stroke-linejoin="round" stroke-width="1.8"/>
    <path id="Path_37" data-name="Path 37" d="M235.945,159.6,189.6,180.558" transform="translate(713.339 100.098)" fill="none" stroke="#fff" stroke-linecap="round" stroke-linejoin="round" stroke-width="13.5"/>
    <path id="Path_38" data-name="Path 38" d="M247.094,174.528a15.437,15.437,0,1,0,18.578,24.66,15.437,15.437,0,0,0-18.578-24.66Z" transform="translate(643.482 96.078)" fill="#009bc7"/>
    <path id="Path_39" data-name="Path 39" d="M272.14,181.3a10.294,10.294,0,0,0-3.24,4.1" transform="translate(624.718 92.744)" fill="none" stroke="#fff" stroke-linecap="round" stroke-linejoin="round" stroke-width="1.8"/>
    <path id="Path_40" data-name="Path 40" d="M751.6,171.6q-24.329,22.28-9.983,40.329t37.684,23.8l11.305,31.536,31.271-17.784-18.049-49.849c-12.826-2.777-24.263-9.983-31.47-22.082l-8.727-5.091Z" transform="translate(-234.037 96.031)" fill="#f4b79b"/>
    <path id="Path_41" data-name="Path 41" d="M821.249,156l-41.783,45.75a4.8,4.8,0,0,0,2.38,7.867l65.386,16.462a4.833,4.833,0,0,0,5.884-5.752L839.43,160.5Z" transform="translate(-293.103 101.317)" fill="#feffff"/>
    <path id="Path_42" data-name="Path 42" d="M782,142.467l18.181,4.562L814,91.3l-18.181-4.5Z" transform="translate(-256.367 124.767)" fill="#feffff"/>
    <path id="Path_43" data-name="Path 43" d="M781.98,85.864c-.463,1.917,3.24,4.43,8.264,5.686s9.454.727,9.917-1.19c.463-1.851-3.24-4.43-8.2-5.686C786.938,83.484,782.443,84.013,781.98,85.864Z" transform="translate(-242.529 125.703)" fill="#cac9e2"/>
    <path id="Path_44" data-name="Path 44" d="M814.6,204.878q11.173-16.793,30.478,4.231Q823.658,221.406,814.6,204.878Z" transform="translate(-308.999 87.281)" fill="#bfbfef"/>
    <path id="Path_45" data-name="Path 45" d="M822.024,209.729q-7.4,5.223-21.421-2.049l-9.057,9.124a3.559,3.559,0,0,0,1.719,5.95l49.32,12.231a3.546,3.546,0,0,0,4.3-4.3l-5.95-24.726q-11.636-1.322-18.908,3.768Z" transform="translate(-295.002 84.48)" fill="#aaaae0"/>
    <circle id="Ellipse_7" data-name="Ellipse 7" cx="1.124" cy="1.124" r="1.124" transform="translate(540.178 304.985)" fill="#feffff"/>
    <circle id="Ellipse_8" data-name="Ellipse 8" cx="1.124" cy="1.124" r="1.124" transform="translate(516.642 298.043)" fill="#feffff"/>
    <path id="Path_46" data-name="Path 46" d="M826.505,232.255a1.566,1.566,0,0,0,1.19,1.983,1.7,1.7,0,0,0,1.983-1.19,1.632,1.632,0,0,0-1.19-1.983A1.54,1.54,0,0,0,826.505,232.255Z" transform="translate(-301.467 75.903)" fill="#feffff"/>
    <path id="Path_47" data-name="Path 47" d="M791.35,215.985l-8.529-34.313a10.25,10.25,0,0,0-3.768-4.892l-14.875-7.8A6.513,6.513,0,0,0,754,173.144a6.619,6.619,0,0,0,1.521,5.487l12.429,14.214,12.231,27.04Z" transform="translate(-215.14 97.33)" fill="#f4b79b"/>
    <path id="Path_48" data-name="Path 48" d="M821.708,152.669l-.529.859a6.5,6.5,0,0,0,1.719,9.454l5.95,3.7a6.185,6.185,0,0,0,8.463-1.851,6.679,6.679,0,0,0-1.124-8.793l-5.421-4.5A6.215,6.215,0,0,0,821.708,152.669Z" transform="translate(-305.859 103.327)" fill="#f4b79b"/>
    <path id="Path_49" data-name="Path 49" d="M848.93,195.834l-.529.727a5.673,5.673,0,0,0,1.653,8.33l5.487,3.306a5.966,5.966,0,0,0,7.8-1.587,5.7,5.7,0,0,0-1.124-7.735l-4.958-4.033A5.9,5.9,0,0,0,848.93,195.834Z" transform="translate(-349.874 88.589)" fill="#f4b79b"/>
    <path id="Path_50" data-name="Path 50" d="M839.849,183.387l-.6.727c-2.38,2.711-1.322,6.677,2.182,8.529l6.611,3.57c3.107,1.653,7.074,1.058,9.057-1.388s1.322-5.95-1.521-7.934l-5.95-4.231C846.526,180.478,842.1,180.809,839.849,183.387Z" transform="translate(-337.619 92.772)" fill="#f4b79b"/>
    <path id="Path_51" data-name="Path 51" d="M828.6,165.452l-.6.793a6.6,6.6,0,0,0,1.719,9.454l10.38,7.008a6.247,6.247,0,0,0,8.462-1.851,6.607,6.607,0,0,0-1.124-8.793l-9.785-7.8a6.225,6.225,0,0,0-9.057,1.19Z" transform="translate(-321.674 99.006)" fill="#f4b79b"/>
    <path id="Path_52" data-name="Path 52" d="M841.836,172.259,830.2,163.4" transform="translate(-316.07 98.81)" fill="none" stroke="#e59b7f" stroke-linecap="round" stroke-linejoin="round" stroke-width="3"/>
    <path id="Path_53" data-name="Path 53" d="M859.965,201.969,847.8,194.3" transform="translate(-345.835 88.339)" fill="none" stroke="#e59b7f" stroke-linecap="round" stroke-linejoin="round" stroke-width="3"/>
    <path id="Path_54" data-name="Path 54" d="M850.9,190.1,839,182.3" transform="translate(-330.953 92.405)" fill="none" stroke="#e59b7f" stroke-linecap="round" stroke-linejoin="round" stroke-width="3"/>
    <path id="Path_55" data-name="Path 55" d="M735.489,68.625a8.154,8.154,0,1,0,8.727-7.537A8.148,8.148,0,0,0,735.489,68.625Z" transform="translate(-163.378 133.488)" fill="#fff"/>
    <path id="Path_56" data-name="Path 56" d="M827.193,61.323a4.772,4.772,0,1,0,5.091-4.43A4.75,4.75,0,0,0,827.193,61.323Z" transform="translate(-308.964 134.907)" fill="#fff"/>
    <path id="Path_57" data-name="Path 57" d="M768.484,11.432A11.467,11.467,0,1,0,780.781.788,11.485,11.485,0,0,0,768.484,11.432Z" transform="translate(-224.802 153.922)" fill="#fff"/>
    <path id="Path_58" data-name="Path 58" d="M598.278,405.8c-14.677.2-39.469,4.1-65.848,8.462-34.908,5.752-68.89,10.909-88.988,12.76-23.6,2.182-40.395,20.1-38.147,42.775a38.922,38.922,0,0,0,41.254,35.172l102.012-17.917,52.427-8.859a36.233,36.233,0,0,0-2.711-72.394Z" transform="translate(171.841 16.669)" fill="#fff"/>
    <path id="Path_59" data-name="Path 59" d="M636.211,277.46l38.874,148.754A38.689,38.689,0,1,0,749,403.736L682.49,260.8Z" transform="translate(-97.355 65.804)" fill="#fff"/>
    <path id="Path_60" data-name="Path 60" d="M779.027,285,730.5,303.313" transform="translate(-187.347 57.603)" fill="none" stroke="#d7eef4" stroke-width="2.8"/>
    <path id="Path_61" data-name="Path 61" d="M646.1,425.7l11.438,26.445" transform="translate(-10.058 9.924)" fill="none" stroke="#d7eef4" stroke-width="2.8"/>
    <path id="Path_62" data-name="Path 62" d="M527.479,167.5q-76.426,7.14-55.469,53.618,12.363,27.569,55.535,18.181Z" transform="translate(238.012 97.42)" fill="#060606"/>
    <path id="Path_63" data-name="Path 63" d="M340.211,220.4q12.694,17.586-15.536,46.94c-11.438,11.966-16.132,27.371-12.363,37.155,5.818,14.941,22.214,20.958,38.279,21.222,26.643.529,77.352-1.19,105.119-7.867q55.4-13.355-15.47-113.45Z" transform="translate(388.984 84.916)" fill="#060606"/>
    <ellipse id="Ellipse_9" data-name="Ellipse 9" cx="57.188" cy="54.609" rx="57.188" ry="54.609" transform="translate(724.038 262.937)" fill="#060606"/>
    <path id="Path_64" data-name="Path 64" d="M518.581,256.37a14.786,14.786,0,1,0,9.851,18.445A14.841,14.841,0,0,0,518.581,256.37Z" transform="translate(215.374 67.523)" fill="#e59b7f"/>
    <path id="Path_65" data-name="Path 65" d="M402.7,312.885l3.57,50.246,43.767-2.909L441.971,279.3Z" transform="translate(358.361 59.535)" fill="#f4b79b"/>
    <path id="Path_66" data-name="Path 66" d="M430.778,363.264l27.9-36.164L428.2,334.042Z" transform="translate(332.861 43.337)" fill="#e59b7f"/>
    <path id="Path_67" data-name="Path 67" d="M413.836,191.944a21.65,21.65,0,0,0-7.008,12.363c-2.843,14.148-8.4,39.139-3.438,54.146,6.545,19.569,22.412,33.453,48.064,28.561q30.742-3.107,37.089-42.048c10.049-62.08-42.709-80.063-74.707-53.023Z" transform="translate(319.458 93.273)" fill="#f4b79b"/>
    <path id="Path_68" data-name="Path 68" d="M522.875,256.047a3.44,3.44,0,0,0-4.165,2.446,3.35,3.35,0,0,0,2.446,4.1,3.31,3.31,0,0,0,4.1-2.38,3.408,3.408,0,0,0-2.38-4.165Z" transform="translate(206.386 67.45)" fill="#060606"/>
    <path id="Path_69" data-name="Path 69" d="M479.575,256.944a3.388,3.388,0,0,0-4.165,2.446,3.384,3.384,0,1,0,4.165-2.446Z" transform="translate(278.313 67.147)" fill="#060606"/>
    <path id="Path_70" data-name="Path 70" d="M507.622,274.7l-2.38,6.413a1.536,1.536,0,0,0,1.124,1.851l3.636.661" transform="translate(230.631 61.093)" fill="none" stroke="#060606" stroke-linecap="round" stroke-linejoin="round" stroke-width="3.1"/>
    <path id="Path_71" data-name="Path 71" d="M464.591,221.837q-10.512-1.851-11.041,2.975-.331,3.306,8.859,4.694c9.19,1.454,12.826,1.19,14.016-1.785C477.549,224.68,469.549,222.3,464.591,221.837Z" transform="translate(298.256 79.181)" fill="#060606"/>
    <path id="Path_72" data-name="Path 72" d="M513.7,217.384c.6,2.116,2.777,3.173,8.661,2.049q8-1.521,7.206-4.694-1.322-4.628-10.446-2.645C515.613,212.558,513.034,214.872,513.7,217.384Z" transform="translate(205.45 82.51)" fill="#060606"/>
    <ellipse id="Ellipse_10" data-name="Ellipse 10" cx="17.983" cy="18.379" rx="17.983" ry="18.379" transform="translate(744.665 308.158)" fill="#b5e0ea" opacity="0.5"/>
    <ellipse id="Ellipse_11" data-name="Ellipse 11" cx="15.404" cy="17.652" rx="15.404" ry="17.652" transform="translate(704.469 309.282)" fill="#b5e0ea" opacity="0.5"/>
    <path id="Path_73" data-name="Path 73" d="M444.7,237.83l25.85,26.379,5.025-9.917L454.286,233.4Z" transform="translate(305.056 75.089)" fill="#fff" opacity="0.1"/>
    <path id="Path_74" data-name="Path 74" d="M511.6,238.958l23.536,24.065,4.5-9.388L519.666,234Z" transform="translate(196.769 74.885)" fill="#fff" opacity="0.1"/>
    <ellipse id="Ellipse_12" data-name="Ellipse 12" cx="17.983" cy="18.379" rx="17.983" ry="18.379" transform="translate(744.665 308.158)" fill="none" stroke="#fff" stroke-linecap="round" stroke-linejoin="round" stroke-width="3.1"/>
    <ellipse id="Ellipse_13" data-name="Ellipse 13" cx="15.404" cy="17.652" rx="15.404" ry="17.652" transform="translate(704.469 309.282)" fill="none" stroke="#fff" stroke-linecap="round" stroke-linejoin="round" stroke-width="3.1"/>
    <path id="Path_75" data-name="Path 75" d="M508.422,259.848q-4.033-4.5-9.322,0" transform="translate(236.243 66.888)" fill="none" stroke="#fff" stroke-linecap="round" stroke-linejoin="round" stroke-width="3.1"/>
    <path id="Path_76" data-name="Path 76" d="M420.4,260.4l16.065,6.148" transform="translate(360.231 65.939)" fill="none" stroke="#fff" stroke-linecap="round" stroke-linejoin="round" stroke-width="3.1"/>
    <path id="Path_77" data-name="Path 77" d="M464.5,261.171,479.97,277.1l7.14-.859L464.566,253.7Z" transform="translate(280.43 68.21)" fill="#fff" opacity="0.1"/>
    <path id="Path_78" data-name="Path 78" d="M525.8,260.271,541.336,276.2l7.074-.859L525.866,252.8Z" transform="translate(178.603 68.515)" fill="#fff" opacity="0.1"/>
    <circle id="Ellipse_14" data-name="Ellipse 14" cx="3.438" cy="3.438" r="3.438" transform="translate(742.88 355.759)" fill="#060606"/>
    <path id="Path_79" data-name="Path 79" d="M450.973,223.714c3.306-44.1-29.552-49.651-42.973-53.353-4.3-1.19-11.107,1.653-11.239,6.148-.859,23.6,44.494,46.081,46.61,45.155Z" transform="translate(361.127 96.543)" fill="#060606"/>
    <path id="Path_80" data-name="Path 80" d="M490.084,199.275l-15.6-34.775q-41.519,1.388-49.981,28.561,16.065-18.974,36.626-15.537Z" transform="translate(303.902 98.437)" fill="#060606"/>
    <path id="Path_81" data-name="Path 81" d="M392.7,240.1l2.975,30.941L412.6,256.562l-.926-16.462Z" transform="translate(402.409 72.818)" fill="#060606"/>
    <path id="Path_82" data-name="Path 82" d="M392.009,257.309a17.965,17.965,0,1,0,11.966,22.412A18.029,18.029,0,0,0,392.009,257.309Z" transform="translate(426.041 67.245)" fill="#f4b79b"/>
    <path id="Path_83" data-name="Path 83" d="M400.427,275.037q-13.09-5.752-16.727,10.71" transform="translate(420.533 61.484)" fill="none" stroke="#060606" stroke-linecap="round" stroke-linejoin="round" stroke-width="3.1"/>
    <path id="Path_84" data-name="Path 84" d="M449.676,704H339.4V864.059H449.676Z" transform="translate(400.571 -84.384)" fill="#009bc7"/>
    <path id="Path_85" data-name="Path 85" d="M115.642,453.918c5.818,13.421,18.974,34.841,33.189,57.452,18.842,29.949,39.535,59.369,47.6,77.881a39.024,39.024,0,1,0,70.741-32.924l-57.386-88L181.358,423.44a36.231,36.231,0,0,0-65.716,30.478Z" transform="translate(728.986 17.539)" fill="#fff"/>
    <path id="Path_86" data-name="Path 86" d="M348.411,406.657l-27.371,12.826c-4.363,2.049-7.14,7.008-6.942,12.3l7.339,173.282,124.755-1.653,7.339-179.166c.264-9.586-6.611-21.024-15.206-21.751L387.55,401.5Z" transform="translate(413.443 18.124)" fill="#b5e0ea"/>
    <path id="Path_87" data-name="Path 87" d="M416.948,401.5,390.9,415.384l3.5,17.652,67.369-3.7-7.8-27.7-7.4-.132Z" transform="translate(354.426 18.124)" fill="#f4b79b"/>
    <path id="Path_88" data-name="Path 88" d="M541.59,406.1l-39.139,7.206-23.073,70.608,32.461,102.673Q478.783,659.841,468.8,763.109h70.013l-7.206-281.178,10.049-74.575Z" transform="translate(223.041 16.566)" fill="#fff"/>
    <path id="Path_89" data-name="Path 89" d="M503.79,410.1,470.8,445.14l17.255,18.379-15.735,16.66,21.487,115.3" transform="translate(259.585 15.21)" fill="none" stroke="#d7eef4" stroke-linecap="round" stroke-linejoin="round" stroke-width="2.8"/>
    <path id="Path_90" data-name="Path 90" d="M562.019,509.074q-8.793-26.643,1.653-46.874" transform="translate(142.053 -2.445)" fill="none" stroke="#d7eef4" stroke-linecap="round" stroke-linejoin="round" stroke-width="2.8"/>
    <path id="Path_91" data-name="Path 91" d="M258.991,401.7l-7.339,84.294,5.62,275.624h99.235q13.024-119.069-46.279-178.042L340.244,465.5l-12.165-62.807Z" transform="translate(549.407 18.057)" fill="#fff"/>
    <path id="Path_92" data-name="Path 92" d="M355.9,593.142,381.018,479.23l-13.289-16.991L385.778,438.7,355.3,403.2" transform="translate(453.958 17.548)" fill="none" stroke="#d7eef4" stroke-linecap="round" stroke-linejoin="round" stroke-width="2.8"/>
    <path id="Path_93" data-name="Path 93" d="M325,508.51h42.246V481.8H325Z" transform="translate(492.522 -9.087)" fill="#fff" stroke="#060606" stroke-linecap="round" stroke-linejoin="round" stroke-width="2.4"/>
    <path id="Path_94" data-name="Path 94" d="M319.6,487.688h49.386V478.3H319.6Z" transform="translate(494.352 -7.901)" fill="#009bc7"/>
    <path id="Path_95" data-name="Path 95" d="M353.374,682.469l89.715-21.553L414.33,543.5,306.5,568.821l24.462,95.136Z" transform="translate(428.91 -29.995)" fill="#aaaae0"/>
    <path id="Path_96" data-name="Path 96" d="M455.73,543.5,347.9,568.821l1.388,5.95,107.83-25.321Z" transform="translate(387.51 -29.995)" fill="#060606"/>
    <path id="Path_97" data-name="Path 97" d="M423.63,549.238l-9.124,2.182a12.317,12.317,0,0,0-9.19,14.743l33.123-7.735a12.385,12.385,0,0,0-14.809-9.19Z" transform="translate(368.438 -31.832)" fill="#060606"/>
    <path id="Path_98" data-name="Path 98" d="M447.981,688.79,413.6,678.145a6.931,6.931,0,0,0-5.487,12.628l12.1,6.876-21.156,2.446-2.248-7.867q-19.173,8.991-4.958,22.544-.264,7.669,4.562,11.834.331,6.876,6.81,10.446,6.744,12.892,17.652,8.859,10.842-4.1,40.064-18.247Z" transform="translate(358.632 -75.521)" fill="#f4b79b"/>
    <path id="Path_99" data-name="Path 99" d="M464.2,733.7q6.677,5.289,17.255,1.851" transform="translate(286.283 -94.449)" fill="none" stroke="#e59b7f" stroke-linecap="round" stroke-linejoin="round" stroke-width="3"/>
    <path id="Path_100" data-name="Path 100" d="M461.5,751.6q5.95,2.975,14.479.132" transform="translate(293.545 -100.514)" fill="none" stroke="#e59b7f" stroke-linecap="round" stroke-linejoin="round" stroke-width="3"/>
    <path id="Path_101" data-name="Path 101" d="M458,766.926q3.7,1.917,9.983-.926" transform="translate(303.855 -105.394)" fill="none" stroke="#e59b7f" stroke-linecap="round" stroke-linejoin="round" stroke-width="3"/>
    <path id="Path_102" data-name="Path 102" d="M352.058,730.36l30.875-10.909L365.148,685.8,339.1,691.486Z" transform="translate(467.513 -78.217)" fill="#f4b79b"/>
    <path id="Path_103" data-name="Path 103" d="M126.668,703.719l140.886-23.6a38.7,38.7,0,1,0-14.941-75.831L112.586,659.952Z" transform="translate(699.316 -50.187)" fill="#fff"/>
    <path id="Path_104" data-name="Path 104" d="M344,676.1l12.628,49.188" transform="translate(490.579 -74.93)" fill="none" stroke="#d7eef4" stroke-width="2.8"/>
    <path id="Path_105" data-name="Path 105" d="M203.1,624.558,237.413,611.6" transform="translate(702.947 -53.072)" fill="none" stroke="#d7eef4" stroke-width="2.8"/>
    <path id="Path_106" data-name="Path 106" d="M344.382,741.4,282.5,750.59" transform="translate(543.484 -97.058)" fill="none" stroke="#d7eef4" stroke-width="2.8"/>
  </g>
</svg>
